{"glyphs":{"0":{"ha":793,"x_min":69,"x_max":724,"o":"m 396 0 q 219 65 293 0 q 108 253 146 131 q 69 544 69 375 q 108 835 69 713 q 219 1022 146 957 q 396 1088 293 1088 q 574 1022 500 1088 q 685 833 647 956 q 724 544 724 711 q 638 144 724 289 q 396 0 551 0 m 396 108 q 560 228 504 108 q 615 544 615 347 q 559 860 615 740 q 396 979 503 979 q 233 860 289 979 q 178 544 178 740 q 233 227 178 346 q 396 108 289 108 z "},"1":{"ha":525,"x_min":57,"x_max":386,"o":"m 332 0 q 294 16 310 0 q 278 54 278 32 l 278 957 l 139 908 q 111 901 125 901 q 72 916 88 901 q 57 954 57 931 q 92 1006 57 994 l 306 1079 q 333 1086 326 1086 q 371 1071 356 1086 q 386 1032 386 1056 l 386 54 q 371 16 386 32 q 332 0 356 0 z "},"2":{"ha":807,"x_min":90,"x_max":742,"o":"m 153 0 q 115 16 131 0 q 99 54 99 32 q 114 92 99 76 l 535 589 q 590 673 569 626 q 611 760 611 719 q 553 919 611 857 q 407 982 496 982 q 301 952 349 982 q 226 872 254 922 q 199 760 199 821 q 183 722 199 738 q 144 707 167 707 q 106 722 122 707 q 90 760 90 738 q 132 926 90 851 q 246 1044 174 1001 q 407 1086 318 1086 q 567 1044 497 1086 q 677 928 638 1003 q 717 760 717 854 q 608 521 717 647 l 253 108 l 688 108 q 726 92 710 108 q 742 54 742 76 q 726 16 742 32 q 688 0 711 0 l 153 0 z "},"3":{"ha":813,"x_min":76,"x_max":750,"o":"m 417 -7 q 243 35 321 -7 q 121 152 165 78 q 76 318 76 226 q 91 358 76 342 q 128 375 106 375 q 165 358 150 375 q 179 318 179 342 q 210 204 179 256 q 294 123 240 153 q 413 93 347 93 q 581 153 519 93 q 643 310 643 213 q 614 428 643 376 q 535 508 585 479 q 422 536 485 536 q 385 551 400 536 q 369 590 369 567 q 385 628 369 614 q 422 643 400 643 q 511 667 469 643 q 578 733 553 692 q 603 821 603 774 q 552 944 603 894 q 419 993 501 993 q 275 944 332 993 q 218 822 218 896 q 203 783 218 799 q 167 767 189 767 q 130 783 144 767 q 115 821 115 799 q 155 959 115 897 q 264 1056 194 1021 q 419 1092 333 1092 q 565 1056 499 1092 q 668 959 631 1021 q 706 821 706 897 q 658 688 706 751 q 540 594 610 625 q 697 487 643 564 q 750 310 750 410 q 706 148 750 221 q 586 34 663 75 q 417 -7 510 -7 z "},"4":{"ha":899,"x_min":19,"x_max":839,"o":"m 786 357 q 839 307 839 357 q 823 274 839 289 q 786 260 807 260 l 676 260 l 676 54 q 661 16 676 32 q 622 0 646 0 q 585 15 600 0 q 571 54 571 31 l 571 260 l 74 260 q 35 276 50 260 q 19 313 19 292 q 31 344 19 329 l 581 1064 q 625 1086 596 1086 q 662 1070 647 1086 q 676 1031 676 1054 l 676 357 l 786 357 m 164 357 l 571 357 l 571 888 l 164 357 z "},"5":{"ha":871,"x_min":90,"x_max":794,"o":"m 442 0 q 263 46 343 0 q 136 173 182 92 q 90 353 90 254 q 106 392 90 376 q 143 407 121 407 q 183 391 167 407 q 199 353 199 375 q 231 228 199 285 q 318 140 263 172 q 442 108 374 108 q 566 140 510 108 q 654 228 622 172 q 686 353 686 285 q 654 477 686 421 q 566 565 622 533 q 442 597 510 597 l 199 597 q 160 613 176 597 q 144 651 144 629 l 144 1032 q 160 1071 144 1056 q 199 1086 176 1086 l 686 1086 q 724 1070 708 1086 q 740 1032 740 1054 q 724 994 740 1010 q 686 978 708 978 l 251 978 l 251 706 l 442 706 q 622 659 540 706 q 749 532 703 613 q 794 353 794 451 q 749 173 794 254 q 622 46 703 92 q 442 0 540 0 z "},"6":{"ha":804,"x_min":90,"x_max":742,"o":"m 417 653 q 583 610 508 653 q 699 494 657 568 q 742 326 742 419 q 699 159 742 233 q 583 42 657 85 q 417 0 510 0 q 249 42 324 0 q 133 159 175 85 q 90 326 90 233 q 132 493 90 417 l 131 492 l 474 1056 q 522 1085 493 1085 q 562 1069 546 1085 q 578 1032 578 1053 q 569 1003 578 1018 l 351 647 q 417 653 379 653 m 415 100 q 528 129 478 100 q 608 210 579 158 q 638 326 638 263 q 608 442 638 390 q 528 524 579 494 q 415 554 478 554 q 302 524 353 554 q 222 442 251 494 q 193 326 193 390 q 222 210 193 263 q 302 129 251 158 q 415 100 353 100 z "},"7":{"ha":789,"x_min":64,"x_max":738,"o":"m 226 0 q 188 16 204 0 q 172 54 172 32 q 183 89 172 67 l 597 978 l 119 978 q 80 994 96 978 q 64 1032 64 1010 q 80 1070 64 1054 q 119 1086 96 1086 l 685 1086 q 722 1070 707 1086 q 738 1032 738 1054 q 729 1003 738 1022 l 275 31 q 255 8 268 17 q 226 0 242 0 z "},"8":{"ha":824,"x_min":88,"x_max":736,"o":"m 571 608 q 692 495 647 568 q 736 331 736 422 q 694 160 736 236 q 577 39 651 83 q 413 -6 503 -6 q 247 38 321 -6 q 130 158 172 82 q 88 326 88 233 q 133 494 88 419 q 254 608 178 568 q 174 701 203 644 q 144 825 144 757 q 180 959 144 899 q 277 1053 215 1019 q 415 1088 339 1088 q 551 1053 490 1088 q 645 960 611 1019 q 679 828 679 901 q 650 702 679 760 q 571 608 621 644 m 247 824 q 294 702 247 751 q 413 653 342 653 q 530 703 483 653 q 576 829 576 754 q 529 943 576 897 q 413 989 482 989 q 294 942 342 989 q 247 824 247 894 m 628 329 q 599 442 628 392 q 522 521 571 492 q 413 550 472 550 q 301 520 351 550 q 224 439 251 490 q 196 324 196 388 q 224 206 196 260 q 302 122 253 153 q 413 92 351 92 q 523 123 474 92 q 600 209 572 154 q 628 329 628 264 z "},"9":{"ha":804,"x_min":63,"x_max":714,"o":"m 714 760 q 672 593 714 669 l 674 594 l 331 31 q 282 1 313 1 q 242 17 258 1 q 226 54 226 33 q 235 83 226 69 l 453 439 q 388 433 425 433 q 222 476 296 433 q 105 592 147 518 q 63 760 63 667 q 105 927 63 853 q 221 1044 147 1001 q 388 1086 294 1086 q 555 1044 481 1086 q 672 927 629 1001 q 714 760 714 853 m 167 760 q 196 644 167 696 q 276 562 225 592 q 389 532 326 532 q 502 562 451 532 q 582 644 553 592 q 611 760 611 696 q 582 876 611 824 q 502 957 553 928 q 389 986 451 986 q 276 957 326 986 q 196 876 225 928 q 167 760 167 824 z "},"\u0000":{"ha":0,"x_min":0,"x_max":0,"o":""},"\r":{"ha":407,"x_min":0,"x_max":0,"o":""}," ":{"ha":407,"x_min":0,"x_max":0,"o":""},"A":{"ha":976,"x_min":26,"x_max":958,"o":"m 953 76 q 958 54 958 67 q 942 16 958 32 q 904 0 926 0 q 853 33 868 0 l 760 258 l 222 258 l 129 33 q 79 0 118 0 q 41 16 56 0 q 26 54 26 32 q 31 78 26 68 l 439 1047 q 492 1085 454 1085 q 543 1047 529 1085 l 953 76 m 261 351 l 722 351 l 492 908 l 261 351 z "},"Á":{"ha":976,"x_min":26,"x_max":958,"o":"m 953 76 q 958 54 958 67 q 942 16 958 32 q 904 0 926 0 q 853 33 868 0 l 760 258 l 222 258 l 129 33 q 79 0 118 0 q 41 16 56 0 q 26 54 26 32 q 31 78 26 68 l 439 1047 q 492 1085 454 1085 q 543 1047 529 1085 l 953 76 m 261 351 l 722 351 l 492 908 l 261 351 m 479 1200 q 440 1216 456 1200 q 425 1254 425 1232 q 438 1290 425 1276 l 594 1447 q 632 1463 610 1463 q 671 1447 656 1463 q 686 1407 686 1431 q 671 1371 686 1385 l 515 1214 q 479 1200 501 1200 z "},"Ă":{"ha":976,"x_min":26,"x_max":958,"o":"m 953 76 q 958 54 958 67 q 942 16 958 32 q 904 0 926 0 q 853 33 868 0 l 760 258 l 222 258 l 129 33 q 79 0 118 0 q 41 16 56 0 q 26 54 26 32 q 31 78 26 68 l 439 1047 q 492 1085 454 1085 q 543 1047 529 1085 l 953 76 m 261 351 l 722 351 l 492 908 l 261 351 m 488 1201 q 379 1223 429 1201 q 300 1281 329 1244 q 271 1363 271 1318 q 286 1402 271 1386 q 324 1418 301 1418 q 360 1403 344 1418 q 375 1368 375 1389 q 407 1314 375 1336 q 488 1292 439 1292 q 570 1313 539 1292 q 601 1368 601 1335 q 617 1404 601 1390 q 654 1418 632 1418 q 691 1402 676 1418 q 706 1364 706 1386 q 640 1247 703 1293 q 488 1201 576 1201 z "},"Ắ":{"ha":976,"x_min":26,"x_max":958,"o":"m 953 76 q 958 54 958 67 q 942 16 958 32 q 904 0 926 0 q 853 33 868 0 l 760 258 l 222 258 l 129 33 q 79 0 118 0 q 41 16 56 0 q 26 54 26 32 q 31 78 26 68 l 439 1047 q 492 1085 454 1085 q 543 1047 529 1085 l 953 76 m 261 351 l 722 351 l 492 908 l 261 351 m 488 1201 q 379 1223 429 1201 q 300 1281 329 1244 q 271 1363 271 1318 q 286 1402 271 1386 q 324 1418 301 1418 q 360 1403 344 1418 q 375 1368 375 1389 q 407 1314 375 1336 q 488 1292 439 1292 q 570 1313 539 1292 q 601 1368 601 1335 q 617 1404 601 1390 q 654 1418 632 1418 q 691 1402 676 1418 q 706 1364 706 1386 q 640 1247 703 1293 q 488 1201 576 1201 m 479 1433 q 440 1449 456 1433 q 425 1488 425 1465 q 438 1524 425 1510 l 594 1681 q 632 1696 610 1696 q 671 1680 656 1696 q 686 1640 686 1664 q 671 1604 686 1618 l 515 1447 q 479 1433 501 1433 z "},"Ặ":{"ha":976,"x_min":26,"x_max":958,"o":"m 953 76 q 958 54 958 67 q 942 16 958 32 q 904 0 926 0 q 853 33 868 0 l 760 258 l 222 258 l 129 33 q 79 0 118 0 q 41 16 56 0 q 26 54 26 32 q 31 78 26 68 l 439 1047 q 492 1085 454 1085 q 543 1047 529 1085 l 953 76 m 261 351 l 722 351 l 492 908 l 261 351 m 488 1201 q 379 1223 429 1201 q 300 1281 329 1244 q 271 1363 271 1318 q 286 1402 271 1386 q 324 1418 301 1418 q 360 1403 344 1418 q 375 1368 375 1389 q 407 1314 375 1336 q 488 1292 439 1292 q 570 1313 539 1292 q 601 1368 601 1335 q 617 1404 601 1390 q 654 1418 632 1418 q 691 1402 676 1418 q 706 1364 706 1386 q 640 1247 703 1293 q 488 1201 576 1201 m 488 -290 q 434 -268 456 -290 q 413 -214 413 -246 q 435 -160 413 -181 q 489 -139 457 -139 q 542 -160 519 -139 q 564 -214 564 -181 q 542 -268 564 -246 q 488 -290 519 -290 z "},"Ằ":{"ha":976,"x_min":26,"x_max":958,"o":"m 953 76 q 958 54 958 67 q 942 16 958 32 q 904 0 926 0 q 853 33 868 0 l 760 258 l 222 258 l 129 33 q 79 0 118 0 q 41 16 56 0 q 26 54 26 32 q 31 78 26 68 l 439 1047 q 492 1085 454 1085 q 543 1047 529 1085 l 953 76 m 261 351 l 722 351 l 492 908 l 261 351 m 488 1201 q 379 1223 429 1201 q 300 1281 329 1244 q 271 1363 271 1318 q 286 1402 271 1386 q 324 1418 301 1418 q 360 1403 344 1418 q 375 1368 375 1389 q 407 1314 375 1336 q 488 1292 439 1292 q 570 1313 539 1292 q 601 1368 601 1335 q 617 1404 601 1390 q 654 1418 632 1418 q 691 1402 676 1418 q 706 1364 706 1386 q 640 1247 703 1293 q 488 1201 576 1201 m 488 1442 q 451 1457 467 1442 l 294 1613 q 281 1650 281 1626 q 296 1690 281 1674 q 333 1706 311 1706 q 372 1689 356 1706 l 528 1532 q 542 1497 542 1519 q 526 1458 542 1474 q 488 1442 511 1442 z "},"Ẳ":{"ha":976,"x_min":26,"x_max":958,"o":"m 953 76 q 958 54 958 67 q 942 16 958 32 q 904 0 926 0 q 853 33 868 0 l 760 258 l 222 258 l 129 33 q 79 0 118 0 q 41 16 56 0 q 26 54 26 32 q 31 78 26 68 l 439 1047 q 492 1085 454 1085 q 543 1047 529 1085 l 953 76 m 261 351 l 722 351 l 492 908 l 261 351 m 488 1201 q 379 1223 429 1201 q 300 1281 329 1244 q 271 1363 271 1318 q 286 1402 271 1386 q 324 1418 301 1418 q 360 1403 344 1418 q 375 1368 375 1389 q 407 1314 375 1336 q 488 1292 439 1292 q 570 1313 539 1292 q 601 1368 601 1335 q 617 1404 601 1390 q 654 1418 632 1418 q 691 1402 676 1418 q 706 1364 706 1386 q 640 1247 703 1293 q 488 1201 576 1201 m 488 1389 q 452 1403 467 1389 q 438 1439 438 1418 l 438 1478 q 482 1532 438 1522 l 517 1539 q 574 1600 574 1553 q 554 1647 574 1631 q 504 1664 535 1664 q 443 1642 472 1664 q 408 1629 431 1629 q 377 1642 390 1629 q 364 1674 364 1654 q 381 1711 364 1697 q 503 1754 435 1754 q 619 1713 574 1754 q 665 1607 665 1672 q 626 1512 665 1546 q 525 1468 588 1478 l 536 1450 q 522 1406 536 1422 q 488 1389 508 1389 z "},"Ẵ":{"ha":976,"x_min":26,"x_max":958,"o":"m 953 76 q 958 54 958 67 q 942 16 958 32 q 904 0 926 0 q 853 33 868 0 l 760 258 l 222 258 l 129 33 q 79 0 118 0 q 41 16 56 0 q 26 54 26 32 q 31 78 26 68 l 439 1047 q 492 1085 454 1085 q 543 1047 529 1085 l 953 76 m 261 351 l 722 351 l 492 908 l 261 351 m 488 1201 q 379 1223 429 1201 q 300 1281 329 1244 q 271 1363 271 1318 q 286 1402 271 1386 q 324 1418 301 1418 q 360 1403 344 1418 q 375 1368 375 1389 q 407 1314 375 1336 q 488 1292 439 1292 q 570 1313 539 1292 q 601 1368 601 1335 q 617 1404 601 1390 q 654 1418 632 1418 q 691 1402 676 1418 q 706 1364 706 1386 q 640 1247 703 1293 q 488 1201 576 1201 m 578 1450 q 469 1501 521 1450 q 434 1531 447 1522 q 407 1539 421 1539 q 380 1526 392 1539 q 354 1488 368 1514 q 310 1458 336 1458 q 276 1471 289 1458 q 264 1501 264 1483 q 269 1525 264 1514 q 328 1603 296 1579 q 401 1628 360 1628 q 459 1615 438 1628 q 511 1575 481 1601 q 545 1549 533 1556 q 568 1542 557 1542 q 586 1549 578 1542 q 603 1575 594 1557 q 624 1599 610 1590 q 651 1608 638 1608 q 665 1606 657 1608 q 699 1564 699 1592 q 693 1542 699 1551 q 642 1472 669 1493 q 578 1450 614 1450 z "},"Â":{"ha":976,"x_min":26,"x_max":958,"o":"m 953 76 q 958 54 958 67 q 942 16 958 32 q 904 0 926 0 q 853 33 868 0 l 760 258 l 222 258 l 129 33 q 79 0 118 0 q 41 16 56 0 q 26 54 26 32 q 31 78 26 68 l 439 1047 q 492 1085 454 1085 q 543 1047 529 1085 l 953 76 m 261 351 l 722 351 l 492 908 l 261 351 m 328 1206 q 288 1219 304 1206 q 272 1254 272 1232 q 299 1301 272 1283 l 463 1410 q 489 1417 474 1417 q 517 1410 503 1417 l 679 1301 q 706 1254 706 1283 q 690 1219 706 1233 q 651 1206 675 1206 q 618 1217 636 1206 l 489 1306 l 360 1217 q 328 1206 344 1206 z "},"Ấ":{"ha":976,"x_min":26,"x_max":958,"o":"m 953 76 q 958 54 958 67 q 942 16 958 32 q 904 0 926 0 q 853 33 868 0 l 760 258 l 222 258 l 129 33 q 79 0 118 0 q 41 16 56 0 q 26 54 26 32 q 31 78 26 68 l 439 1047 q 492 1085 454 1085 q 543 1047 529 1085 l 953 76 m 261 351 l 722 351 l 492 908 l 261 351 m 328 1206 q 288 1219 304 1206 q 272 1254 272 1232 q 299 1301 272 1283 l 463 1410 q 489 1417 474 1417 q 517 1410 503 1417 l 679 1301 q 706 1254 706 1283 q 690 1219 706 1233 q 651 1206 675 1206 q 618 1217 636 1206 l 489 1306 l 360 1217 q 328 1206 344 1206 m 613 1435 q 574 1451 589 1435 q 558 1489 558 1467 q 571 1525 558 1511 l 728 1682 q 765 1697 743 1697 q 804 1681 789 1697 q 819 1642 819 1665 q 804 1606 819 1619 l 649 1449 q 613 1435 635 1435 z "},"Ậ":{"ha":976,"x_min":26,"x_max":958,"o":"m 953 76 q 958 54 958 67 q 942 16 958 32 q 904 0 926 0 q 853 33 868 0 l 760 258 l 222 258 l 129 33 q 79 0 118 0 q 41 16 56 0 q 26 54 26 32 q 31 78 26 68 l 439 1047 q 492 1085 454 1085 q 543 1047 529 1085 l 953 76 m 261 351 l 722 351 l 492 908 l 261 351 m 328 1206 q 288 1219 304 1206 q 272 1254 272 1232 q 299 1301 272 1283 l 463 1410 q 489 1417 474 1417 q 517 1410 503 1417 l 679 1301 q 706 1254 706 1283 q 690 1219 706 1233 q 651 1206 675 1206 q 618 1217 636 1206 l 489 1306 l 360 1217 q 328 1206 344 1206 m 488 -290 q 434 -268 456 -290 q 413 -214 413 -246 q 435 -160 413 -181 q 489 -139 457 -139 q 542 -160 519 -139 q 564 -214 564 -181 q 542 -268 564 -246 q 488 -290 519 -290 z "},"Ầ":{"ha":976,"x_min":26,"x_max":958,"o":"m 953 76 q 958 54 958 67 q 942 16 958 32 q 904 0 926 0 q 853 33 868 0 l 760 258 l 222 258 l 129 33 q 79 0 118 0 q 41 16 56 0 q 26 54 26 32 q 31 78 26 68 l 439 1047 q 492 1085 454 1085 q 543 1047 529 1085 l 953 76 m 261 351 l 722 351 l 492 908 l 261 351 m 328 1206 q 288 1219 304 1206 q 272 1254 272 1232 q 299 1301 272 1283 l 463 1410 q 489 1417 474 1417 q 517 1410 503 1417 l 679 1301 q 706 1254 706 1283 q 690 1219 706 1233 q 651 1206 675 1206 q 618 1217 636 1206 l 489 1306 l 360 1217 q 328 1206 344 1206 m 621 1443 q 585 1458 600 1443 l 428 1614 q 414 1651 414 1628 q 429 1691 414 1675 q 467 1707 444 1707 q 506 1690 489 1707 l 661 1533 q 675 1499 675 1521 q 660 1459 675 1475 q 621 1443 644 1443 z "},"Ẩ":{"ha":976,"x_min":26,"x_max":958,"o":"m 953 76 q 958 54 958 67 q 942 16 958 32 q 904 0 926 0 q 853 33 868 0 l 760 258 l 222 258 l 129 33 q 79 0 118 0 q 41 16 56 0 q 26 54 26 32 q 31 78 26 68 l 439 1047 q 492 1085 454 1085 q 543 1047 529 1085 l 953 76 m 261 351 l 722 351 l 492 908 l 261 351 m 332 1206 q 292 1219 308 1206 q 276 1254 276 1232 q 303 1301 276 1283 l 467 1410 q 493 1417 478 1417 q 521 1410 507 1417 l 683 1301 q 710 1254 710 1283 q 694 1219 710 1233 q 656 1206 679 1206 q 622 1217 640 1206 l 493 1306 l 364 1217 q 332 1206 349 1206 m 625 1390 q 590 1405 604 1390 q 575 1440 575 1419 l 575 1479 q 619 1533 575 1524 l 654 1540 q 711 1601 711 1554 q 692 1649 711 1632 q 642 1665 672 1665 q 581 1643 610 1665 q 546 1631 568 1631 q 515 1643 528 1631 q 501 1675 501 1656 q 518 1713 501 1699 q 640 1756 572 1756 q 757 1715 711 1756 q 803 1608 803 1674 q 764 1513 803 1547 q 663 1469 725 1479 l 674 1451 q 660 1407 674 1424 q 625 1390 646 1390 z "},"Ẫ":{"ha":976,"x_min":26,"x_max":958,"o":"m 953 76 q 958 54 958 67 q 942 16 958 32 q 904 0 926 0 q 853 33 868 0 l 760 258 l 222 258 l 129 33 q 79 0 118 0 q 41 16 56 0 q 26 54 26 32 q 31 78 26 68 l 439 1047 q 492 1085 454 1085 q 543 1047 529 1085 l 953 76 m 261 351 l 722 351 l 492 908 l 261 351 m 331 1206 q 291 1219 307 1206 q 275 1254 275 1232 q 301 1301 275 1283 l 465 1410 q 492 1417 476 1417 q 519 1410 506 1417 l 682 1301 q 708 1254 708 1283 q 693 1219 708 1233 q 654 1206 678 1206 q 621 1217 639 1206 l 492 1306 l 363 1217 q 331 1206 347 1206 m 574 1454 q 465 1506 517 1454 q 430 1535 443 1526 q 403 1543 417 1543 q 376 1531 388 1543 q 350 1492 364 1518 q 306 1463 332 1463 q 272 1475 285 1463 q 260 1506 260 1488 q 265 1529 260 1518 q 324 1608 292 1583 q 397 1632 356 1632 q 455 1619 433 1632 q 507 1579 476 1606 q 541 1553 529 1560 q 564 1546 553 1546 q 582 1553 574 1546 q 599 1579 590 1561 q 619 1603 606 1594 q 647 1613 633 1613 q 661 1610 653 1613 q 694 1568 694 1596 q 689 1546 694 1556 q 638 1476 665 1497 q 574 1454 610 1454 z "},"Ȁ":{"ha":976,"x_min":26,"x_max":958,"o":"m 953 76 q 958 54 958 67 q 942 16 958 32 q 904 0 926 0 q 853 33 868 0 l 760 258 l 222 258 l 129 33 q 79 0 118 0 q 41 16 56 0 q 26 54 26 32 q 31 78 26 68 l 439 1047 q 492 1085 454 1085 q 543 1047 529 1085 l 953 76 m 261 351 l 722 351 l 492 908 l 261 351 m 428 1192 q 389 1218 401 1192 l 304 1397 q 300 1417 300 1408 q 315 1455 300 1439 q 354 1471 331 1471 q 385 1461 371 1471 q 403 1438 399 1451 l 464 1249 q 467 1232 467 1238 q 455 1203 467 1214 q 428 1192 443 1192 m 638 1192 q 599 1218 611 1192 l 514 1397 q 510 1417 510 1408 q 526 1455 510 1439 q 565 1471 542 1471 q 596 1461 582 1471 q 615 1438 610 1451 l 674 1249 q 676 1232 676 1243 q 665 1203 676 1214 q 638 1192 653 1192 z "},"Ä":{"ha":976,"x_min":26,"x_max":958,"o":"m 953 76 q 958 54 958 67 q 942 16 958 32 q 904 0 926 0 q 853 33 868 0 l 760 258 l 222 258 l 129 33 q 79 0 118 0 q 41 16 56 0 q 26 54 26 32 q 31 78 26 68 l 439 1047 q 492 1085 454 1085 q 543 1047 529 1085 l 953 76 m 261 351 l 722 351 l 492 908 l 261 351 m 344 1224 q 290 1246 313 1224 q 268 1300 268 1268 q 290 1354 268 1332 q 344 1376 313 1376 q 399 1354 376 1376 q 421 1300 421 1332 q 399 1246 421 1268 q 344 1224 376 1224 m 635 1224 q 581 1246 603 1224 q 558 1300 558 1268 q 581 1354 558 1332 q 635 1376 603 1376 q 689 1354 667 1376 q 711 1300 711 1332 q 689 1246 711 1268 q 635 1224 667 1224 z "},"Ạ":{"ha":976,"x_min":26,"x_max":958,"o":"m 953 76 q 958 54 958 67 q 942 16 958 32 q 904 0 926 0 q 853 33 868 0 l 760 258 l 222 258 l 129 33 q 79 0 118 0 q 41 16 56 0 q 26 54 26 32 q 31 78 26 68 l 439 1047 q 492 1085 454 1085 q 543 1047 529 1085 l 953 76 m 261 351 l 722 351 l 492 908 l 261 351 m 488 -290 q 434 -268 456 -290 q 413 -214 413 -246 q 435 -160 413 -181 q 489 -139 457 -139 q 542 -160 519 -139 q 564 -214 564 -181 q 542 -268 564 -246 q 488 -290 519 -290 z "},"À":{"ha":976,"x_min":26,"x_max":958,"o":"m 953 76 q 958 54 958 67 q 942 16 958 32 q 904 0 926 0 q 853 33 868 0 l 760 258 l 222 258 l 129 33 q 79 0 118 0 q 41 16 56 0 q 26 54 26 32 q 31 78 26 68 l 439 1047 q 492 1085 454 1085 q 543 1047 529 1085 l 953 76 m 261 351 l 722 351 l 492 908 l 261 351 m 488 1208 q 451 1224 467 1208 l 294 1379 q 281 1417 281 1393 q 296 1456 281 1440 q 333 1472 311 1472 q 372 1456 356 1472 l 528 1299 q 542 1264 542 1286 q 526 1224 542 1240 q 488 1208 511 1208 z "},"Ả":{"ha":976,"x_min":26,"x_max":958,"o":"m 953 76 q 958 54 958 67 q 942 16 958 32 q 904 0 926 0 q 853 33 868 0 l 760 258 l 222 258 l 129 33 q 79 0 118 0 q 41 16 56 0 q 26 54 26 32 q 31 78 26 68 l 439 1047 q 492 1085 454 1085 q 543 1047 529 1085 l 953 76 m 261 351 l 722 351 l 492 908 l 261 351 m 488 1156 q 452 1170 467 1156 q 438 1206 438 1185 l 438 1244 q 482 1299 438 1289 l 517 1306 q 574 1367 574 1319 q 554 1414 574 1397 q 504 1431 535 1431 q 443 1408 472 1431 q 408 1396 431 1396 q 377 1408 390 1396 q 364 1440 364 1421 q 381 1478 364 1464 q 503 1521 435 1521 q 619 1480 574 1521 q 665 1374 665 1439 q 626 1278 665 1313 q 525 1235 588 1244 l 536 1217 q 522 1172 536 1189 q 488 1156 508 1156 z "},"Ȃ":{"ha":976,"x_min":26,"x_max":958,"o":"m 953 76 q 958 54 958 67 q 942 16 958 32 q 904 0 926 0 q 853 33 868 0 l 760 258 l 222 258 l 129 33 q 79 0 118 0 q 41 16 56 0 q 26 54 26 32 q 31 78 26 68 l 439 1047 q 492 1085 454 1085 q 543 1047 529 1085 l 953 76 m 261 351 l 722 351 l 492 908 l 261 351 m 488 1417 q 640 1371 576 1417 q 706 1254 703 1325 q 691 1216 706 1232 q 654 1200 676 1200 q 617 1214 632 1200 q 601 1250 601 1228 q 570 1305 601 1283 q 488 1326 539 1326 q 407 1304 439 1326 q 375 1250 375 1282 q 360 1215 375 1229 q 324 1200 344 1200 q 286 1216 301 1200 q 271 1256 271 1232 q 300 1337 271 1300 q 379 1395 329 1374 q 488 1417 429 1417 z "},"Ā":{"ha":976,"x_min":26,"x_max":958,"o":"m 953 76 q 958 54 958 67 q 942 16 958 32 q 904 0 926 0 q 853 33 868 0 l 760 258 l 222 258 l 129 33 q 79 0 118 0 q 41 16 56 0 q 26 54 26 32 q 31 78 26 68 l 439 1047 q 492 1085 454 1085 q 543 1047 529 1085 l 953 76 m 261 351 l 722 351 l 492 908 l 261 351 m 308 1236 q 269 1250 285 1236 q 254 1286 254 1264 q 269 1322 254 1308 q 308 1336 285 1336 l 668 1336 q 706 1322 690 1336 q 722 1286 722 1308 q 706 1250 722 1264 q 668 1236 690 1236 l 308 1236 z "},"Ą":{"ha":976,"x_min":26,"x_max":1063,"o":"m 1008 -168 q 1047 -184 1032 -168 q 1063 -222 1063 -200 q 1044 -265 1063 -247 l 989 -301 q 900 -331 947 -331 q 785 -283 833 -331 q 738 -168 738 -235 q 806 -35 738 -92 q 853 19 842 -8 l 857 25 l 853 33 l 760 258 l 222 258 l 129 33 q 79 0 118 0 q 41 16 56 0 q 26 54 26 32 q 31 78 26 68 l 439 1047 q 492 1085 454 1085 q 543 1047 529 1085 l 953 76 q 958 54 958 67 q 947 21 958 36 q 954 -6 954 10 q 868 -124 954 -61 q 846 -168 846 -140 q 862 -207 846 -192 q 900 -222 878 -222 q 929 -214 917 -222 l 976 -179 q 1008 -168 992 -168 m 261 351 l 722 351 l 492 908 l 261 351 z "},"Å":{"ha":976,"x_min":26,"x_max":958,"o":"m 953 76 q 958 54 958 67 q 942 16 958 32 q 904 0 926 0 q 853 33 868 0 l 760 258 l 222 258 l 129 33 q 79 0 118 0 q 41 16 56 0 q 26 54 26 32 q 31 78 26 68 l 439 1047 q 492 1085 454 1085 q 543 1047 529 1085 l 953 76 m 261 351 l 722 351 l 492 908 l 261 351 m 489 1149 q 392 1188 432 1149 q 353 1285 353 1226 q 392 1382 353 1343 q 489 1421 432 1421 q 586 1382 547 1421 q 625 1285 625 1343 q 586 1188 625 1226 q 489 1149 547 1149 m 489 1211 q 541 1233 519 1211 q 563 1285 563 1254 q 541 1338 563 1317 q 489 1358 519 1358 q 438 1337 458 1358 q 417 1285 417 1315 q 438 1233 417 1254 q 489 1211 458 1211 z "},"Ǻ":{"ha":976,"x_min":26,"x_max":958,"o":"m 953 76 q 958 54 958 67 q 942 16 958 32 q 904 0 926 0 q 853 33 868 0 l 760 258 l 222 258 l 129 33 q 79 0 118 0 q 41 16 56 0 q 26 54 26 32 q 31 78 26 68 l 439 1047 q 492 1085 454 1085 q 543 1047 529 1085 l 953 76 m 261 351 l 722 351 l 492 908 l 261 351 m 489 1149 q 392 1188 432 1149 q 353 1285 353 1226 q 392 1382 353 1343 q 489 1421 432 1421 q 586 1382 547 1421 q 625 1285 625 1343 q 586 1188 625 1226 q 489 1149 547 1149 m 489 1211 q 541 1233 519 1211 q 563 1285 563 1254 q 541 1338 563 1317 q 489 1358 519 1358 q 438 1337 458 1358 q 417 1285 417 1315 q 438 1233 417 1254 q 489 1211 458 1211 m 479 1475 q 440 1491 456 1475 q 425 1529 425 1507 q 438 1565 425 1551 l 594 1722 q 632 1738 610 1738 q 671 1722 656 1738 q 686 1682 686 1706 q 671 1646 686 1660 l 515 1489 q 479 1475 501 1475 z "},"Ã":{"ha":976,"x_min":26,"x_max":958,"o":"m 953 76 q 958 54 958 67 q 942 16 958 32 q 904 0 926 0 q 853 33 868 0 l 760 258 l 222 258 l 129 33 q 79 0 118 0 q 41 16 56 0 q 26 54 26 32 q 31 78 26 68 l 439 1047 q 492 1085 454 1085 q 543 1047 529 1085 l 953 76 m 261 351 l 722 351 l 492 908 l 261 351 m 578 1217 q 469 1268 521 1217 q 434 1297 447 1289 q 407 1306 421 1306 q 380 1293 392 1306 q 354 1254 368 1281 q 310 1225 336 1225 q 276 1238 289 1225 q 264 1268 264 1250 q 269 1292 264 1281 q 328 1370 296 1346 q 401 1394 360 1394 q 459 1381 438 1394 q 511 1342 481 1368 q 545 1315 533 1322 q 568 1308 557 1308 q 586 1316 578 1308 q 603 1342 594 1324 q 624 1366 610 1357 q 651 1375 638 1375 q 665 1372 657 1375 q 699 1331 699 1358 q 693 1308 699 1318 q 642 1238 669 1260 q 578 1217 614 1217 z "},"Æ":{"ha":1333,"x_min":25,"x_max":1271,"o":"m 1217 104 q 1256 90 1240 104 q 1271 53 1271 75 q 1256 15 1271 31 q 1217 0 1240 0 l 669 0 q 631 16 647 0 q 615 54 615 32 l 615 258 l 265 258 l 131 33 q 81 0 114 0 q 41 17 57 0 q 25 54 25 33 q 32 78 25 64 l 614 1043 q 644 1075 626 1065 q 689 1085 661 1085 l 1217 1085 q 1256 1069 1240 1085 q 1271 1032 1271 1054 q 1256 995 1271 1010 q 1217 981 1240 981 l 724 981 l 724 597 l 1054 597 q 1093 582 1078 597 q 1108 544 1108 567 q 1092 507 1108 522 q 1054 492 1076 492 l 724 492 l 724 104 l 1217 104 m 321 351 l 615 351 l 615 847 l 321 351 z "},"Ǽ":{"ha":1333,"x_min":25,"x_max":1271,"o":"m 1217 104 q 1256 90 1240 104 q 1271 53 1271 75 q 1256 15 1271 31 q 1217 0 1240 0 l 669 0 q 631 16 647 0 q 615 54 615 32 l 615 258 l 265 258 l 131 33 q 81 0 114 0 q 41 17 57 0 q 25 54 25 33 q 32 78 25 64 l 614 1043 q 644 1075 626 1065 q 689 1085 661 1085 l 1217 1085 q 1256 1069 1240 1085 q 1271 1032 1271 1054 q 1256 995 1271 1010 q 1217 981 1240 981 l 724 981 l 724 597 l 1054 597 q 1093 582 1078 597 q 1108 544 1108 567 q 1092 507 1108 522 q 1054 492 1076 492 l 724 492 l 724 104 l 1217 104 m 321 351 l 615 351 l 615 847 l 321 351 m 819 1200 q 781 1216 796 1200 q 765 1254 765 1232 q 778 1290 765 1276 l 935 1447 q 972 1463 950 1463 q 1011 1447 996 1463 q 1026 1407 1026 1431 q 1011 1371 1026 1385 l 856 1214 q 819 1200 842 1200 z "},"B":{"ha":965,"x_min":139,"x_max":889,"o":"m 200 0 q 156 15 172 0 q 139 54 139 29 l 139 1031 q 154 1069 139 1054 q 193 1085 169 1085 l 531 1085 q 681 1049 614 1085 q 788 951 749 1014 q 828 811 828 889 q 788 679 828 738 q 682 589 749 621 q 833 494 778 563 q 889 321 889 425 q 846 155 889 228 q 727 41 803 82 q 554 0 651 0 l 200 0 m 531 632 q 669 680 615 632 q 722 811 722 728 q 669 936 722 892 q 531 981 617 981 l 247 981 l 247 632 l 531 632 m 554 104 q 719 163 656 104 q 782 321 782 222 q 719 472 782 415 q 554 528 656 528 l 247 528 l 247 104 l 554 104 z "},"C":{"ha":1071,"x_min":86,"x_max":982,"o":"m 626 -14 q 356 61 479 -14 q 159 264 232 136 q 86 543 86 392 q 158 821 86 693 q 354 1024 231 949 q 626 1099 478 1099 q 808 1069 726 1099 q 967 976 890 1040 q 982 944 982 965 q 976 924 982 933 q 961 911 971 915 q 949 896 958 901 q 928 890 939 890 q 893 903 907 890 q 775 974 839 951 q 626 996 711 996 q 410 934 510 996 q 251 768 310 872 q 192 543 192 664 q 250 315 192 419 q 408 150 308 211 q 626 89 508 89 q 900 186 778 89 q 931 197 915 197 q 967 183 951 197 q 982 144 982 168 q 967 106 982 122 q 626 -14 836 -14 z "},"Ć":{"ha":1071,"x_min":86,"x_max":982,"o":"m 626 -14 q 356 61 479 -14 q 159 264 232 136 q 86 543 86 392 q 158 821 86 693 q 354 1024 231 949 q 626 1099 478 1099 q 808 1069 726 1099 q 967 976 890 1040 q 982 944 982 965 q 976 924 982 933 q 961 911 971 915 q 949 896 958 901 q 928 890 939 890 q 893 903 907 890 q 775 974 839 951 q 626 996 711 996 q 410 934 510 996 q 251 768 310 872 q 192 543 192 664 q 250 315 192 419 q 408 150 308 211 q 626 89 508 89 q 900 186 778 89 q 931 197 915 197 q 967 183 951 197 q 982 144 982 168 q 967 106 982 122 q 626 -14 836 -14 m 610 1200 q 571 1216 586 1200 q 556 1254 556 1232 q 568 1290 556 1276 l 725 1447 q 763 1463 740 1463 q 801 1447 786 1463 q 817 1407 817 1431 q 801 1371 817 1385 l 646 1214 q 610 1200 632 1200 z "},"Č":{"ha":1071,"x_min":86,"x_max":982,"o":"m 626 -14 q 356 61 479 -14 q 159 264 232 136 q 86 543 86 392 q 158 821 86 693 q 354 1024 231 949 q 626 1099 478 1099 q 808 1069 726 1099 q 967 976 890 1040 q 982 944 982 965 q 976 924 982 933 q 961 911 971 915 q 949 896 958 901 q 928 890 939 890 q 893 903 907 890 q 775 974 839 951 q 626 996 711 996 q 410 934 510 996 q 251 768 310 872 q 192 543 192 664 q 250 315 192 419 q 408 150 308 211 q 626 89 508 89 q 900 186 778 89 q 931 197 915 197 q 967 183 951 197 q 982 144 982 168 q 967 106 982 122 q 626 -14 836 -14 m 619 1213 q 593 1219 601 1213 l 429 1328 q 403 1374 403 1346 q 415 1403 403 1392 q 446 1414 426 1414 q 490 1399 467 1414 l 619 1311 l 749 1397 q 794 1414 772 1414 q 825 1402 814 1414 q 836 1374 836 1390 q 810 1328 836 1346 l 647 1219 q 619 1213 638 1213 z "},"Ç":{"ha":1071,"x_min":86,"x_max":982,"o":"m 900 186 q 931 197 915 197 q 967 183 951 197 q 982 144 982 168 q 967 106 982 122 q 685 -11 851 3 l 668 -50 q 767 -100 738 -68 q 797 -179 797 -132 q 772 -251 797 -218 q 704 -304 747 -285 q 608 -324 661 -324 q 488 -293 536 -324 q 439 -221 439 -262 q 454 -185 439 -200 q 490 -169 469 -169 q 539 -199 517 -169 q 610 -232 561 -232 q 663 -218 642 -232 q 683 -179 683 -204 q 667 -137 683 -153 q 611 -112 650 -122 q 571 -97 585 -107 q 557 -68 557 -86 q 564 -36 557 -57 l 574 -11 q 327 80 439 3 q 151 279 215 157 q 86 543 86 401 q 158 821 86 693 q 354 1024 231 949 q 626 1099 478 1099 q 808 1069 726 1099 q 967 976 890 1040 q 982 944 982 965 q 976 924 982 933 q 961 911 971 915 q 949 896 958 901 q 928 890 939 890 q 893 903 907 890 q 775 974 839 951 q 626 996 711 996 q 410 934 510 996 q 251 768 310 872 q 192 543 192 664 q 250 315 192 419 q 408 150 308 211 q 626 89 508 89 q 900 186 778 89 z "},"Ĉ":{"ha":1071,"x_min":86,"x_max":982,"o":"m 626 -14 q 356 61 479 -14 q 159 264 232 136 q 86 543 86 392 q 158 821 86 693 q 354 1024 231 949 q 626 1099 478 1099 q 808 1069 726 1099 q 967 976 890 1040 q 982 944 982 965 q 976 924 982 933 q 961 911 971 915 q 949 896 958 901 q 928 890 939 890 q 893 903 907 890 q 775 974 839 951 q 626 996 711 996 q 410 934 510 996 q 251 768 310 872 q 192 543 192 664 q 250 315 192 419 q 408 150 308 211 q 626 89 508 89 q 900 186 778 89 q 931 197 915 197 q 967 183 951 197 q 982 144 982 168 q 967 106 982 122 q 626 -14 836 -14 m 458 1206 q 419 1219 435 1206 q 403 1254 403 1232 q 429 1301 403 1283 l 593 1410 q 619 1417 604 1417 q 647 1410 633 1417 l 810 1301 q 836 1254 836 1283 q 821 1219 836 1233 q 782 1206 806 1206 q 749 1217 767 1206 l 619 1306 l 490 1217 q 458 1206 475 1206 z "},"Ċ":{"ha":1071,"x_min":86,"x_max":982,"o":"m 626 -14 q 356 61 479 -14 q 159 264 232 136 q 86 543 86 392 q 158 821 86 693 q 354 1024 231 949 q 626 1099 478 1099 q 808 1069 726 1099 q 967 976 890 1040 q 982 944 982 965 q 976 924 982 933 q 961 911 971 915 q 949 896 958 901 q 928 890 939 890 q 893 903 907 890 q 775 974 839 951 q 626 996 711 996 q 410 934 510 996 q 251 768 310 872 q 192 543 192 664 q 250 315 192 419 q 408 150 308 211 q 626 89 508 89 q 900 186 778 89 q 931 197 915 197 q 967 183 951 197 q 982 144 982 168 q 967 106 982 122 q 626 -14 836 -14 m 618 1229 q 565 1251 586 1229 q 543 1306 543 1274 q 565 1360 543 1339 q 619 1381 588 1381 q 672 1360 650 1381 q 694 1306 694 1339 q 672 1251 694 1274 q 618 1229 650 1229 z "},"D":{"ha":1069,"x_min":139,"x_max":985,"o":"m 193 0 q 154 15 169 0 q 139 54 139 31 l 139 1031 q 154 1069 139 1054 q 193 1085 169 1085 l 443 1085 q 724 1015 600 1085 q 916 823 847 946 q 985 543 985 700 q 916 263 985 386 q 724 69 847 139 q 443 0 600 0 l 193 0 m 443 97 q 668 155 569 97 q 822 314 767 213 q 878 543 878 415 q 822 772 878 671 q 668 931 767 874 q 443 988 569 988 l 247 988 l 247 97 l 443 97 z "},"Ð":{"ha":1069,"x_min":0,"x_max":985,"o":"m 443 1085 q 724 1015 600 1085 q 916 823 847 946 q 985 543 985 700 q 916 263 985 386 q 724 69 847 139 q 443 0 600 0 l 193 0 q 154 15 169 0 q 139 54 139 31 l 139 496 l 50 496 q 14 508 28 496 q 0 543 0 521 q 14 578 0 565 q 50 590 28 590 l 139 590 l 139 1031 q 154 1069 139 1054 q 193 1085 169 1085 l 443 1085 m 443 97 q 668 155 569 97 q 822 314 767 213 q 878 543 878 415 q 822 772 878 671 q 668 931 767 874 q 443 988 569 988 l 247 988 l 247 590 l 456 590 q 493 578 479 590 q 507 543 507 565 q 493 508 507 521 q 456 496 479 496 l 247 496 l 247 97 l 443 97 z "},"Ď":{"ha":1069,"x_min":139,"x_max":985,"o":"m 193 0 q 154 15 169 0 q 139 54 139 31 l 139 1031 q 154 1069 139 1054 q 193 1085 169 1085 l 443 1085 q 724 1015 600 1085 q 916 823 847 946 q 985 543 985 700 q 916 263 985 386 q 724 69 847 139 q 443 0 600 0 l 193 0 m 443 97 q 668 155 569 97 q 822 314 767 213 q 878 543 878 415 q 822 772 878 671 q 668 931 767 874 q 443 988 569 988 l 247 988 l 247 97 l 443 97 m 536 1213 q 510 1219 518 1213 l 346 1328 q 319 1374 319 1346 q 331 1403 319 1392 q 363 1414 343 1414 q 407 1399 383 1414 l 536 1311 l 665 1397 q 711 1414 689 1414 q 742 1402 731 1414 q 753 1374 753 1390 q 726 1328 753 1346 l 564 1219 q 536 1213 554 1213 z "},"Đ":{"ha":1069,"x_min":0,"x_max":985,"o":"m 443 1085 q 724 1015 600 1085 q 916 823 847 946 q 985 543 985 700 q 916 263 985 386 q 724 69 847 139 q 443 0 600 0 l 193 0 q 154 15 169 0 q 139 54 139 31 l 139 496 l 50 496 q 14 508 28 496 q 0 543 0 521 q 14 578 0 565 q 50 590 28 590 l 139 590 l 139 1031 q 154 1069 139 1054 q 193 1085 169 1085 l 443 1085 m 443 97 q 668 155 569 97 q 822 314 767 213 q 878 543 878 415 q 822 772 878 671 q 668 931 767 874 q 443 988 569 988 l 247 988 l 247 590 l 456 590 q 493 578 479 590 q 507 543 507 565 q 493 508 507 521 q 456 496 479 496 l 247 496 l 247 97 l 443 97 z "},"E":{"ha":961,"x_min":139,"x_max":899,"o":"m 193 0 q 155 16 171 0 q 139 54 139 32 l 139 1031 q 155 1069 139 1054 q 193 1085 171 1085 l 844 1085 q 883 1069 868 1085 q 899 1032 899 1054 q 883 995 899 1010 q 844 981 868 981 l 247 981 l 247 597 l 682 597 q 721 582 706 597 q 736 544 736 567 q 720 507 736 522 q 682 492 704 492 l 247 492 l 247 104 l 844 104 q 883 90 868 104 q 899 53 899 75 q 883 15 899 31 q 844 0 868 0 l 193 0 z "},"É":{"ha":961,"x_min":139,"x_max":899,"o":"m 193 0 q 155 16 171 0 q 139 54 139 32 l 139 1031 q 155 1069 139 1054 q 193 1085 171 1085 l 844 1085 q 883 1069 868 1085 q 899 1032 899 1054 q 883 995 899 1010 q 844 981 868 981 l 247 981 l 247 597 l 682 597 q 721 582 706 597 q 736 544 736 567 q 720 507 736 522 q 682 492 704 492 l 247 492 l 247 104 l 844 104 q 883 90 868 104 q 899 53 899 75 q 883 15 899 31 q 844 0 868 0 l 193 0 m 519 1200 q 481 1216 496 1200 q 465 1254 465 1232 q 478 1290 465 1276 l 635 1447 q 672 1463 650 1463 q 711 1447 696 1463 q 726 1407 726 1431 q 711 1371 726 1385 l 556 1214 q 519 1200 542 1200 z "},"Ĕ":{"ha":961,"x_min":139,"x_max":899,"o":"m 193 0 q 155 16 171 0 q 139 54 139 32 l 139 1031 q 155 1069 139 1054 q 193 1085 171 1085 l 844 1085 q 883 1069 868 1085 q 899 1032 899 1054 q 883 995 899 1010 q 844 981 868 981 l 247 981 l 247 597 l 682 597 q 721 582 706 597 q 736 544 736 567 q 720 507 736 522 q 682 492 704 492 l 247 492 l 247 104 l 844 104 q 883 90 868 104 q 899 53 899 75 q 883 15 899 31 q 844 0 868 0 l 193 0 m 528 1201 q 419 1223 469 1201 q 340 1281 369 1244 q 311 1363 311 1318 q 326 1402 311 1386 q 364 1418 342 1418 q 400 1403 385 1418 q 415 1368 415 1389 q 447 1314 415 1336 q 528 1292 479 1292 q 610 1313 579 1292 q 642 1368 642 1335 q 657 1404 642 1390 q 694 1418 672 1418 q 731 1402 717 1418 q 746 1364 746 1386 q 680 1247 743 1293 q 528 1201 617 1201 z "},"Ě":{"ha":961,"x_min":139,"x_max":899,"o":"m 193 0 q 155 16 171 0 q 139 54 139 32 l 139 1031 q 155 1069 139 1054 q 193 1085 171 1085 l 844 1085 q 883 1069 868 1085 q 899 1032 899 1054 q 883 995 899 1010 q 844 981 868 981 l 247 981 l 247 597 l 682 597 q 721 582 706 597 q 736 544 736 567 q 720 507 736 522 q 682 492 704 492 l 247 492 l 247 104 l 844 104 q 883 90 868 104 q 899 53 899 75 q 883 15 899 31 q 844 0 868 0 l 193 0 m 529 1213 q 503 1219 511 1213 l 339 1328 q 313 1374 313 1346 q 324 1403 313 1392 q 356 1414 336 1414 q 400 1399 376 1414 l 529 1311 l 658 1397 q 704 1414 682 1414 q 735 1402 724 1414 q 746 1374 746 1390 q 719 1328 746 1346 l 557 1219 q 529 1213 547 1213 z "},"Ê":{"ha":961,"x_min":139,"x_max":899,"o":"m 193 0 q 155 16 171 0 q 139 54 139 32 l 139 1031 q 155 1069 139 1054 q 193 1085 171 1085 l 844 1085 q 883 1069 868 1085 q 899 1032 899 1054 q 883 995 899 1010 q 844 981 868 981 l 247 981 l 247 597 l 682 597 q 721 582 706 597 q 736 544 736 567 q 720 507 736 522 q 682 492 704 492 l 247 492 l 247 104 l 844 104 q 883 90 868 104 q 899 53 899 75 q 883 15 899 31 q 844 0 868 0 l 193 0 m 368 1206 q 328 1219 344 1206 q 313 1254 313 1232 q 339 1301 313 1283 l 503 1410 q 529 1417 514 1417 q 557 1410 543 1417 l 719 1301 q 746 1254 746 1283 q 731 1219 746 1233 q 692 1206 715 1206 q 658 1217 676 1206 l 529 1306 l 400 1217 q 368 1206 385 1206 z "},"Ế":{"ha":961,"x_min":139,"x_max":899,"o":"m 193 0 q 155 16 171 0 q 139 54 139 32 l 139 1031 q 155 1069 139 1054 q 193 1085 171 1085 l 844 1085 q 883 1069 868 1085 q 899 1032 899 1054 q 883 995 899 1010 q 844 981 868 981 l 247 981 l 247 597 l 682 597 q 721 582 706 597 q 736 544 736 567 q 720 507 736 522 q 682 492 704 492 l 247 492 l 247 104 l 844 104 q 883 90 868 104 q 899 53 899 75 q 883 15 899 31 q 844 0 868 0 l 193 0 m 368 1206 q 328 1219 344 1206 q 313 1254 313 1232 q 339 1301 313 1283 l 503 1410 q 529 1417 514 1417 q 557 1410 543 1417 l 719 1301 q 746 1254 746 1283 q 731 1219 746 1233 q 692 1206 715 1206 q 658 1217 676 1206 l 529 1306 l 400 1217 q 368 1206 385 1206 m 653 1435 q 614 1451 629 1435 q 599 1489 599 1467 q 611 1525 599 1511 l 768 1682 q 806 1697 783 1697 q 844 1681 829 1697 q 860 1642 860 1665 q 844 1606 860 1619 l 689 1449 q 653 1435 675 1435 z "},"Ệ":{"ha":961,"x_min":139,"x_max":899,"o":"m 193 0 q 155 16 171 0 q 139 54 139 32 l 139 1031 q 155 1069 139 1054 q 193 1085 171 1085 l 844 1085 q 883 1069 868 1085 q 899 1032 899 1054 q 883 995 899 1010 q 844 981 868 981 l 247 981 l 247 597 l 682 597 q 721 582 706 597 q 736 544 736 567 q 720 507 736 522 q 682 492 704 492 l 247 492 l 247 104 l 844 104 q 883 90 868 104 q 899 53 899 75 q 883 15 899 31 q 844 0 868 0 l 193 0 m 368 1206 q 328 1219 344 1206 q 313 1254 313 1232 q 339 1301 313 1283 l 503 1410 q 529 1417 514 1417 q 557 1410 543 1417 l 719 1301 q 746 1254 746 1283 q 731 1219 746 1233 q 692 1206 715 1206 q 658 1217 676 1206 l 529 1306 l 400 1217 q 368 1206 385 1206 m 500 -290 q 447 -268 468 -290 q 425 -214 425 -246 q 447 -160 425 -181 q 501 -139 469 -139 q 554 -160 532 -139 q 576 -214 576 -181 q 554 -268 576 -246 q 500 -290 532 -290 z "},"Ề":{"ha":961,"x_min":139,"x_max":899,"o":"m 193 0 q 155 16 171 0 q 139 54 139 32 l 139 1031 q 155 1069 139 1054 q 193 1085 171 1085 l 844 1085 q 883 1069 868 1085 q 899 1032 899 1054 q 883 995 899 1010 q 844 981 868 981 l 247 981 l 247 597 l 682 597 q 721 582 706 597 q 736 544 736 567 q 720 507 736 522 q 682 492 704 492 l 247 492 l 247 104 l 844 104 q 883 90 868 104 q 899 53 899 75 q 883 15 899 31 q 844 0 868 0 l 193 0 m 368 1206 q 328 1219 344 1206 q 313 1254 313 1232 q 339 1301 313 1283 l 503 1410 q 529 1417 514 1417 q 557 1410 543 1417 l 719 1301 q 746 1254 746 1283 q 731 1219 746 1233 q 692 1206 715 1206 q 658 1217 676 1206 l 529 1306 l 400 1217 q 368 1206 385 1206 m 661 1443 q 625 1458 640 1443 l 468 1614 q 454 1651 454 1628 q 469 1691 454 1675 q 507 1707 485 1707 q 546 1690 529 1707 l 701 1533 q 715 1499 715 1521 q 700 1459 715 1475 q 661 1443 685 1443 z "},"Ể":{"ha":961,"x_min":139,"x_max":899,"o":"m 193 0 q 155 16 171 0 q 139 54 139 32 l 139 1031 q 155 1069 139 1054 q 193 1085 171 1085 l 844 1085 q 883 1069 868 1085 q 899 1032 899 1054 q 883 995 899 1010 q 844 981 868 981 l 247 981 l 247 597 l 682 597 q 721 582 706 597 q 736 544 736 567 q 720 507 736 522 q 682 492 704 492 l 247 492 l 247 104 l 844 104 q 883 90 868 104 q 899 53 899 75 q 883 15 899 31 q 844 0 868 0 l 193 0 m 372 1206 q 333 1219 349 1206 q 317 1254 317 1232 q 343 1301 317 1283 l 507 1410 q 533 1417 518 1417 q 561 1410 547 1417 l 724 1301 q 750 1254 750 1283 q 735 1219 750 1233 q 696 1206 719 1206 q 663 1217 681 1206 l 533 1306 l 404 1217 q 372 1206 389 1206 m 665 1390 q 630 1405 644 1390 q 615 1440 615 1419 l 615 1479 q 660 1533 615 1524 l 694 1540 q 751 1601 751 1554 q 732 1649 751 1632 q 682 1665 713 1665 q 621 1643 650 1665 q 586 1631 608 1631 q 555 1643 568 1631 q 542 1675 542 1656 q 558 1713 542 1699 q 681 1756 613 1756 q 797 1715 751 1756 q 843 1608 843 1674 q 804 1513 843 1547 q 703 1469 765 1479 l 714 1451 q 700 1407 714 1424 q 665 1390 686 1390 z "},"Ễ":{"ha":961,"x_min":139,"x_max":899,"o":"m 193 0 q 155 16 171 0 q 139 54 139 32 l 139 1031 q 155 1069 139 1054 q 193 1085 171 1085 l 844 1085 q 883 1069 868 1085 q 899 1032 899 1054 q 883 995 899 1010 q 844 981 868 981 l 247 981 l 247 597 l 682 597 q 721 582 706 597 q 736 544 736 567 q 720 507 736 522 q 682 492 704 492 l 247 492 l 247 104 l 844 104 q 883 90 868 104 q 899 53 899 75 q 883 15 899 31 q 844 0 868 0 l 193 0 m 371 1206 q 331 1219 347 1206 q 315 1254 315 1232 q 342 1301 315 1283 l 506 1410 q 532 1417 517 1417 q 560 1410 546 1417 l 722 1301 q 749 1254 749 1283 q 733 1219 749 1233 q 694 1206 718 1206 q 661 1217 679 1206 l 532 1306 l 403 1217 q 371 1206 388 1206 m 614 1454 q 506 1506 557 1454 q 470 1535 483 1526 q 443 1543 457 1543 q 416 1531 428 1543 q 390 1492 404 1518 q 346 1463 372 1463 q 313 1475 325 1463 q 300 1506 300 1488 q 306 1529 300 1518 q 364 1608 332 1583 q 438 1632 396 1632 q 495 1619 474 1632 q 547 1579 517 1606 q 581 1553 569 1560 q 604 1546 593 1546 q 622 1553 614 1546 q 639 1579 631 1561 q 660 1603 646 1594 q 688 1613 674 1613 q 701 1610 693 1613 q 735 1568 735 1596 q 729 1546 735 1556 q 678 1476 706 1497 q 614 1454 650 1454 z "},"Ȅ":{"ha":961,"x_min":139,"x_max":899,"o":"m 193 0 q 155 16 171 0 q 139 54 139 32 l 139 1031 q 155 1069 139 1054 q 193 1085 171 1085 l 844 1085 q 883 1069 868 1085 q 899 1032 899 1054 q 883 995 899 1010 q 844 981 868 981 l 247 981 l 247 597 l 682 597 q 721 582 706 597 q 736 544 736 567 q 720 507 736 522 q 682 492 704 492 l 247 492 l 247 104 l 844 104 q 883 90 868 104 q 899 53 899 75 q 883 15 899 31 q 844 0 868 0 l 193 0 m 468 1192 q 429 1218 442 1192 l 344 1397 q 340 1417 340 1408 q 356 1455 340 1439 q 394 1471 371 1471 q 425 1461 411 1471 q 443 1438 439 1451 l 504 1249 q 507 1232 507 1238 q 495 1203 507 1214 q 468 1192 483 1192 m 678 1192 q 639 1218 651 1192 l 554 1397 q 550 1417 550 1408 q 566 1455 550 1439 q 606 1471 582 1471 q 636 1461 622 1471 q 656 1438 650 1451 l 714 1249 q 717 1232 717 1243 q 705 1203 717 1214 q 678 1192 693 1192 z "},"Ë":{"ha":961,"x_min":139,"x_max":899,"o":"m 193 0 q 155 16 171 0 q 139 54 139 32 l 139 1031 q 155 1069 139 1054 q 193 1085 171 1085 l 844 1085 q 883 1069 868 1085 q 899 1032 899 1054 q 883 995 899 1010 q 844 981 868 981 l 247 981 l 247 597 l 682 597 q 721 582 706 597 q 736 544 736 567 q 720 507 736 522 q 682 492 704 492 l 247 492 l 247 104 l 844 104 q 883 90 868 104 q 899 53 899 75 q 883 15 899 31 q 844 0 868 0 l 193 0 m 385 1224 q 331 1246 353 1224 q 308 1300 308 1268 q 331 1354 308 1332 q 385 1376 353 1376 q 439 1354 417 1376 q 461 1300 461 1332 q 439 1246 461 1268 q 385 1224 417 1224 m 675 1224 q 621 1246 643 1224 q 599 1300 599 1268 q 621 1354 599 1332 q 675 1376 643 1376 q 729 1354 707 1376 q 751 1300 751 1332 q 729 1246 751 1268 q 675 1224 707 1224 z "},"Ė":{"ha":961,"x_min":139,"x_max":899,"o":"m 193 0 q 155 16 171 0 q 139 54 139 32 l 139 1031 q 155 1069 139 1054 q 193 1085 171 1085 l 844 1085 q 883 1069 868 1085 q 899 1032 899 1054 q 883 995 899 1010 q 844 981 868 981 l 247 981 l 247 597 l 682 597 q 721 582 706 597 q 736 544 736 567 q 720 507 736 522 q 682 492 704 492 l 247 492 l 247 104 l 844 104 q 883 90 868 104 q 899 53 899 75 q 883 15 899 31 q 844 0 868 0 l 193 0 m 528 1229 q 474 1251 496 1229 q 453 1306 453 1274 q 475 1360 453 1339 q 529 1381 497 1381 q 582 1360 560 1381 q 604 1306 604 1339 q 582 1251 604 1274 q 528 1229 560 1229 z "},"Ẹ":{"ha":961,"x_min":139,"x_max":899,"o":"m 193 0 q 155 16 171 0 q 139 54 139 32 l 139 1031 q 155 1069 139 1054 q 193 1085 171 1085 l 844 1085 q 883 1069 868 1085 q 899 1032 899 1054 q 883 995 899 1010 q 844 981 868 981 l 247 981 l 247 597 l 682 597 q 721 582 706 597 q 736 544 736 567 q 720 507 736 522 q 682 492 704 492 l 247 492 l 247 104 l 844 104 q 883 90 868 104 q 899 53 899 75 q 883 15 899 31 q 844 0 868 0 l 193 0 m 500 -290 q 447 -268 468 -290 q 425 -214 425 -246 q 447 -160 425 -181 q 501 -139 469 -139 q 554 -160 532 -139 q 576 -214 576 -181 q 554 -268 576 -246 q 500 -290 532 -290 z "},"È":{"ha":961,"x_min":139,"x_max":899,"o":"m 193 0 q 155 16 171 0 q 139 54 139 32 l 139 1031 q 155 1069 139 1054 q 193 1085 171 1085 l 844 1085 q 883 1069 868 1085 q 899 1032 899 1054 q 883 995 899 1010 q 844 981 868 981 l 247 981 l 247 597 l 682 597 q 721 582 706 597 q 736 544 736 567 q 720 507 736 522 q 682 492 704 492 l 247 492 l 247 104 l 844 104 q 883 90 868 104 q 899 53 899 75 q 883 15 899 31 q 844 0 868 0 l 193 0 m 528 1208 q 492 1224 507 1208 l 335 1379 q 321 1417 321 1393 q 336 1456 321 1440 q 374 1472 351 1472 q 413 1456 396 1472 l 568 1299 q 582 1264 582 1286 q 567 1224 582 1240 q 528 1208 551 1208 z "},"Ẻ":{"ha":961,"x_min":139,"x_max":899,"o":"m 193 0 q 155 16 171 0 q 139 54 139 32 l 139 1031 q 155 1069 139 1054 q 193 1085 171 1085 l 844 1085 q 883 1069 868 1085 q 899 1032 899 1054 q 883 995 899 1010 q 844 981 868 981 l 247 981 l 247 597 l 682 597 q 721 582 706 597 q 736 544 736 567 q 720 507 736 522 q 682 492 704 492 l 247 492 l 247 104 l 844 104 q 883 90 868 104 q 899 53 899 75 q 883 15 899 31 q 844 0 868 0 l 193 0 m 528 1156 q 492 1170 507 1156 q 478 1206 478 1185 l 478 1244 q 522 1299 478 1289 l 557 1306 q 614 1367 614 1319 q 594 1414 614 1397 q 544 1431 575 1431 q 483 1408 513 1431 q 449 1396 471 1396 q 417 1408 431 1396 q 404 1440 404 1421 q 421 1478 404 1464 q 543 1521 475 1521 q 660 1480 614 1521 q 706 1374 706 1439 q 667 1278 706 1313 q 565 1235 628 1244 l 576 1217 q 563 1172 576 1189 q 528 1156 549 1156 z "},"Ȇ":{"ha":961,"x_min":139,"x_max":899,"o":"m 193 0 q 155 16 171 0 q 139 54 139 32 l 139 1031 q 155 1069 139 1054 q 193 1085 171 1085 l 844 1085 q 883 1069 868 1085 q 899 1032 899 1054 q 883 995 899 1010 q 844 981 868 981 l 247 981 l 247 597 l 682 597 q 721 582 706 597 q 736 544 736 567 q 720 507 736 522 q 682 492 704 492 l 247 492 l 247 104 l 844 104 q 883 90 868 104 q 899 53 899 75 q 883 15 899 31 q 844 0 868 0 l 193 0 m 528 1417 q 680 1371 617 1417 q 746 1254 743 1325 q 731 1216 746 1232 q 694 1200 717 1200 q 657 1214 672 1200 q 642 1250 642 1228 q 610 1305 642 1283 q 528 1326 579 1326 q 447 1304 479 1326 q 415 1250 415 1282 q 400 1215 415 1229 q 364 1200 385 1200 q 326 1216 342 1200 q 311 1256 311 1232 q 340 1337 311 1300 q 419 1395 369 1374 q 528 1417 469 1417 z "},"Ē":{"ha":961,"x_min":139,"x_max":899,"o":"m 193 0 q 155 16 171 0 q 139 54 139 32 l 139 1031 q 155 1069 139 1054 q 193 1085 171 1085 l 844 1085 q 883 1069 868 1085 q 899 1032 899 1054 q 883 995 899 1010 q 844 981 868 981 l 247 981 l 247 597 l 682 597 q 721 582 706 597 q 736 544 736 567 q 720 507 736 522 q 682 492 704 492 l 247 492 l 247 104 l 844 104 q 883 90 868 104 q 899 53 899 75 q 883 15 899 31 q 844 0 868 0 l 193 0 m 349 1236 q 310 1250 325 1236 q 294 1286 294 1264 q 310 1322 294 1308 q 349 1336 325 1336 l 708 1336 q 747 1322 731 1336 q 763 1286 763 1308 q 747 1250 763 1264 q 708 1236 731 1236 l 349 1236 z "},"Ę":{"ha":961,"x_min":139,"x_max":1032,"o":"m 978 -201 q 1017 -217 1001 -201 q 1032 -256 1032 -233 q 1014 -299 1032 -281 l 958 -335 q 869 -364 917 -364 q 755 -316 803 -364 q 707 -201 707 -268 q 775 -68 707 -125 q 822 -14 811 -42 q 833 0 825 -8 l 193 0 q 155 16 171 0 q 139 54 139 32 l 139 1031 q 155 1069 139 1054 q 193 1085 171 1085 l 844 1085 q 883 1069 868 1085 q 899 1032 899 1054 q 883 995 899 1010 q 844 981 868 981 l 247 981 l 247 597 l 682 597 q 721 582 706 597 q 736 544 736 567 q 720 507 736 522 q 682 492 704 492 l 247 492 l 247 104 l 844 104 q 883 90 868 104 q 899 53 899 75 q 881 13 899 28 q 910 -5 899 10 q 924 -39 922 -19 q 838 -157 924 -94 q 815 -201 815 -174 q 831 -240 815 -225 q 869 -256 847 -256 q 899 -247 886 -256 l 946 -212 q 978 -201 961 -201 z "},"Ẽ":{"ha":961,"x_min":139,"x_max":899,"o":"m 193 0 q 155 16 171 0 q 139 54 139 32 l 139 1031 q 155 1069 139 1054 q 193 1085 171 1085 l 844 1085 q 883 1069 868 1085 q 899 1032 899 1054 q 883 995 899 1010 q 844 981 868 981 l 247 981 l 247 597 l 682 597 q 721 582 706 597 q 736 544 736 567 q 720 507 736 522 q 682 492 704 492 l 247 492 l 247 104 l 844 104 q 883 90 868 104 q 899 53 899 75 q 883 15 899 31 q 844 0 868 0 l 193 0 m 675 1196 q 606 1208 636 1196 q 540 1242 575 1221 q 493 1267 511 1260 q 457 1274 475 1274 q 365 1225 406 1274 q 344 1206 357 1213 q 319 1199 332 1199 q 296 1206 307 1199 q 280 1222 286 1211 q 274 1243 274 1232 q 283 1274 274 1260 q 364 1342 318 1318 q 460 1367 410 1367 q 525 1356 497 1367 q 589 1322 553 1344 q 637 1296 621 1303 q 674 1289 653 1289 q 742 1317 717 1289 q 785 1340 763 1340 q 807 1333 796 1340 q 832 1294 832 1321 q 821 1264 832 1279 q 675 1196 765 1196 z "},"F":{"ha":868,"x_min":53,"x_max":813,"o":"m 107 0 q 69 16 85 0 q 53 54 53 32 l 53 1031 q 69 1069 53 1054 q 107 1085 85 1085 l 758 1085 q 797 1069 782 1085 q 813 1032 813 1054 q 797 995 813 1010 q 758 981 782 981 l 161 981 l 161 597 l 596 597 q 635 583 619 597 q 650 544 650 568 q 635 507 650 522 q 596 492 619 492 l 161 492 l 161 54 q 146 16 161 32 q 107 0 131 0 z "},"G":{"ha":1071,"x_min":86,"x_max":982,"o":"m 928 542 q 967 527 951 542 q 982 489 982 513 l 982 144 q 967 106 982 121 q 626 -14 838 -14 q 356 61 479 -14 q 159 264 232 136 q 86 543 86 392 q 158 821 86 693 q 354 1024 231 949 q 626 1099 478 1099 q 808 1069 726 1099 q 967 976 890 1040 q 982 944 982 965 q 976 924 982 933 q 961 911 971 915 q 949 895 958 901 q 928 889 939 889 q 893 903 908 889 q 775 974 839 951 q 626 996 711 996 q 410 934 510 996 q 251 768 310 872 q 192 543 192 664 q 250 315 192 419 q 408 150 308 211 q 626 89 508 89 q 876 168 761 89 l 876 446 l 660 446 q 621 460 636 446 q 606 494 606 474 q 621 528 606 515 q 660 542 636 542 l 928 542 z "},"Ğ":{"ha":1071,"x_min":86,"x_max":982,"o":"m 928 542 q 967 527 951 542 q 982 489 982 513 l 982 144 q 967 106 982 121 q 626 -14 838 -14 q 356 61 479 -14 q 159 264 232 136 q 86 543 86 392 q 158 821 86 693 q 354 1024 231 949 q 626 1099 478 1099 q 808 1069 726 1099 q 967 976 890 1040 q 982 944 982 965 q 976 924 982 933 q 961 911 971 915 q 949 895 958 901 q 928 889 939 889 q 893 903 908 889 q 775 974 839 951 q 626 996 711 996 q 410 934 510 996 q 251 768 310 872 q 192 543 192 664 q 250 315 192 419 q 408 150 308 211 q 626 89 508 89 q 876 168 761 89 l 876 446 l 660 446 q 621 460 636 446 q 606 494 606 474 q 621 528 606 515 q 660 542 636 542 l 928 542 m 610 1201 q 501 1223 551 1201 q 422 1281 451 1244 q 393 1363 393 1318 q 408 1402 393 1386 q 446 1418 424 1418 q 482 1403 467 1418 q 497 1368 497 1389 q 529 1314 497 1336 q 610 1292 561 1292 q 692 1313 661 1292 q 724 1368 724 1335 q 739 1404 724 1390 q 776 1418 754 1418 q 813 1402 799 1418 q 828 1364 828 1386 q 762 1247 825 1293 q 610 1201 699 1201 z "},"Ǧ":{"ha":1071,"x_min":86,"x_max":982,"o":"m 928 542 q 967 527 951 542 q 982 489 982 513 l 982 144 q 967 106 982 121 q 626 -14 838 -14 q 356 61 479 -14 q 159 264 232 136 q 86 543 86 392 q 158 821 86 693 q 354 1024 231 949 q 626 1099 478 1099 q 808 1069 726 1099 q 967 976 890 1040 q 982 944 982 965 q 976 924 982 933 q 961 911 971 915 q 949 895 958 901 q 928 889 939 889 q 893 903 908 889 q 775 974 839 951 q 626 996 711 996 q 410 934 510 996 q 251 768 310 872 q 192 543 192 664 q 250 315 192 419 q 408 150 308 211 q 626 89 508 89 q 876 168 761 89 l 876 446 l 660 446 q 621 460 636 446 q 606 494 606 474 q 621 528 606 515 q 660 542 636 542 l 928 542 m 611 1213 q 585 1219 593 1213 l 421 1328 q 394 1374 394 1346 q 406 1403 394 1392 q 438 1414 418 1414 q 482 1399 458 1414 l 611 1311 l 740 1397 q 786 1414 764 1414 q 817 1402 806 1414 q 828 1374 828 1390 q 801 1328 828 1346 l 639 1219 q 611 1213 629 1213 z "},"Ĝ":{"ha":1071,"x_min":86,"x_max":982,"o":"m 928 542 q 967 527 951 542 q 982 489 982 513 l 982 144 q 967 106 982 121 q 626 -14 838 -14 q 356 61 479 -14 q 159 264 232 136 q 86 543 86 392 q 158 821 86 693 q 354 1024 231 949 q 626 1099 478 1099 q 808 1069 726 1099 q 967 976 890 1040 q 982 944 982 965 q 976 924 982 933 q 961 911 971 915 q 949 895 958 901 q 928 889 939 889 q 893 903 908 889 q 775 974 839 951 q 626 996 711 996 q 410 934 510 996 q 251 768 310 872 q 192 543 192 664 q 250 315 192 419 q 408 150 308 211 q 626 89 508 89 q 876 168 761 89 l 876 446 l 660 446 q 621 460 636 446 q 606 494 606 474 q 621 528 606 515 q 660 542 636 542 l 928 542 m 450 1206 q 410 1219 426 1206 q 394 1254 394 1232 q 421 1301 394 1283 l 585 1410 q 611 1417 596 1417 q 639 1410 625 1417 l 801 1301 q 828 1254 828 1283 q 813 1219 828 1233 q 774 1206 797 1206 q 740 1217 758 1206 l 611 1306 l 482 1217 q 450 1206 467 1206 z "},"Ģ":{"ha":1071,"x_min":86,"x_max":982,"o":"m 928 542 q 967 527 951 542 q 982 489 982 513 l 982 144 q 967 106 982 121 q 626 -14 838 -14 q 356 61 479 -14 q 159 264 232 136 q 86 543 86 392 q 158 821 86 693 q 354 1024 231 949 q 626 1099 478 1099 q 808 1069 726 1099 q 967 976 890 1040 q 982 944 982 965 q 976 924 982 933 q 961 911 971 915 q 949 895 958 901 q 928 889 939 889 q 893 903 908 889 q 775 974 839 951 q 626 996 711 996 q 410 934 510 996 q 251 768 310 872 q 192 543 192 664 q 250 315 192 419 q 408 150 308 211 q 626 89 508 89 q 876 168 761 89 l 876 446 l 660 446 q 621 460 636 446 q 606 494 606 474 q 621 528 606 515 q 660 542 636 542 l 928 542 m 608 -331 q 494 -303 547 -331 q 440 -232 440 -275 q 451 -203 440 -214 q 481 -193 463 -193 q 507 -199 496 -193 q 533 -217 518 -204 q 568 -241 550 -232 q 615 -250 586 -250 q 696 -190 696 -250 q 672 -149 696 -164 q 600 -133 649 -133 q 554 -124 571 -133 q 538 -96 538 -114 q 554 -65 538 -76 q 603 -54 571 -54 q 728 -92 679 -54 q 778 -190 778 -131 q 729 -292 778 -254 q 608 -331 681 -331 z "},"Ġ":{"ha":1071,"x_min":86,"x_max":982,"o":"m 928 542 q 967 527 951 542 q 982 489 982 513 l 982 144 q 967 106 982 121 q 626 -14 838 -14 q 356 61 479 -14 q 159 264 232 136 q 86 543 86 392 q 158 821 86 693 q 354 1024 231 949 q 626 1099 478 1099 q 808 1069 726 1099 q 967 976 890 1040 q 982 944 982 965 q 976 924 982 933 q 961 911 971 915 q 949 895 958 901 q 928 889 939 889 q 893 903 908 889 q 775 974 839 951 q 626 996 711 996 q 410 934 510 996 q 251 768 310 872 q 192 543 192 664 q 250 315 192 419 q 408 150 308 211 q 626 89 508 89 q 876 168 761 89 l 876 446 l 660 446 q 621 460 636 446 q 606 494 606 474 q 621 528 606 515 q 660 542 636 542 l 928 542 m 610 1229 q 556 1251 578 1229 q 535 1306 535 1274 q 557 1360 535 1339 q 611 1381 579 1381 q 664 1360 642 1381 q 686 1306 686 1339 q 664 1251 686 1274 q 610 1229 642 1229 z "},"H":{"ha":1172,"x_min":139,"x_max":1033,"o":"m 193 0 q 155 16 171 0 q 139 54 139 32 l 139 1031 q 155 1069 139 1054 q 193 1085 171 1085 q 232 1069 217 1085 q 247 1031 247 1054 l 247 597 l 925 597 l 925 1031 q 941 1069 925 1054 q 979 1085 957 1085 q 1018 1069 1003 1085 q 1033 1031 1033 1054 l 1033 54 q 1018 16 1033 32 q 979 0 1003 0 q 941 16 957 0 q 925 54 925 32 l 925 500 l 247 500 l 247 54 q 232 16 247 32 q 193 0 217 0 z "},"Ħ":{"ha":1172,"x_min":31,"x_max":1150,"o":"m 1097 901 q 1135 891 1121 901 q 1150 860 1150 881 q 1135 828 1150 839 q 1097 818 1121 818 l 1033 818 l 1033 54 q 1018 16 1033 32 q 979 0 1003 0 q 941 16 957 0 q 925 54 925 32 l 925 500 l 247 500 l 247 54 q 232 16 247 32 q 193 0 217 0 q 155 16 171 0 q 139 54 139 32 l 139 818 l 82 818 q 31 860 31 818 q 82 901 31 901 l 139 901 l 139 1031 q 155 1069 139 1054 q 193 1085 171 1085 q 232 1069 217 1085 q 247 1031 247 1054 l 247 901 l 925 901 l 925 1031 q 941 1069 925 1054 q 979 1085 957 1085 q 1018 1069 1003 1085 q 1033 1031 1033 1054 l 1033 901 l 1097 901 m 925 597 l 925 818 l 247 818 l 247 597 l 925 597 z "},"Ĥ":{"ha":1172,"x_min":139,"x_max":1033,"o":"m 193 0 q 155 16 171 0 q 139 54 139 32 l 139 1031 q 155 1069 139 1054 q 193 1085 171 1085 q 232 1069 217 1085 q 247 1031 247 1054 l 247 597 l 925 597 l 925 1031 q 941 1069 925 1054 q 979 1085 957 1085 q 1018 1069 1003 1085 q 1033 1031 1033 1054 l 1033 54 q 1018 16 1033 32 q 979 0 1003 0 q 941 16 957 0 q 925 54 925 32 l 925 500 l 247 500 l 247 54 q 232 16 247 32 q 193 0 217 0 m 425 1206 q 385 1219 401 1206 q 369 1254 369 1232 q 396 1301 369 1283 l 560 1410 q 586 1417 571 1417 q 614 1410 600 1417 l 776 1301 q 803 1254 803 1283 q 788 1219 803 1233 q 749 1206 772 1206 q 715 1217 733 1206 l 586 1306 l 457 1217 q 425 1206 442 1206 z "},"I":{"ha":386,"x_min":139,"x_max":247,"o":"m 193 0 q 155 16 171 0 q 139 54 139 32 l 139 1031 q 155 1069 139 1054 q 193 1085 171 1085 q 232 1069 217 1085 q 247 1031 247 1054 l 247 54 q 232 16 247 32 q 193 0 217 0 z "},"Ĳ":{"ha":888,"x_min":139,"x_max":749,"o":"m 193 403 q 155 419 171 403 q 139 457 139 435 l 139 1031 q 155 1069 139 1054 q 193 1085 171 1085 q 232 1069 217 1085 q 247 1031 247 1054 l 247 457 q 232 419 247 435 q 193 403 217 403 m 440 -14 q 285 17 354 -14 q 178 107 217 49 q 139 244 139 165 q 154 283 139 268 q 193 299 169 299 q 232 283 217 299 q 247 244 247 268 q 301 128 247 168 q 440 89 354 89 q 542 119 496 89 q 614 199 588 149 q 640 311 640 250 l 640 1031 q 656 1069 640 1054 q 694 1085 672 1085 q 733 1069 718 1085 q 749 1031 749 1054 l 749 311 q 708 147 749 221 q 597 29 667 72 q 440 -14 526 -14 z "},"Í":{"ha":386,"x_min":129,"x_max":390,"o":"m 193 0 q 155 16 171 0 q 139 54 139 32 l 139 1031 q 155 1069 139 1054 q 193 1085 171 1085 q 232 1069 217 1085 q 247 1031 247 1054 l 247 54 q 232 16 247 32 q 193 0 217 0 m 183 1200 q 144 1216 160 1200 q 129 1254 129 1232 q 142 1290 129 1276 l 299 1447 q 336 1463 314 1463 q 375 1447 360 1463 q 390 1407 390 1431 q 375 1371 390 1385 l 219 1214 q 183 1200 206 1200 z "},"Ĭ":{"ha":386,"x_min":-25,"x_max":410,"o":"m 193 0 q 155 16 171 0 q 139 54 139 32 l 139 1031 q 155 1069 139 1054 q 193 1085 171 1085 q 232 1069 217 1085 q 247 1031 247 1054 l 247 54 q 232 16 247 32 q 193 0 217 0 m 192 1201 q 83 1223 133 1201 q 4 1281 33 1244 q -25 1363 -25 1318 q -10 1402 -25 1386 q 28 1418 6 1418 q 64 1403 49 1418 q 79 1368 79 1389 q 111 1314 79 1336 q 192 1292 143 1292 q 274 1313 243 1292 q 306 1368 306 1335 q 321 1404 306 1390 q 358 1418 336 1418 q 395 1402 381 1418 q 410 1364 410 1386 q 344 1247 407 1293 q 192 1201 281 1201 z "},"Î":{"ha":386,"x_min":-24,"x_max":410,"o":"m 193 0 q 155 16 171 0 q 139 54 139 32 l 139 1031 q 155 1069 139 1054 q 193 1085 171 1085 q 232 1069 217 1085 q 247 1031 247 1054 l 247 54 q 232 16 247 32 q 193 0 217 0 m 32 1206 q -8 1219 8 1206 q -24 1254 -24 1232 q 3 1301 -24 1283 l 167 1410 q 193 1417 178 1417 q 221 1410 207 1417 l 383 1301 q 410 1254 410 1283 q 394 1219 410 1233 q 356 1206 379 1206 q 322 1217 340 1206 l 193 1306 l 64 1217 q 32 1206 49 1206 z "},"Ȉ":{"ha":386,"x_min":4,"x_max":381,"o":"m 193 0 q 155 16 171 0 q 139 54 139 32 l 139 1031 q 155 1069 139 1054 q 193 1085 171 1085 q 232 1069 217 1085 q 247 1031 247 1054 l 247 54 q 232 16 247 32 q 193 0 217 0 m 132 1192 q 93 1218 106 1192 l 8 1397 q 4 1417 4 1408 q 19 1455 4 1439 q 58 1471 35 1471 q 89 1461 75 1471 q 107 1438 103 1451 l 168 1249 q 171 1232 171 1238 q 159 1203 171 1214 q 132 1192 147 1192 m 342 1192 q 303 1218 315 1192 l 218 1397 q 214 1417 214 1408 q 230 1455 214 1439 q 269 1471 246 1471 q 300 1461 286 1471 q 319 1438 314 1451 l 378 1249 q 381 1232 381 1243 q 369 1203 381 1214 q 342 1192 357 1192 z "},"Ï":{"ha":386,"x_min":-28,"x_max":415,"o":"m 193 0 q 155 16 171 0 q 139 54 139 32 l 139 1031 q 155 1069 139 1054 q 193 1085 171 1085 q 232 1069 217 1085 q 247 1031 247 1054 l 247 54 q 232 16 247 32 q 193 0 217 0 m 49 1224 q -6 1246 17 1224 q -28 1300 -28 1268 q -6 1354 -28 1332 q 49 1376 17 1376 q 103 1354 81 1376 q 125 1300 125 1332 q 103 1246 125 1268 q 49 1224 81 1224 m 339 1224 q 285 1246 307 1224 q 263 1300 263 1268 q 285 1354 263 1332 q 339 1376 307 1376 q 393 1354 371 1376 q 415 1300 415 1332 q 393 1246 415 1268 q 339 1224 371 1224 z "},"İ":{"ha":386,"x_min":117,"x_max":268,"o":"m 193 0 q 155 16 171 0 q 139 54 139 32 l 139 1031 q 155 1069 139 1054 q 193 1085 171 1085 q 232 1069 217 1085 q 247 1031 247 1054 l 247 54 q 232 16 247 32 q 193 0 217 0 m 192 1229 q 138 1251 160 1229 q 117 1306 117 1274 q 139 1360 117 1339 q 193 1381 161 1381 q 246 1360 224 1381 q 268 1306 268 1339 q 246 1251 268 1274 q 192 1229 224 1229 z "},"Ị":{"ha":386,"x_min":117,"x_max":268,"o":"m 193 0 q 155 16 171 0 q 139 54 139 32 l 139 1031 q 155 1069 139 1054 q 193 1085 171 1085 q 232 1069 217 1085 q 247 1031 247 1054 l 247 54 q 232 16 247 32 q 193 0 217 0 m 192 -290 q 138 -268 160 -290 q 117 -214 117 -246 q 139 -160 117 -181 q 193 -139 161 -139 q 246 -160 224 -139 q 268 -214 268 -181 q 246 -268 268 -246 q 192 -290 224 -290 z "},"Ì":{"ha":386,"x_min":-15,"x_max":247,"o":"m 193 0 q 155 16 171 0 q 139 54 139 32 l 139 1031 q 155 1069 139 1054 q 193 1085 171 1085 q 232 1069 217 1085 q 247 1031 247 1054 l 247 54 q 232 16 247 32 q 193 0 217 0 m 192 1208 q 156 1224 171 1208 l -1 1379 q -15 1417 -15 1393 q 0 1456 -15 1440 q 38 1472 15 1472 q 76 1456 60 1472 l 232 1299 q 246 1264 246 1286 q 231 1224 246 1240 q 192 1208 215 1208 z "},"Ỉ":{"ha":386,"x_min":68,"x_max":369,"o":"m 193 0 q 155 16 171 0 q 139 54 139 32 l 139 1031 q 155 1069 139 1054 q 193 1085 171 1085 q 232 1069 217 1085 q 247 1031 247 1054 l 247 54 q 232 16 247 32 q 193 0 217 0 m 192 1156 q 156 1170 171 1156 q 142 1206 142 1185 l 142 1244 q 186 1299 142 1289 l 221 1306 q 278 1367 278 1319 q 258 1414 278 1397 q 208 1431 239 1431 q 147 1408 176 1431 q 113 1396 135 1396 q 81 1408 94 1396 q 68 1440 68 1421 q 85 1478 68 1464 q 207 1521 139 1521 q 324 1480 278 1521 q 369 1374 369 1439 q 331 1278 369 1313 q 229 1235 292 1244 l 240 1217 q 226 1172 240 1189 q 192 1156 213 1156 z "},"Ȋ":{"ha":386,"x_min":-25,"x_max":410,"o":"m 193 0 q 155 16 171 0 q 139 54 139 32 l 139 1031 q 155 1069 139 1054 q 193 1085 171 1085 q 232 1069 217 1085 q 247 1031 247 1054 l 247 54 q 232 16 247 32 q 193 0 217 0 m 192 1417 q 344 1371 281 1417 q 410 1254 407 1325 q 395 1216 410 1232 q 358 1200 381 1200 q 321 1214 336 1200 q 306 1250 306 1228 q 274 1305 306 1283 q 192 1326 243 1326 q 111 1304 143 1326 q 79 1250 79 1282 q 64 1215 79 1229 q 28 1200 49 1200 q -10 1216 6 1200 q -25 1256 -25 1232 q 4 1337 -25 1300 q 83 1395 33 1374 q 192 1417 133 1417 z "},"Ī":{"ha":386,"x_min":-42,"x_max":426,"o":"m 193 0 q 155 16 171 0 q 139 54 139 32 l 139 1031 q 155 1069 139 1054 q 193 1085 171 1085 q 232 1069 217 1085 q 247 1031 247 1054 l 247 54 q 232 16 247 32 q 193 0 217 0 m 13 1236 q -26 1250 -11 1236 q -42 1286 -42 1264 q -26 1322 -42 1308 q 13 1336 -11 1336 l 372 1336 q 410 1322 394 1336 q 426 1286 426 1308 q 410 1250 426 1264 q 372 1236 394 1236 l 13 1236 z "},"Į":{"ha":386,"x_min":31,"x_max":356,"o":"m 301 -201 q 340 -217 325 -201 q 356 -256 356 -233 q 338 -299 356 -281 l 282 -335 q 193 -364 240 -364 q 78 -316 126 -364 q 31 -201 31 -268 q 99 -68 31 -125 q 146 -14 135 -42 q 165 7 156 0 q 139 54 139 24 l 139 1031 q 155 1069 139 1054 q 193 1085 171 1085 q 232 1069 217 1085 q 247 1031 247 1054 l 247 54 q 221 7 247 24 q 247 -39 244 -7 q 161 -157 247 -94 q 139 -201 139 -174 q 155 -240 139 -225 q 193 -256 171 -256 q 222 -247 210 -256 l 269 -212 q 301 -201 285 -201 z "},"Ĩ":{"ha":386,"x_min":-32,"x_max":403,"o":"m 193 0 q 155 16 171 0 q 139 54 139 32 l 139 1031 q 155 1069 139 1054 q 193 1085 171 1085 q 232 1069 217 1085 q 247 1031 247 1054 l 247 54 q 232 16 247 32 q 193 0 217 0 m 282 1217 q 174 1268 225 1217 q 138 1297 151 1289 q 111 1306 125 1306 q 84 1293 96 1306 q 58 1254 72 1281 q 14 1225 40 1225 q -19 1238 -7 1225 q -32 1268 -32 1250 q -26 1292 -32 1281 q 32 1370 0 1346 q 106 1394 64 1394 q 163 1381 142 1394 q 215 1342 185 1368 q 249 1315 238 1322 q 272 1308 261 1308 q 290 1316 282 1308 q 307 1342 299 1324 q 328 1366 314 1357 q 356 1375 342 1375 q 369 1372 361 1375 q 403 1331 403 1358 q 397 1308 403 1318 q 346 1238 374 1260 q 282 1217 318 1217 z "},"J":{"ha":853,"x_min":63,"x_max":714,"o":"m 389 -14 q 223 29 297 -14 q 106 147 149 72 q 63 311 63 221 q 78 350 63 335 q 117 365 93 365 q 156 350 140 365 q 171 311 171 335 q 200 198 171 249 q 279 118 229 147 q 389 89 329 89 q 499 119 449 89 q 577 199 549 149 q 606 311 606 250 l 606 1031 q 622 1069 606 1054 q 660 1085 638 1085 q 699 1069 683 1085 q 714 1031 714 1054 l 714 311 q 671 147 714 221 q 553 29 628 72 q 389 -14 479 -14 z "},"Ĵ":{"ha":853,"x_min":63,"x_max":876,"o":"m 389 -14 q 223 29 297 -14 q 106 147 149 72 q 63 311 63 221 q 78 350 63 335 q 117 365 93 365 q 156 350 140 365 q 171 311 171 335 q 200 198 171 249 q 279 118 229 147 q 389 89 329 89 q 499 119 449 89 q 577 199 549 149 q 606 311 606 250 l 606 1031 q 622 1069 606 1054 q 660 1085 638 1085 q 699 1069 683 1085 q 714 1031 714 1054 l 714 311 q 671 147 714 221 q 553 29 628 72 q 389 -14 479 -14 m 499 1206 q 459 1219 475 1206 q 443 1254 443 1232 q 469 1301 443 1283 l 633 1410 q 660 1417 644 1417 q 688 1410 674 1417 l 850 1301 q 876 1254 876 1283 q 861 1219 876 1233 q 822 1206 846 1206 q 789 1217 807 1206 l 660 1306 l 531 1217 q 499 1206 515 1206 z "},"K":{"ha":910,"x_min":139,"x_max":847,"o":"m 193 0 q 155 16 171 0 q 139 54 139 32 l 139 1031 q 155 1069 139 1053 q 193 1085 171 1085 q 232 1069 217 1085 q 247 1031 247 1054 l 247 558 l 754 1065 q 797 1085 774 1085 q 834 1071 821 1085 q 847 1036 847 1057 q 829 992 847 1011 l 449 611 l 833 86 q 844 53 844 68 q 830 16 844 32 q 794 0 815 0 q 749 24 764 0 l 371 535 l 247 410 l 247 54 q 232 16 247 32 q 193 0 217 0 z "},"Ķ":{"ha":910,"x_min":139,"x_max":847,"o":"m 193 0 q 155 16 171 0 q 139 54 139 32 l 139 1031 q 155 1069 139 1053 q 193 1085 171 1085 q 232 1069 217 1085 q 247 1031 247 1054 l 247 558 l 754 1065 q 797 1085 774 1085 q 834 1071 821 1085 q 847 1036 847 1057 q 829 992 847 1011 l 449 611 l 833 86 q 844 53 844 68 q 830 16 844 32 q 794 0 815 0 q 749 24 764 0 l 371 535 l 247 410 l 247 54 q 232 16 247 32 q 193 0 217 0 m 464 -331 q 349 -303 403 -331 q 296 -232 296 -275 q 307 -203 296 -214 q 336 -193 318 -193 q 363 -199 351 -193 q 389 -217 374 -204 q 424 -241 406 -232 q 471 -250 442 -250 q 551 -190 551 -250 q 528 -149 551 -164 q 456 -133 504 -133 q 410 -124 426 -133 q 393 -96 393 -114 q 410 -65 393 -76 q 458 -54 426 -54 q 584 -92 535 -54 q 633 -190 633 -131 q 585 -292 633 -254 q 464 -331 536 -331 z "},"L":{"ha":879,"x_min":139,"x_max":844,"o":"m 193 0 q 155 16 171 0 q 139 54 139 32 l 139 1031 q 155 1069 139 1053 q 193 1085 171 1085 q 232 1069 217 1085 q 247 1031 247 1054 l 247 103 l 790 103 q 829 88 814 103 q 844 51 844 74 q 829 15 844 29 q 790 0 814 0 l 193 0 z "},"Ĺ":{"ha":879,"x_min":129,"x_max":844,"o":"m 193 0 q 155 16 171 0 q 139 54 139 32 l 139 1031 q 155 1069 139 1053 q 193 1085 171 1085 q 232 1069 217 1085 q 247 1031 247 1054 l 247 103 l 790 103 q 829 88 814 103 q 844 51 844 74 q 829 15 844 29 q 790 0 814 0 l 193 0 m 183 1200 q 144 1216 160 1200 q 129 1254 129 1232 q 142 1290 129 1276 l 299 1447 q 336 1463 314 1463 q 375 1447 360 1463 q 390 1407 390 1431 q 375 1371 390 1385 l 219 1214 q 183 1200 206 1200 z "},"Ľ":{"ha":879,"x_min":139,"x_max":844,"o":"m 193 0 q 155 16 171 0 q 139 54 139 32 l 139 1031 q 155 1069 139 1053 q 193 1085 171 1085 q 232 1069 217 1085 q 247 1031 247 1054 l 247 103 l 790 103 q 829 88 814 103 q 844 51 844 74 q 829 15 844 29 q 790 0 814 0 l 193 0 m 535 728 q 513 735 521 728 q 504 757 504 743 q 526 808 504 774 q 556 859 544 835 q 569 914 567 883 q 568 945 571 932 q 558 976 565 958 q 550 1003 554 988 q 546 1035 546 1018 q 563 1076 546 1063 q 610 1089 581 1089 q 664 1060 644 1089 q 683 985 683 1031 q 681 953 683 975 q 647 853 674 906 q 589 764 621 800 q 535 728 557 728 z "},"Ļ":{"ha":879,"x_min":139,"x_max":844,"o":"m 193 0 q 155 16 171 0 q 139 54 139 32 l 139 1031 q 155 1069 139 1053 q 193 1085 171 1085 q 232 1069 217 1085 q 247 1031 247 1054 l 247 103 l 790 103 q 829 88 814 103 q 844 51 844 74 q 829 15 844 29 q 790 0 814 0 l 193 0 m 461 -331 q 347 -303 400 -331 q 293 -232 293 -275 q 304 -203 293 -214 q 333 -193 315 -193 q 360 -199 349 -193 q 386 -217 371 -204 q 421 -241 403 -232 q 468 -250 439 -250 q 549 -190 549 -250 q 525 -149 549 -164 q 453 -133 501 -133 q 407 -124 424 -133 q 390 -96 390 -114 q 407 -65 390 -76 q 456 -54 424 -54 q 581 -92 532 -54 q 631 -190 631 -131 q 582 -292 631 -254 q 461 -331 533 -331 z "},"Ŀ":{"ha":814,"x_min":139,"x_max":844,"o":"m 193 0 q 155 16 171 0 q 139 54 139 32 l 139 1031 q 155 1069 139 1053 q 193 1085 171 1085 q 232 1069 217 1085 q 247 1031 247 1054 l 247 103 l 790 103 q 829 88 814 103 q 844 51 844 74 q 829 15 844 29 q 790 0 814 0 l 193 0 m 611 435 q 553 458 578 435 q 529 515 529 482 q 553 574 529 550 q 611 597 576 597 q 667 573 644 597 q 690 515 690 549 q 667 458 690 482 q 611 435 644 435 z "},"Ł":{"ha":922,"x_min":17,"x_max":868,"o":"m 217 0 q 178 16 194 0 q 163 54 163 32 l 163 415 l 108 361 q 71 346 93 346 q 33 362 49 346 q 17 400 17 378 q 32 439 17 421 l 163 568 l 163 1031 q 178 1069 163 1054 q 217 1085 194 1085 q 256 1069 240 1085 q 271 1031 271 1054 l 271 674 l 431 831 q 469 847 450 847 q 508 831 492 847 q 524 792 524 814 q 507 754 524 771 l 271 522 l 271 108 l 814 108 q 852 92 836 108 q 868 54 868 76 q 853 16 868 32 q 814 0 838 0 l 217 0 z "},"M":{"ha":1363,"x_min":139,"x_max":1224,"o":"m 1171 1085 q 1208 1069 1193 1085 q 1224 1031 1224 1054 l 1224 54 q 1208 16 1224 32 q 1171 0 1193 0 q 1131 16 1147 0 q 1115 54 1115 32 l 1115 840 l 729 51 q 682 25 713 25 q 632 58 647 25 l 247 828 l 247 54 q 232 16 247 32 q 193 0 217 0 q 155 16 171 0 q 139 54 139 32 l 139 1031 q 155 1069 139 1054 q 193 1085 171 1085 q 242 1057 225 1085 l 686 174 l 1122 1057 q 1171 1085 1139 1085 z "},"N":{"ha":1146,"x_min":139,"x_max":1007,"o":"m 193 0 q 154 15 169 0 q 139 54 139 31 l 139 1031 q 154 1069 139 1054 q 193 1085 169 1085 q 235 1065 218 1085 l 899 193 l 899 1031 q 915 1069 899 1054 q 953 1085 931 1085 q 992 1069 976 1085 q 1007 1031 1007 1054 l 1007 54 q 992 16 1007 32 q 953 0 976 0 q 913 18 925 0 l 247 890 l 247 54 q 232 16 247 32 q 193 0 217 0 z "},"Ń":{"ha":1146,"x_min":139,"x_max":1007,"o":"m 193 0 q 154 15 169 0 q 139 54 139 31 l 139 1031 q 154 1069 139 1054 q 193 1085 169 1085 q 235 1065 218 1085 l 899 193 l 899 1031 q 915 1069 899 1054 q 953 1085 931 1085 q 992 1069 976 1085 q 1007 1031 1007 1054 l 1007 54 q 992 16 1007 32 q 953 0 976 0 q 913 18 925 0 l 247 890 l 247 54 q 232 16 247 32 q 193 0 217 0 m 564 1200 q 525 1216 540 1200 q 510 1254 510 1232 q 522 1290 510 1276 l 679 1447 q 717 1463 694 1463 q 756 1447 740 1463 q 771 1407 771 1431 q 756 1371 771 1385 l 600 1214 q 564 1200 586 1200 z "},"Ň":{"ha":1146,"x_min":139,"x_max":1007,"o":"m 193 0 q 154 15 169 0 q 139 54 139 31 l 139 1031 q 154 1069 139 1054 q 193 1085 169 1085 q 235 1065 218 1085 l 899 193 l 899 1031 q 915 1069 899 1054 q 953 1085 931 1085 q 992 1069 976 1085 q 1007 1031 1007 1054 l 1007 54 q 992 16 1007 32 q 953 0 976 0 q 913 18 925 0 l 247 890 l 247 54 q 232 16 247 32 q 193 0 217 0 m 574 1213 q 547 1219 556 1213 l 383 1328 q 357 1374 357 1346 q 369 1403 357 1392 q 400 1414 381 1414 q 444 1399 421 1414 l 574 1311 l 703 1397 q 749 1414 726 1414 q 779 1402 768 1414 q 790 1374 790 1390 q 764 1328 790 1346 l 601 1219 q 574 1213 592 1213 z "},"Ņ":{"ha":1146,"x_min":139,"x_max":1007,"o":"m 193 0 q 154 15 169 0 q 139 54 139 31 l 139 1031 q 154 1069 139 1054 q 193 1085 169 1085 q 235 1065 218 1085 l 899 193 l 899 1031 q 915 1069 899 1054 q 953 1085 931 1085 q 992 1069 976 1085 q 1007 1031 1007 1054 l 1007 54 q 992 16 1007 32 q 953 0 976 0 q 913 18 925 0 l 247 890 l 247 54 q 232 16 247 32 q 193 0 217 0 m 582 -331 q 467 -303 521 -331 q 414 -232 414 -275 q 425 -203 414 -214 q 454 -193 436 -193 q 481 -199 469 -193 q 507 -217 492 -204 q 542 -241 524 -232 q 589 -250 560 -250 q 669 -190 669 -250 q 646 -149 669 -164 q 574 -133 622 -133 q 528 -124 544 -133 q 511 -96 511 -114 q 528 -65 511 -76 q 576 -54 544 -54 q 702 -92 653 -54 q 751 -190 751 -131 q 703 -292 751 -254 q 582 -331 654 -331 z "},"Ŋ":{"ha":994,"x_min":139,"x_max":897,"o":"m 519 1085 q 714 1032 628 1085 q 849 884 800 979 q 897 667 897 789 l 897 475 q 817 112 897 236 q 588 -12 738 -12 q 432 28 501 -12 q 342 139 363 69 q 339 156 339 150 q 349 183 339 171 q 375 196 358 194 q 408 190 392 200 q 435 158 425 179 q 493 108 450 126 q 585 89 536 89 q 740 183 690 89 q 789 475 789 278 l 789 658 q 717 894 789 807 q 515 981 646 981 q 376 953 436 981 q 281 875 315 925 q 247 761 247 825 l 247 54 q 232 16 247 32 q 193 0 217 0 q 155 16 171 0 q 139 54 139 32 l 139 1031 q 155 1069 139 1054 q 193 1085 171 1085 q 232 1069 217 1085 q 247 1031 247 1054 l 247 949 q 363 1049 294 1014 q 519 1085 432 1085 z "},"Ñ":{"ha":1146,"x_min":139,"x_max":1007,"o":"m 193 0 q 154 15 169 0 q 139 54 139 31 l 139 1031 q 154 1069 139 1054 q 193 1085 169 1085 q 235 1065 218 1085 l 899 193 l 899 1031 q 915 1069 899 1054 q 953 1085 931 1085 q 992 1069 976 1085 q 1007 1031 1007 1054 l 1007 54 q 992 16 1007 32 q 953 0 976 0 q 913 18 925 0 l 247 890 l 247 54 q 232 16 247 32 q 193 0 217 0 m 719 1196 q 650 1208 681 1196 q 585 1242 619 1221 q 538 1267 556 1260 q 501 1274 519 1274 q 410 1225 450 1274 q 389 1206 401 1213 q 364 1199 376 1199 q 340 1206 351 1199 q 324 1222 331 1211 q 318 1243 318 1232 q 328 1274 318 1260 q 408 1342 363 1318 q 504 1367 454 1367 q 569 1356 542 1367 q 633 1322 597 1344 q 681 1296 665 1303 q 718 1289 697 1289 q 786 1317 761 1289 q 829 1340 807 1340 q 851 1333 840 1340 q 876 1294 876 1321 q 865 1264 876 1279 q 719 1196 810 1196 z "},"O":{"ha":1279,"x_min":86,"x_max":1194,"o":"m 640 -14 q 356 58 482 -14 q 158 258 229 131 q 86 543 86 385 q 158 828 86 701 q 356 1026 229 954 q 640 1099 482 1099 q 924 1026 797 1099 q 1123 828 1051 954 q 1194 543 1194 701 q 1123 258 1194 385 q 924 58 1051 131 q 640 -14 797 -14 m 640 89 q 869 149 767 89 q 1029 312 971 208 q 1088 543 1088 415 q 1029 773 1088 669 q 869 936 971 876 q 640 996 767 996 q 410 936 513 996 q 250 773 308 876 q 192 543 192 669 q 250 312 192 415 q 410 149 308 208 q 640 89 513 89 z "},"Ó":{"ha":1279,"x_min":86,"x_max":1194,"o":"m 640 -14 q 356 58 482 -14 q 158 258 229 131 q 86 543 86 385 q 158 828 86 701 q 356 1026 229 954 q 640 1099 482 1099 q 924 1026 797 1099 q 1123 828 1051 954 q 1194 543 1194 701 q 1123 258 1194 385 q 924 58 1051 131 q 640 -14 797 -14 m 640 89 q 869 149 767 89 q 1029 312 971 208 q 1088 543 1088 415 q 1029 773 1088 669 q 869 936 971 876 q 640 996 767 996 q 410 936 513 996 q 250 773 308 876 q 192 543 192 669 q 250 312 192 415 q 410 149 308 208 q 640 89 513 89 m 631 1200 q 592 1216 607 1200 q 576 1254 576 1232 q 589 1290 576 1276 l 746 1447 q 783 1463 761 1463 q 822 1447 807 1463 q 838 1407 838 1431 q 822 1371 838 1385 l 667 1214 q 631 1200 653 1200 z "},"Ŏ":{"ha":1279,"x_min":86,"x_max":1194,"o":"m 640 -14 q 356 58 482 -14 q 158 258 229 131 q 86 543 86 385 q 158 828 86 701 q 356 1026 229 954 q 640 1099 482 1099 q 924 1026 797 1099 q 1123 828 1051 954 q 1194 543 1194 701 q 1123 258 1194 385 q 924 58 1051 131 q 640 -14 797 -14 m 640 89 q 869 149 767 89 q 1029 312 971 208 q 1088 543 1088 415 q 1029 773 1088 669 q 869 936 971 876 q 640 996 767 996 q 410 936 513 996 q 250 773 308 876 q 192 543 192 669 q 250 312 192 415 q 410 149 308 208 q 640 89 513 89 m 639 1201 q 531 1223 581 1201 q 451 1281 481 1244 q 422 1363 422 1318 q 438 1402 422 1386 q 475 1418 453 1418 q 511 1403 496 1418 q 526 1368 526 1389 q 558 1314 526 1336 q 639 1292 590 1292 q 722 1313 690 1292 q 753 1368 753 1335 q 768 1404 753 1390 q 806 1418 783 1418 q 842 1402 828 1418 q 857 1364 857 1386 q 791 1247 854 1293 q 639 1201 728 1201 z "},"Ô":{"ha":1279,"x_min":86,"x_max":1194,"o":"m 640 -14 q 356 58 482 -14 q 158 258 229 131 q 86 543 86 385 q 158 828 86 701 q 356 1026 229 954 q 640 1099 482 1099 q 924 1026 797 1099 q 1123 828 1051 954 q 1194 543 1194 701 q 1123 258 1194 385 q 924 58 1051 131 q 640 -14 797 -14 m 640 89 q 869 149 767 89 q 1029 312 971 208 q 1088 543 1088 415 q 1029 773 1088 669 q 869 936 971 876 q 640 996 767 996 q 410 936 513 996 q 250 773 308 876 q 192 543 192 669 q 250 312 192 415 q 410 149 308 208 q 640 89 513 89 m 479 1206 q 440 1219 456 1206 q 424 1254 424 1232 q 450 1301 424 1283 l 614 1410 q 640 1417 625 1417 q 668 1410 654 1417 l 831 1301 q 857 1254 857 1283 q 842 1219 857 1233 q 803 1206 826 1206 q 769 1217 788 1206 l 640 1306 l 511 1217 q 479 1206 496 1206 z "},"Ố":{"ha":1279,"x_min":86,"x_max":1194,"o":"m 640 -14 q 356 58 482 -14 q 158 258 229 131 q 86 543 86 385 q 158 828 86 701 q 356 1026 229 954 q 640 1099 482 1099 q 924 1026 797 1099 q 1123 828 1051 954 q 1194 543 1194 701 q 1123 258 1194 385 q 924 58 1051 131 q 640 -14 797 -14 m 640 89 q 869 149 767 89 q 1029 312 971 208 q 1088 543 1088 415 q 1029 773 1088 669 q 869 936 971 876 q 640 996 767 996 q 410 936 513 996 q 250 773 308 876 q 192 543 192 669 q 250 312 192 415 q 410 149 308 208 q 640 89 513 89 m 479 1206 q 440 1219 456 1206 q 424 1254 424 1232 q 450 1301 424 1283 l 614 1410 q 640 1417 625 1417 q 668 1410 654 1417 l 831 1301 q 857 1254 857 1283 q 842 1219 857 1233 q 803 1206 826 1206 q 769 1217 788 1206 l 640 1306 l 511 1217 q 479 1206 496 1206 m 764 1435 q 725 1451 740 1435 q 710 1489 710 1467 q 722 1525 710 1511 l 879 1682 q 917 1697 894 1697 q 956 1681 940 1697 q 971 1642 971 1665 q 956 1606 971 1619 l 800 1449 q 764 1435 786 1435 z "},"Ộ":{"ha":1279,"x_min":86,"x_max":1194,"o":"m 640 -14 q 356 58 482 -14 q 158 258 229 131 q 86 543 86 385 q 158 828 86 701 q 356 1026 229 954 q 640 1099 482 1099 q 924 1026 797 1099 q 1123 828 1051 954 q 1194 543 1194 701 q 1123 258 1194 385 q 924 58 1051 131 q 640 -14 797 -14 m 640 89 q 869 149 767 89 q 1029 312 971 208 q 1088 543 1088 415 q 1029 773 1088 669 q 869 936 971 876 q 640 996 767 996 q 410 936 513 996 q 250 773 308 876 q 192 543 192 669 q 250 312 192 415 q 410 149 308 208 q 640 89 513 89 m 479 1206 q 440 1219 456 1206 q 424 1254 424 1232 q 450 1301 424 1283 l 614 1410 q 640 1417 625 1417 q 668 1410 654 1417 l 831 1301 q 857 1254 857 1283 q 842 1219 857 1233 q 803 1206 826 1206 q 769 1217 788 1206 l 640 1306 l 511 1217 q 479 1206 496 1206 m 639 -290 q 585 -268 607 -290 q 564 -214 564 -246 q 586 -160 564 -181 q 640 -139 608 -139 q 693 -160 671 -139 q 715 -214 715 -181 q 693 -268 715 -246 q 639 -290 671 -290 z "},"Ồ":{"ha":1279,"x_min":86,"x_max":1194,"o":"m 640 -14 q 356 58 482 -14 q 158 258 229 131 q 86 543 86 385 q 158 828 86 701 q 356 1026 229 954 q 640 1099 482 1099 q 924 1026 797 1099 q 1123 828 1051 954 q 1194 543 1194 701 q 1123 258 1194 385 q 924 58 1051 131 q 640 -14 797 -14 m 640 89 q 869 149 767 89 q 1029 312 971 208 q 1088 543 1088 415 q 1029 773 1088 669 q 869 936 971 876 q 640 996 767 996 q 410 936 513 996 q 250 773 308 876 q 192 543 192 669 q 250 312 192 415 q 410 149 308 208 q 640 89 513 89 m 479 1206 q 440 1219 456 1206 q 424 1254 424 1232 q 450 1301 424 1283 l 614 1410 q 640 1417 625 1417 q 668 1410 654 1417 l 831 1301 q 857 1254 857 1283 q 842 1219 857 1233 q 803 1206 826 1206 q 769 1217 788 1206 l 640 1306 l 511 1217 q 479 1206 496 1206 m 772 1443 q 736 1458 751 1443 l 579 1614 q 565 1651 565 1628 q 581 1691 565 1675 q 618 1707 596 1707 q 657 1690 640 1707 l 813 1533 q 826 1499 826 1521 q 811 1459 826 1475 q 772 1443 796 1443 z "},"Ổ":{"ha":1279,"x_min":86,"x_max":1194,"o":"m 640 -14 q 356 58 482 -14 q 158 258 229 131 q 86 543 86 385 q 158 828 86 701 q 356 1026 229 954 q 640 1099 482 1099 q 924 1026 797 1099 q 1123 828 1051 954 q 1194 543 1194 701 q 1123 258 1194 385 q 924 58 1051 131 q 640 -14 797 -14 m 640 89 q 869 149 767 89 q 1029 312 971 208 q 1088 543 1088 415 q 1029 773 1088 669 q 869 936 971 876 q 640 996 767 996 q 410 936 513 996 q 250 773 308 876 q 192 543 192 669 q 250 312 192 415 q 410 149 308 208 q 640 89 513 89 m 483 1206 q 444 1219 460 1206 q 428 1254 428 1232 q 454 1301 428 1283 l 618 1410 q 644 1417 629 1417 q 672 1410 658 1417 l 835 1301 q 861 1254 861 1283 q 846 1219 861 1233 q 807 1206 831 1206 q 774 1217 792 1206 l 644 1306 l 515 1217 q 483 1206 500 1206 m 776 1390 q 741 1405 756 1390 q 726 1440 726 1419 l 726 1479 q 771 1533 726 1524 l 806 1540 q 863 1601 863 1554 q 843 1649 863 1632 q 793 1665 824 1665 q 732 1643 761 1665 q 697 1631 719 1631 q 666 1643 679 1631 q 653 1675 653 1656 q 669 1713 653 1699 q 792 1756 724 1756 q 908 1715 863 1756 q 954 1608 954 1674 q 915 1513 954 1547 q 814 1469 876 1479 l 825 1451 q 811 1407 825 1424 q 776 1390 797 1390 z "},"Ỗ":{"ha":1279,"x_min":86,"x_max":1194,"o":"m 640 -14 q 356 58 482 -14 q 158 258 229 131 q 86 543 86 385 q 158 828 86 701 q 356 1026 229 954 q 640 1099 482 1099 q 924 1026 797 1099 q 1123 828 1051 954 q 1194 543 1194 701 q 1123 258 1194 385 q 924 58 1051 131 q 640 -14 797 -14 m 640 89 q 869 149 767 89 q 1029 312 971 208 q 1088 543 1088 415 q 1029 773 1088 669 q 869 936 971 876 q 640 996 767 996 q 410 936 513 996 q 250 773 308 876 q 192 543 192 669 q 250 312 192 415 q 410 149 308 208 q 640 89 513 89 m 482 1206 q 442 1219 458 1206 q 426 1254 426 1232 q 453 1301 426 1283 l 617 1410 q 643 1417 628 1417 q 671 1410 657 1417 l 833 1301 q 860 1254 860 1283 q 844 1219 860 1233 q 806 1206 829 1206 q 772 1217 790 1206 l 643 1306 l 514 1217 q 482 1206 499 1206 m 725 1454 q 617 1506 668 1454 q 581 1535 594 1526 q 554 1543 568 1543 q 527 1531 539 1543 q 501 1492 515 1518 q 457 1463 483 1463 q 424 1475 436 1463 q 411 1506 411 1488 q 417 1529 411 1518 q 475 1608 443 1583 q 549 1632 507 1632 q 606 1619 585 1632 q 658 1579 628 1606 q 692 1553 681 1560 q 715 1546 704 1546 q 733 1553 725 1546 q 750 1579 742 1561 q 771 1603 757 1594 q 799 1613 785 1613 q 813 1610 804 1613 q 846 1568 846 1596 q 840 1546 846 1556 q 789 1476 817 1497 q 725 1454 761 1454 z "},"Ȍ":{"ha":1279,"x_min":86,"x_max":1194,"o":"m 640 -14 q 356 58 482 -14 q 158 258 229 131 q 86 543 86 385 q 158 828 86 701 q 356 1026 229 954 q 640 1099 482 1099 q 924 1026 797 1099 q 1123 828 1051 954 q 1194 543 1194 701 q 1123 258 1194 385 q 924 58 1051 131 q 640 -14 797 -14 m 640 89 q 869 149 767 89 q 1029 312 971 208 q 1088 543 1088 415 q 1029 773 1088 669 q 869 936 971 876 q 640 996 767 996 q 410 936 513 996 q 250 773 308 876 q 192 543 192 669 q 250 312 192 415 q 410 149 308 208 q 640 89 513 89 m 579 1192 q 540 1218 553 1192 l 456 1397 q 451 1417 451 1408 q 467 1455 451 1439 q 506 1471 482 1471 q 536 1461 522 1471 q 554 1438 550 1451 l 615 1249 q 618 1232 618 1238 q 606 1203 618 1214 q 579 1192 594 1192 m 789 1192 q 750 1218 763 1192 l 665 1397 q 661 1417 661 1408 q 677 1455 661 1439 q 717 1471 693 1471 q 747 1461 733 1471 q 767 1438 761 1451 l 825 1249 q 828 1232 828 1243 q 816 1203 828 1214 q 789 1192 804 1192 z "},"Ö":{"ha":1279,"x_min":86,"x_max":1194,"o":"m 640 -14 q 356 58 482 -14 q 158 258 229 131 q 86 543 86 385 q 158 828 86 701 q 356 1026 229 954 q 640 1099 482 1099 q 924 1026 797 1099 q 1123 828 1051 954 q 1194 543 1194 701 q 1123 258 1194 385 q 924 58 1051 131 q 640 -14 797 -14 m 640 89 q 869 149 767 89 q 1029 312 971 208 q 1088 543 1088 415 q 1029 773 1088 669 q 869 936 971 876 q 640 996 767 996 q 410 936 513 996 q 250 773 308 876 q 192 543 192 669 q 250 312 192 415 q 410 149 308 208 q 640 89 513 89 m 496 1224 q 442 1246 464 1224 q 419 1300 419 1268 q 442 1354 419 1332 q 496 1376 464 1376 q 550 1354 528 1376 q 572 1300 572 1332 q 550 1246 572 1268 q 496 1224 528 1224 m 786 1224 q 732 1246 754 1224 q 710 1300 710 1268 q 732 1354 710 1332 q 786 1376 754 1376 q 840 1354 818 1376 q 863 1300 863 1332 q 840 1246 863 1268 q 786 1224 818 1224 z "},"Ȫ":{"ha":1279,"x_min":86,"x_max":1194,"o":"m 640 -14 q 356 58 482 -14 q 158 258 229 131 q 86 543 86 385 q 158 828 86 701 q 356 1026 229 954 q 640 1099 482 1099 q 924 1026 797 1099 q 1123 828 1051 954 q 1194 543 1194 701 q 1123 258 1194 385 q 924 58 1051 131 q 640 -14 797 -14 m 640 89 q 869 149 767 89 q 1029 312 971 208 q 1088 543 1088 415 q 1029 773 1088 669 q 869 936 971 876 q 640 996 767 996 q 410 936 513 996 q 250 773 308 876 q 192 543 192 669 q 250 312 192 415 q 410 149 308 208 q 640 89 513 89 m 496 1224 q 442 1246 464 1224 q 419 1300 419 1268 q 442 1354 419 1332 q 496 1376 464 1376 q 550 1354 528 1376 q 572 1300 572 1332 q 550 1246 572 1268 q 496 1224 528 1224 m 786 1224 q 732 1246 754 1224 q 710 1300 710 1268 q 732 1354 710 1332 q 786 1376 754 1376 q 840 1354 818 1376 q 863 1300 863 1332 q 840 1246 863 1268 q 786 1224 818 1224 m 460 1503 q 421 1517 436 1503 q 406 1553 406 1531 q 421 1589 406 1575 q 460 1603 436 1603 l 819 1603 q 858 1589 842 1603 q 874 1553 874 1575 q 858 1517 874 1531 q 819 1503 842 1503 l 460 1503 z "},"Ȱ":{"ha":1279,"x_min":86,"x_max":1194,"o":"m 640 -14 q 356 58 482 -14 q 158 258 229 131 q 86 543 86 385 q 158 828 86 701 q 356 1026 229 954 q 640 1099 482 1099 q 924 1026 797 1099 q 1123 828 1051 954 q 1194 543 1194 701 q 1123 258 1194 385 q 924 58 1051 131 q 640 -14 797 -14 m 640 89 q 869 149 767 89 q 1029 312 971 208 q 1088 543 1088 415 q 1029 773 1088 669 q 869 936 971 876 q 640 996 767 996 q 410 936 513 996 q 250 773 308 876 q 192 543 192 669 q 250 312 192 415 q 410 149 308 208 q 640 89 513 89 m 639 1229 q 585 1251 607 1229 q 564 1306 564 1274 q 586 1360 564 1339 q 640 1381 608 1381 q 693 1360 671 1381 q 715 1306 715 1339 q 693 1251 715 1274 q 639 1229 671 1229 m 460 1469 q 421 1483 436 1469 q 406 1519 406 1497 q 421 1556 406 1542 q 460 1569 436 1569 l 819 1569 q 858 1556 842 1569 q 874 1519 874 1542 q 858 1483 874 1497 q 819 1469 842 1469 l 460 1469 z "},"Ọ":{"ha":1279,"x_min":86,"x_max":1194,"o":"m 640 -14 q 356 58 482 -14 q 158 258 229 131 q 86 543 86 385 q 158 828 86 701 q 356 1026 229 954 q 640 1099 482 1099 q 924 1026 797 1099 q 1123 828 1051 954 q 1194 543 1194 701 q 1123 258 1194 385 q 924 58 1051 131 q 640 -14 797 -14 m 640 89 q 869 149 767 89 q 1029 312 971 208 q 1088 543 1088 415 q 1029 773 1088 669 q 869 936 971 876 q 640 996 767 996 q 410 936 513 996 q 250 773 308 876 q 192 543 192 669 q 250 312 192 415 q 410 149 308 208 q 640 89 513 89 m 639 -290 q 585 -268 607 -290 q 564 -214 564 -246 q 586 -160 564 -181 q 640 -139 608 -139 q 693 -160 671 -139 q 715 -214 715 -181 q 693 -268 715 -246 q 639 -290 671 -290 z "},"Ò":{"ha":1279,"x_min":86,"x_max":1194,"o":"m 640 -14 q 356 58 482 -14 q 158 258 229 131 q 86 543 86 385 q 158 828 86 701 q 356 1026 229 954 q 640 1099 482 1099 q 924 1026 797 1099 q 1123 828 1051 954 q 1194 543 1194 701 q 1123 258 1194 385 q 924 58 1051 131 q 640 -14 797 -14 m 640 89 q 869 149 767 89 q 1029 312 971 208 q 1088 543 1088 415 q 1029 773 1088 669 q 869 936 971 876 q 640 996 767 996 q 410 936 513 996 q 250 773 308 876 q 192 543 192 669 q 250 312 192 415 q 410 149 308 208 q 640 89 513 89 m 639 1208 q 603 1224 618 1208 l 446 1379 q 432 1417 432 1393 q 447 1456 432 1440 q 485 1472 463 1472 q 524 1456 507 1472 l 679 1299 q 693 1264 693 1286 q 678 1224 693 1240 q 639 1208 663 1208 z "},"Ỏ":{"ha":1279,"x_min":86,"x_max":1194,"o":"m 640 -14 q 356 58 482 -14 q 158 258 229 131 q 86 543 86 385 q 158 828 86 701 q 356 1026 229 954 q 640 1099 482 1099 q 924 1026 797 1099 q 1123 828 1051 954 q 1194 543 1194 701 q 1123 258 1194 385 q 924 58 1051 131 q 640 -14 797 -14 m 640 89 q 869 149 767 89 q 1029 312 971 208 q 1088 543 1088 415 q 1029 773 1088 669 q 869 936 971 876 q 640 996 767 996 q 410 936 513 996 q 250 773 308 876 q 192 543 192 669 q 250 312 192 415 q 410 149 308 208 q 640 89 513 89 m 639 1156 q 603 1170 618 1156 q 589 1206 589 1185 l 589 1244 q 633 1299 589 1289 l 668 1306 q 725 1367 725 1319 q 706 1414 725 1397 q 656 1431 686 1431 q 594 1408 624 1431 q 560 1396 582 1396 q 528 1408 542 1396 q 515 1440 515 1421 q 532 1478 515 1464 q 654 1521 586 1521 q 771 1480 725 1521 q 817 1374 817 1439 q 778 1278 817 1313 q 676 1235 739 1244 l 688 1217 q 674 1172 688 1189 q 639 1156 660 1156 z "},"Ơ":{"ha":1279,"x_min":86,"x_max":1194,"o":"m 1026 951 q 1151 770 1107 875 q 1194 543 1194 665 q 1123 258 1194 385 q 924 58 1051 131 q 640 -14 797 -14 q 356 58 482 -14 q 158 258 229 131 q 86 543 86 385 q 158 828 86 701 q 356 1026 229 954 q 640 1099 482 1099 q 907 1036 786 1099 l 963 1036 q 1005 1058 988 1036 q 1022 1113 1022 1079 l 1022 1142 q 1035 1180 1022 1165 q 1071 1194 1049 1194 q 1108 1177 1094 1194 q 1121 1133 1121 1160 l 1121 1113 q 1095 1014 1121 1057 q 1026 951 1069 971 m 640 89 q 869 149 767 89 q 1029 312 971 208 q 1088 543 1088 415 q 1029 773 1088 669 q 869 936 971 876 q 640 996 767 996 q 410 936 513 996 q 250 773 308 876 q 192 543 192 669 q 250 312 192 415 q 410 149 308 208 q 640 89 513 89 z "},"Ớ":{"ha":1279,"x_min":86,"x_max":1194,"o":"m 1026 951 q 1151 770 1107 875 q 1194 543 1194 665 q 1123 258 1194 385 q 924 58 1051 131 q 640 -14 797 -14 q 356 58 482 -14 q 158 258 229 131 q 86 543 86 385 q 158 828 86 701 q 356 1026 229 954 q 640 1099 482 1099 q 907 1036 786 1099 l 963 1036 q 1005 1058 988 1036 q 1022 1113 1022 1079 l 1022 1142 q 1035 1180 1022 1165 q 1071 1194 1049 1194 q 1108 1177 1094 1194 q 1121 1133 1121 1160 l 1121 1113 q 1095 1014 1121 1057 q 1026 951 1069 971 m 640 89 q 869 149 767 89 q 1029 312 971 208 q 1088 543 1088 415 q 1029 773 1088 669 q 869 936 971 876 q 640 996 767 996 q 410 936 513 996 q 250 773 308 876 q 192 543 192 669 q 250 312 192 415 q 410 149 308 208 q 640 89 513 89 m 631 1200 q 592 1216 607 1200 q 576 1254 576 1232 q 589 1290 576 1276 l 746 1447 q 783 1463 761 1463 q 822 1447 807 1463 q 838 1407 838 1431 q 822 1371 838 1385 l 667 1214 q 631 1200 653 1200 z "},"Ợ":{"ha":1279,"x_min":86,"x_max":1194,"o":"m 1026 951 q 1151 770 1107 875 q 1194 543 1194 665 q 1123 258 1194 385 q 924 58 1051 131 q 640 -14 797 -14 q 356 58 482 -14 q 158 258 229 131 q 86 543 86 385 q 158 828 86 701 q 356 1026 229 954 q 640 1099 482 1099 q 907 1036 786 1099 l 963 1036 q 1005 1058 988 1036 q 1022 1113 1022 1079 l 1022 1142 q 1035 1180 1022 1165 q 1071 1194 1049 1194 q 1108 1177 1094 1194 q 1121 1133 1121 1160 l 1121 1113 q 1095 1014 1121 1057 q 1026 951 1069 971 m 640 89 q 869 149 767 89 q 1029 312 971 208 q 1088 543 1088 415 q 1029 773 1088 669 q 869 936 971 876 q 640 996 767 996 q 410 936 513 996 q 250 773 308 876 q 192 543 192 669 q 250 312 192 415 q 410 149 308 208 q 640 89 513 89 m 639 -290 q 585 -268 607 -290 q 564 -214 564 -246 q 586 -160 564 -181 q 640 -139 608 -139 q 693 -160 671 -139 q 715 -214 715 -181 q 693 -268 715 -246 q 639 -290 671 -290 z "},"Ờ":{"ha":1279,"x_min":86,"x_max":1194,"o":"m 1026 951 q 1151 770 1107 875 q 1194 543 1194 665 q 1123 258 1194 385 q 924 58 1051 131 q 640 -14 797 -14 q 356 58 482 -14 q 158 258 229 131 q 86 543 86 385 q 158 828 86 701 q 356 1026 229 954 q 640 1099 482 1099 q 907 1036 786 1099 l 963 1036 q 1005 1058 988 1036 q 1022 1113 1022 1079 l 1022 1142 q 1035 1180 1022 1165 q 1071 1194 1049 1194 q 1108 1177 1094 1194 q 1121 1133 1121 1160 l 1121 1113 q 1095 1014 1121 1057 q 1026 951 1069 971 m 640 89 q 869 149 767 89 q 1029 312 971 208 q 1088 543 1088 415 q 1029 773 1088 669 q 869 936 971 876 q 640 996 767 996 q 410 936 513 996 q 250 773 308 876 q 192 543 192 669 q 250 312 192 415 q 410 149 308 208 q 640 89 513 89 m 639 1208 q 603 1224 618 1208 l 446 1379 q 432 1417 432 1393 q 447 1456 432 1440 q 485 1472 463 1472 q 524 1456 507 1472 l 679 1299 q 693 1264 693 1286 q 678 1224 693 1240 q 639 1208 663 1208 z "},"Ở":{"ha":1279,"x_min":86,"x_max":1194,"o":"m 1026 951 q 1151 770 1107 875 q 1194 543 1194 665 q 1123 258 1194 385 q 924 58 1051 131 q 640 -14 797 -14 q 356 58 482 -14 q 158 258 229 131 q 86 543 86 385 q 158 828 86 701 q 356 1026 229 954 q 640 1099 482 1099 q 907 1036 786 1099 l 963 1036 q 1005 1058 988 1036 q 1022 1113 1022 1079 l 1022 1142 q 1035 1180 1022 1165 q 1071 1194 1049 1194 q 1108 1177 1094 1194 q 1121 1133 1121 1160 l 1121 1113 q 1095 1014 1121 1057 q 1026 951 1069 971 m 640 89 q 869 149 767 89 q 1029 312 971 208 q 1088 543 1088 415 q 1029 773 1088 669 q 869 936 971 876 q 640 996 767 996 q 410 936 513 996 q 250 773 308 876 q 192 543 192 669 q 250 312 192 415 q 410 149 308 208 q 640 89 513 89 m 639 1156 q 603 1170 618 1156 q 589 1206 589 1185 l 589 1244 q 633 1299 589 1289 l 668 1306 q 725 1367 725 1319 q 706 1414 725 1397 q 656 1431 686 1431 q 594 1408 624 1431 q 560 1396 582 1396 q 528 1408 542 1396 q 515 1440 515 1421 q 532 1478 515 1464 q 654 1521 586 1521 q 771 1480 725 1521 q 817 1374 817 1439 q 778 1278 817 1313 q 676 1235 739 1244 l 688 1217 q 674 1172 688 1189 q 639 1156 660 1156 z "},"Ỡ":{"ha":1279,"x_min":86,"x_max":1194,"o":"m 1026 951 q 1151 770 1107 875 q 1194 543 1194 665 q 1123 258 1194 385 q 924 58 1051 131 q 640 -14 797 -14 q 356 58 482 -14 q 158 258 229 131 q 86 543 86 385 q 158 828 86 701 q 356 1026 229 954 q 640 1099 482 1099 q 907 1036 786 1099 l 963 1036 q 1005 1058 988 1036 q 1022 1113 1022 1079 l 1022 1142 q 1035 1180 1022 1165 q 1071 1194 1049 1194 q 1108 1177 1094 1194 q 1121 1133 1121 1160 l 1121 1113 q 1095 1014 1121 1057 q 1026 951 1069 971 m 640 89 q 869 149 767 89 q 1029 312 971 208 q 1088 543 1088 415 q 1029 773 1088 669 q 869 936 971 876 q 640 996 767 996 q 410 936 513 996 q 250 773 308 876 q 192 543 192 669 q 250 312 192 415 q 410 149 308 208 q 640 89 513 89 m 786 1196 q 717 1208 747 1196 q 651 1242 686 1221 q 604 1267 622 1260 q 568 1274 586 1274 q 476 1225 517 1274 q 456 1206 468 1213 q 431 1199 443 1199 q 407 1206 418 1199 q 391 1222 397 1211 q 385 1243 385 1232 q 394 1274 385 1260 q 475 1342 429 1318 q 571 1367 521 1367 q 636 1356 608 1367 q 700 1322 664 1344 q 748 1296 732 1303 q 785 1289 764 1289 q 853 1317 828 1289 q 896 1340 874 1340 q 918 1333 907 1340 q 943 1294 943 1321 q 932 1264 943 1279 q 786 1196 876 1196 z "},"Ő":{"ha":1279,"x_min":86,"x_max":1194,"o":"m 640 -14 q 356 58 482 -14 q 158 258 229 131 q 86 543 86 385 q 158 828 86 701 q 356 1026 229 954 q 640 1099 482 1099 q 924 1026 797 1099 q 1123 828 1051 954 q 1194 543 1194 701 q 1123 258 1194 385 q 924 58 1051 131 q 640 -14 797 -14 m 640 89 q 869 149 767 89 q 1029 312 971 208 q 1088 543 1088 415 q 1029 773 1088 669 q 869 936 971 876 q 640 996 767 996 q 410 936 513 996 q 250 773 308 876 q 192 543 192 669 q 250 312 192 415 q 410 149 308 208 q 640 89 513 89 m 532 1192 q 505 1203 517 1192 q 493 1232 493 1214 q 496 1249 493 1243 l 554 1438 q 574 1462 560 1453 q 604 1471 588 1471 q 644 1455 628 1471 q 660 1417 660 1439 q 656 1397 660 1408 l 571 1218 q 532 1192 557 1192 m 742 1192 q 715 1203 726 1192 q 703 1232 703 1214 q 706 1249 703 1238 l 767 1438 q 785 1461 771 1451 q 815 1471 799 1471 q 854 1455 839 1471 q 869 1417 869 1439 q 865 1397 869 1408 l 781 1218 q 742 1192 767 1192 z "},"Ȏ":{"ha":1279,"x_min":86,"x_max":1194,"o":"m 640 -14 q 356 58 482 -14 q 158 258 229 131 q 86 543 86 385 q 158 828 86 701 q 356 1026 229 954 q 640 1099 482 1099 q 924 1026 797 1099 q 1123 828 1051 954 q 1194 543 1194 701 q 1123 258 1194 385 q 924 58 1051 131 q 640 -14 797 -14 m 640 89 q 869 149 767 89 q 1029 312 971 208 q 1088 543 1088 415 q 1029 773 1088 669 q 869 936 971 876 q 640 996 767 996 q 410 936 513 996 q 250 773 308 876 q 192 543 192 669 q 250 312 192 415 q 410 149 308 208 q 640 89 513 89 m 639 1417 q 791 1371 728 1417 q 857 1254 854 1325 q 842 1216 857 1232 q 806 1200 828 1200 q 768 1214 783 1200 q 753 1250 753 1228 q 722 1305 753 1283 q 639 1326 690 1326 q 558 1304 590 1326 q 526 1250 526 1282 q 511 1215 526 1229 q 475 1200 496 1200 q 438 1216 453 1200 q 422 1256 422 1232 q 451 1337 422 1300 q 531 1395 481 1374 q 639 1417 581 1417 z "},"Ō":{"ha":1279,"x_min":86,"x_max":1194,"o":"m 640 -14 q 356 58 482 -14 q 158 258 229 131 q 86 543 86 385 q 158 828 86 701 q 356 1026 229 954 q 640 1099 482 1099 q 924 1026 797 1099 q 1123 828 1051 954 q 1194 543 1194 701 q 1123 258 1194 385 q 924 58 1051 131 q 640 -14 797 -14 m 640 89 q 869 149 767 89 q 1029 312 971 208 q 1088 543 1088 415 q 1029 773 1088 669 q 869 936 971 876 q 640 996 767 996 q 410 936 513 996 q 250 773 308 876 q 192 543 192 669 q 250 312 192 415 q 410 149 308 208 q 640 89 513 89 m 460 1236 q 421 1250 436 1236 q 406 1286 406 1264 q 421 1322 406 1308 q 460 1336 436 1336 l 819 1336 q 858 1322 842 1336 q 874 1286 874 1308 q 858 1250 874 1264 q 819 1236 842 1236 l 460 1236 z "},"Ǫ":{"ha":1279,"x_min":86,"x_max":1194,"o":"m 1194 543 q 1129 269 1194 392 q 948 72 1064 146 q 686 -12 832 -3 q 693 -39 693 -24 q 607 -157 693 -94 q 585 -201 585 -174 q 601 -240 585 -225 q 639 -256 617 -256 q 668 -247 656 -256 l 715 -212 q 747 -201 731 -201 q 786 -217 771 -201 q 801 -256 801 -233 q 783 -299 801 -281 l 728 -335 q 639 -364 686 -364 q 524 -316 572 -364 q 476 -201 476 -268 q 544 -68 476 -125 q 592 -14 581 -42 l 593 -12 q 331 73 447 -1 q 151 270 215 147 q 86 543 86 393 q 158 828 86 701 q 356 1026 229 954 q 640 1099 482 1099 q 924 1026 797 1099 q 1123 828 1051 954 q 1194 543 1194 701 m 640 89 q 869 149 767 89 q 1029 312 971 208 q 1088 543 1088 415 q 1029 773 1088 669 q 869 936 971 876 q 640 996 767 996 q 410 936 513 996 q 250 773 308 876 q 192 543 192 669 q 250 312 192 415 q 410 149 308 208 q 640 89 513 89 z "},"Ø":{"ha":1228,"x_min":81,"x_max":1194,"o":"m 1068 906 q 1162 742 1129 835 q 1194 543 1194 649 q 1123 258 1194 385 q 924 58 1051 131 q 640 -14 797 -14 q 435 22 531 -14 q 265 124 339 58 l 153 11 q 124 0 142 0 q 92 13 104 0 q 81 43 81 25 q 92 71 81 60 l 206 185 q 117 349 149 258 q 86 543 86 440 q 158 828 86 701 q 356 1026 229 954 q 640 1099 482 1099 q 842 1065 747 1099 q 1008 967 936 1031 l 1117 1074 q 1146 1085 1128 1085 q 1177 1072 1164 1085 q 1190 1043 1190 1060 q 1178 1015 1190 1028 l 1068 906 m 640 996 q 410 936 513 996 q 250 773 308 876 q 192 543 192 669 q 288 256 192 378 l 928 896 q 796 969 869 943 q 640 996 722 996 m 640 89 q 869 149 767 89 q 1029 312 971 208 q 1088 543 1088 415 q 1062 701 1088 626 q 988 835 1036 776 l 346 193 q 481 116 406 143 q 640 89 556 89 z "},"Ǿ":{"ha":1228,"x_min":81,"x_max":1194,"o":"m 1068 906 q 1162 742 1129 835 q 1194 543 1194 649 q 1123 258 1194 385 q 924 58 1051 131 q 640 -14 797 -14 q 435 22 531 -14 q 265 124 339 58 l 153 11 q 124 0 142 0 q 92 13 104 0 q 81 43 81 25 q 92 71 81 60 l 206 185 q 117 349 149 258 q 86 543 86 440 q 158 828 86 701 q 356 1026 229 954 q 640 1099 482 1099 q 842 1065 747 1099 q 1008 967 936 1031 l 1117 1074 q 1146 1085 1128 1085 q 1177 1072 1164 1085 q 1190 1043 1190 1060 q 1178 1015 1190 1028 l 1068 906 m 640 996 q 410 936 513 996 q 250 773 308 876 q 192 543 192 669 q 288 256 192 378 l 928 896 q 796 969 869 943 q 640 996 722 996 m 640 89 q 869 149 767 89 q 1029 312 971 208 q 1088 543 1088 415 q 1062 701 1088 626 q 988 835 1036 776 l 346 193 q 481 116 406 143 q 640 89 556 89 m 631 1200 q 592 1216 607 1200 q 576 1254 576 1232 q 589 1290 576 1276 l 746 1447 q 783 1463 761 1463 q 822 1447 807 1463 q 838 1407 838 1431 q 822 1371 838 1385 l 667 1214 q 631 1200 653 1200 z "},"Õ":{"ha":1279,"x_min":86,"x_max":1194,"o":"m 640 -14 q 356 58 482 -14 q 158 258 229 131 q 86 543 86 385 q 158 828 86 701 q 356 1026 229 954 q 640 1099 482 1099 q 924 1026 797 1099 q 1123 828 1051 954 q 1194 543 1194 701 q 1123 258 1194 385 q 924 58 1051 131 q 640 -14 797 -14 m 640 89 q 869 149 767 89 q 1029 312 971 208 q 1088 543 1088 415 q 1029 773 1088 669 q 869 936 971 876 q 640 996 767 996 q 410 936 513 996 q 250 773 308 876 q 192 543 192 669 q 250 312 192 415 q 410 149 308 208 q 640 89 513 89 m 786 1196 q 717 1208 747 1196 q 651 1242 686 1221 q 604 1267 622 1260 q 568 1274 586 1274 q 476 1225 517 1274 q 456 1206 468 1213 q 431 1199 443 1199 q 407 1206 418 1199 q 391 1222 397 1211 q 385 1243 385 1232 q 394 1274 385 1260 q 475 1342 429 1318 q 571 1367 521 1367 q 636 1356 608 1367 q 700 1322 664 1344 q 748 1296 732 1303 q 785 1289 764 1289 q 853 1317 828 1289 q 896 1340 874 1340 q 918 1333 907 1340 q 943 1294 943 1321 q 932 1264 943 1279 q 786 1196 876 1196 z "},"Ȭ":{"ha":1279,"x_min":86,"x_max":1194,"o":"m 640 -14 q 356 58 482 -14 q 158 258 229 131 q 86 543 86 385 q 158 828 86 701 q 356 1026 229 954 q 640 1099 482 1099 q 924 1026 797 1099 q 1123 828 1051 954 q 1194 543 1194 701 q 1123 258 1194 385 q 924 58 1051 131 q 640 -14 797 -14 m 640 89 q 869 149 767 89 q 1029 312 971 208 q 1088 543 1088 415 q 1029 773 1088 669 q 869 936 971 876 q 640 996 767 996 q 410 936 513 996 q 250 773 308 876 q 192 543 192 669 q 250 312 192 415 q 410 149 308 208 q 640 89 513 89 m 786 1196 q 717 1208 747 1196 q 651 1242 686 1221 q 604 1267 622 1260 q 568 1274 586 1274 q 476 1225 517 1274 q 456 1206 468 1213 q 431 1199 443 1199 q 407 1206 418 1199 q 391 1222 397 1211 q 385 1243 385 1232 q 394 1274 385 1260 q 475 1342 429 1318 q 571 1367 521 1367 q 636 1356 608 1367 q 700 1322 664 1344 q 748 1296 732 1303 q 785 1289 764 1289 q 853 1317 828 1289 q 896 1340 874 1340 q 918 1333 907 1340 q 943 1294 943 1321 q 932 1264 943 1279 q 786 1196 876 1196 m 474 1458 q 435 1472 450 1458 q 419 1508 419 1486 q 435 1544 419 1531 q 474 1558 450 1558 l 833 1558 q 872 1544 856 1558 q 888 1508 888 1531 q 872 1472 888 1486 q 833 1458 856 1458 l 474 1458 z "},"Œ":{"ha":1601,"x_min":86,"x_max":1539,"o":"m 1485 104 q 1524 90 1508 104 q 1539 53 1539 75 q 1524 15 1539 31 q 1485 0 1508 0 l 883 0 l 875 0 l 788 -6 q 640 -14 696 -14 q 356 58 482 -14 q 158 258 229 131 q 86 543 86 385 q 158 828 86 701 q 356 1026 229 954 q 640 1099 482 1099 q 789 1092 671 1099 q 908 1085 858 1085 l 1485 1085 q 1524 1069 1508 1085 q 1539 1032 1539 1054 q 1524 995 1539 1010 q 1485 981 1508 981 l 938 981 l 938 597 l 1322 597 q 1361 582 1346 597 q 1376 544 1376 567 q 1360 507 1376 522 q 1322 492 1344 492 l 938 492 l 938 104 l 1485 104 m 192 543 q 250 312 192 415 q 410 149 308 208 q 640 89 513 89 q 829 104 740 89 l 829 981 q 640 996 742 996 q 410 936 513 996 q 250 773 308 876 q 192 543 192 669 z "},"P":{"ha":850,"x_min":139,"x_max":821,"o":"m 193 0 q 154 15 169 0 q 139 54 139 31 l 139 1031 q 154 1069 139 1054 q 193 1085 169 1085 l 471 1085 q 652 1040 572 1085 q 776 915 732 994 q 821 732 821 835 q 776 551 821 631 q 652 428 732 472 q 471 383 572 383 l 247 383 l 247 54 q 232 15 247 31 q 193 0 217 0 m 471 488 q 597 519 542 488 q 684 606 653 550 q 715 732 715 661 q 684 860 715 804 q 597 949 653 917 q 471 981 542 981 l 247 981 l 247 488 l 471 488 z "},"Þ":{"ha":850,"x_min":139,"x_max":821,"o":"m 471 894 q 652 854 572 894 q 776 741 732 814 q 821 574 821 668 q 776 409 821 481 q 652 297 732 338 q 471 257 572 257 l 247 257 l 247 54 q 232 15 247 31 q 193 0 217 0 q 154 15 169 0 q 139 54 139 31 l 139 1031 q 155 1069 139 1054 q 193 1085 171 1085 q 232 1069 217 1085 q 247 1031 247 1054 l 247 894 l 471 894 m 471 351 q 597 381 542 351 q 684 460 653 410 q 715 574 715 511 q 684 689 715 638 q 597 770 653 740 q 471 800 542 800 l 247 800 l 247 351 l 471 351 z "},"Q":{"ha":1279,"x_min":86,"x_max":1194,"o":"m 1124 90 q 1139 54 1139 75 q 1124 17 1139 32 q 1086 0 1107 0 q 1049 17 1065 0 l 975 90 q 820 13 906 40 q 640 -14 735 -14 q 356 58 482 -14 q 158 258 229 131 q 86 543 86 385 q 158 828 86 701 q 356 1026 229 954 q 640 1099 482 1099 q 924 1026 797 1099 q 1123 828 1051 954 q 1194 543 1194 701 q 1158 333 1194 431 q 1053 161 1121 235 l 1124 90 m 640 89 q 897 167 788 89 l 749 315 q 732 353 732 332 q 749 390 732 374 q 785 406 764 406 q 822 390 807 406 l 976 236 q 1058 376 1029 297 q 1088 543 1088 456 q 1029 773 1088 669 q 869 936 971 876 q 640 996 767 996 q 410 936 513 996 q 250 773 308 876 q 192 543 192 669 q 250 312 192 415 q 410 149 308 208 q 640 89 513 89 z "},"R":{"ha":858,"x_min":139,"x_max":829,"o":"m 817 83 q 829 46 829 63 q 814 13 829 25 q 774 0 799 0 q 746 7 757 0 q 726 28 735 14 l 476 425 l 453 425 l 247 425 l 247 54 q 232 15 247 31 q 193 0 217 0 q 154 15 169 0 q 139 54 139 31 l 139 1031 q 154 1069 139 1054 q 193 1085 169 1085 l 453 1085 q 633 1042 554 1085 q 758 924 713 1000 q 803 750 803 847 q 745 563 803 643 q 589 447 688 482 l 817 83 m 453 529 q 578 558 522 529 q 666 636 635 586 q 697 750 697 686 q 666 869 697 817 q 579 951 635 922 q 453 981 524 981 l 247 981 l 247 529 l 453 529 z "},"Ŕ":{"ha":858,"x_min":139,"x_max":829,"o":"m 817 83 q 829 46 829 63 q 814 13 829 25 q 774 0 799 0 q 746 7 757 0 q 726 28 735 14 l 476 425 l 453 425 l 247 425 l 247 54 q 232 15 247 31 q 193 0 217 0 q 154 15 169 0 q 139 54 139 31 l 139 1031 q 154 1069 139 1054 q 193 1085 169 1085 l 453 1085 q 633 1042 554 1085 q 758 924 713 1000 q 803 750 803 847 q 745 563 803 643 q 589 447 688 482 l 817 83 m 453 529 q 578 558 522 529 q 666 636 635 586 q 697 750 697 686 q 666 869 697 817 q 579 951 635 922 q 453 981 524 981 l 247 981 l 247 529 l 453 529 m 438 1200 q 399 1216 414 1200 q 383 1254 383 1232 q 396 1290 383 1276 l 553 1447 q 590 1463 568 1463 q 629 1447 614 1463 q 644 1407 644 1431 q 629 1371 644 1385 l 474 1214 q 438 1200 460 1200 z "},"Ř":{"ha":858,"x_min":139,"x_max":829,"o":"m 817 83 q 829 46 829 63 q 814 13 829 25 q 774 0 799 0 q 746 7 757 0 q 726 28 735 14 l 476 425 l 453 425 l 247 425 l 247 54 q 232 15 247 31 q 193 0 217 0 q 154 15 169 0 q 139 54 139 31 l 139 1031 q 154 1069 139 1054 q 193 1085 169 1085 l 453 1085 q 633 1042 554 1085 q 758 924 713 1000 q 803 750 803 847 q 745 563 803 643 q 589 447 688 482 l 817 83 m 453 529 q 578 558 522 529 q 666 636 635 586 q 697 750 697 686 q 666 869 697 817 q 579 951 635 922 q 453 981 524 981 l 247 981 l 247 529 l 453 529 m 447 1213 q 421 1219 429 1213 l 257 1328 q 231 1374 231 1346 q 242 1403 231 1392 q 274 1414 254 1414 q 318 1399 294 1414 l 447 1311 l 576 1397 q 622 1414 600 1414 q 653 1402 642 1414 q 664 1374 664 1390 q 638 1328 664 1346 l 475 1219 q 447 1213 465 1213 z "},"Ŗ":{"ha":858,"x_min":139,"x_max":829,"o":"m 817 83 q 829 46 829 63 q 814 13 829 25 q 774 0 799 0 q 746 7 757 0 q 726 28 735 14 l 476 425 l 453 425 l 247 425 l 247 54 q 232 15 247 31 q 193 0 217 0 q 154 15 169 0 q 139 54 139 31 l 139 1031 q 154 1069 139 1054 q 193 1085 169 1085 l 453 1085 q 633 1042 554 1085 q 758 924 713 1000 q 803 750 803 847 q 745 563 803 643 q 589 447 688 482 l 817 83 m 453 529 q 578 558 522 529 q 666 636 635 586 q 697 750 697 686 q 666 869 697 817 q 579 951 635 922 q 453 981 524 981 l 247 981 l 247 529 l 453 529 m 456 -331 q 341 -303 394 -331 q 288 -232 288 -275 q 299 -203 288 -214 q 328 -193 310 -193 q 354 -199 343 -193 q 381 -217 365 -204 q 415 -241 397 -232 q 463 -250 433 -250 q 543 -190 543 -250 q 519 -149 543 -164 q 447 -133 496 -133 q 401 -124 418 -133 q 385 -96 385 -114 q 401 -65 385 -76 q 450 -54 418 -54 q 576 -92 526 -54 q 625 -190 625 -131 q 576 -292 625 -254 q 456 -331 528 -331 z "},"Ȑ":{"ha":858,"x_min":139,"x_max":829,"o":"m 817 83 q 829 46 829 63 q 814 13 829 25 q 774 0 799 0 q 746 7 757 0 q 726 28 735 14 l 476 425 l 453 425 l 247 425 l 247 54 q 232 15 247 31 q 193 0 217 0 q 154 15 169 0 q 139 54 139 31 l 139 1031 q 154 1069 139 1054 q 193 1085 169 1085 l 453 1085 q 633 1042 554 1085 q 758 924 713 1000 q 803 750 803 847 q 745 563 803 643 q 589 447 688 482 l 817 83 m 453 529 q 578 558 522 529 q 666 636 635 586 q 697 750 697 686 q 666 869 697 817 q 579 951 635 922 q 453 981 524 981 l 247 981 l 247 529 l 453 529 m 386 1192 q 347 1218 360 1192 l 263 1397 q 258 1417 258 1408 q 274 1455 258 1439 q 313 1471 289 1471 q 343 1461 329 1471 q 361 1438 357 1451 l 422 1249 q 425 1232 425 1238 q 413 1203 425 1214 q 386 1192 401 1192 m 596 1192 q 557 1218 569 1192 l 472 1397 q 468 1417 468 1408 q 484 1455 468 1439 q 524 1471 500 1471 q 554 1461 540 1471 q 574 1438 568 1451 l 632 1249 q 635 1232 635 1243 q 623 1203 635 1214 q 596 1192 611 1192 z "},"Ȓ":{"ha":858,"x_min":139,"x_max":829,"o":"m 817 83 q 829 46 829 63 q 814 13 829 25 q 774 0 799 0 q 746 7 757 0 q 726 28 735 14 l 476 425 l 453 425 l 247 425 l 247 54 q 232 15 247 31 q 193 0 217 0 q 154 15 169 0 q 139 54 139 31 l 139 1031 q 154 1069 139 1054 q 193 1085 169 1085 l 453 1085 q 633 1042 554 1085 q 758 924 713 1000 q 803 750 803 847 q 745 563 803 643 q 589 447 688 482 l 817 83 m 453 529 q 578 558 522 529 q 666 636 635 586 q 697 750 697 686 q 666 869 697 817 q 579 951 635 922 q 453 981 524 981 l 247 981 l 247 529 l 453 529 m 446 1417 q 598 1371 535 1417 q 664 1254 661 1325 q 649 1216 664 1232 q 613 1200 635 1200 q 575 1214 590 1200 q 560 1250 560 1228 q 528 1305 560 1283 q 446 1326 497 1326 q 365 1304 397 1326 q 333 1250 333 1282 q 318 1215 333 1229 q 282 1200 303 1200 q 244 1216 260 1200 q 229 1256 229 1232 q 258 1337 229 1300 q 338 1395 288 1374 q 446 1417 388 1417 z "},"S":{"ha":919,"x_min":86,"x_max":832,"o":"m 472 -14 q 238 42 340 -14 q 92 194 136 99 q 86 217 86 204 q 101 249 86 236 q 140 263 115 263 q 172 253 157 263 q 193 228 186 244 q 299 127 225 165 q 472 89 374 89 q 656 144 586 89 q 725 297 725 199 q 660 444 725 385 q 467 521 596 504 q 213 622 306 540 q 121 821 121 703 q 166 967 121 904 q 291 1065 211 1031 q 472 1099 371 1099 q 665 1050 582 1099 q 796 924 749 1001 q 806 890 806 908 q 781 849 806 864 q 756 843 769 843 q 727 851 740 843 q 706 872 714 858 q 471 996 628 994 q 293 949 358 996 q 228 814 228 901 q 490 617 228 651 q 747 511 663 592 q 832 299 832 431 q 785 131 832 201 q 656 23 738 60 q 472 -14 574 -14 z "},"Ś":{"ha":919,"x_min":86,"x_max":832,"o":"m 472 -14 q 238 42 340 -14 q 92 194 136 99 q 86 217 86 204 q 101 249 86 236 q 140 263 115 263 q 172 253 157 263 q 193 228 186 244 q 299 127 225 165 q 472 89 374 89 q 656 144 586 89 q 725 297 725 199 q 660 444 725 385 q 467 521 596 504 q 213 622 306 540 q 121 821 121 703 q 166 967 121 904 q 291 1065 211 1031 q 472 1099 371 1099 q 665 1050 582 1099 q 796 924 749 1001 q 806 890 806 908 q 781 849 806 864 q 756 843 769 843 q 727 851 740 843 q 706 872 714 858 q 471 996 628 994 q 293 949 358 996 q 228 814 228 901 q 490 617 228 651 q 747 511 663 592 q 832 299 832 431 q 785 131 832 201 q 656 23 738 60 q 472 -14 574 -14 m 450 1200 q 411 1216 426 1200 q 396 1254 396 1232 q 408 1290 396 1276 l 565 1447 q 603 1463 581 1463 q 642 1447 626 1463 q 657 1407 657 1431 q 642 1371 657 1385 l 486 1214 q 450 1200 472 1200 z "},"Š":{"ha":919,"x_min":86,"x_max":832,"o":"m 472 -14 q 238 42 340 -14 q 92 194 136 99 q 86 217 86 204 q 101 249 86 236 q 140 263 115 263 q 172 253 157 263 q 193 228 186 244 q 299 127 225 165 q 472 89 374 89 q 656 144 586 89 q 725 297 725 199 q 660 444 725 385 q 467 521 596 504 q 213 622 306 540 q 121 821 121 703 q 166 967 121 904 q 291 1065 211 1031 q 472 1099 371 1099 q 665 1050 582 1099 q 796 924 749 1001 q 806 890 806 908 q 781 849 806 864 q 756 843 769 843 q 727 851 740 843 q 706 872 714 858 q 471 996 628 994 q 293 949 358 996 q 228 814 228 901 q 490 617 228 651 q 747 511 663 592 q 832 299 832 431 q 785 131 832 201 q 656 23 738 60 q 472 -14 574 -14 m 460 1213 q 433 1219 442 1213 l 269 1328 q 243 1374 243 1346 q 255 1403 243 1392 q 286 1414 267 1414 q 331 1399 307 1414 l 460 1311 l 589 1397 q 635 1414 613 1414 q 665 1402 654 1414 q 676 1374 676 1390 q 650 1328 676 1346 l 488 1219 q 460 1213 478 1213 z "},"Ş":{"ha":919,"x_min":86,"x_max":832,"o":"m 832 299 q 749 87 832 168 q 532 -11 665 6 l 515 -50 q 615 -100 585 -68 q 644 -179 644 -132 q 619 -251 644 -218 q 551 -304 594 -285 q 456 -324 508 -324 q 335 -293 383 -324 q 286 -221 286 -262 q 301 -185 286 -200 q 338 -169 317 -169 q 386 -199 364 -169 q 457 -232 408 -232 q 510 -218 489 -232 q 531 -179 531 -204 q 514 -137 531 -153 q 458 -112 497 -122 q 418 -97 432 -107 q 404 -68 404 -86 q 411 -36 404 -57 l 421 -11 q 219 53 306 -1 q 92 194 132 108 q 86 217 86 204 q 101 249 86 236 q 140 263 115 263 q 172 253 157 263 q 193 228 186 244 q 299 127 225 165 q 472 89 374 89 q 656 144 586 89 q 725 297 725 199 q 660 444 725 385 q 467 521 596 504 q 213 622 306 540 q 121 821 121 703 q 166 967 121 904 q 291 1065 211 1031 q 472 1099 371 1099 q 665 1050 582 1099 q 796 924 749 1001 q 806 890 806 908 q 781 849 806 864 q 756 843 769 843 q 727 851 740 843 q 706 872 714 858 q 471 996 628 994 q 293 949 358 996 q 228 814 228 901 q 490 617 228 651 q 747 511 663 592 q 832 299 832 431 z "},"Ŝ":{"ha":919,"x_min":86,"x_max":832,"o":"m 472 -14 q 238 42 340 -14 q 92 194 136 99 q 86 217 86 204 q 101 249 86 236 q 140 263 115 263 q 172 253 157 263 q 193 228 186 244 q 299 127 225 165 q 472 89 374 89 q 656 144 586 89 q 725 297 725 199 q 660 444 725 385 q 467 521 596 504 q 213 622 306 540 q 121 821 121 703 q 166 967 121 904 q 291 1065 211 1031 q 472 1099 371 1099 q 665 1050 582 1099 q 796 924 749 1001 q 806 890 806 908 q 781 849 806 864 q 756 843 769 843 q 727 851 740 843 q 706 872 714 858 q 471 996 628 994 q 293 949 358 996 q 228 814 228 901 q 490 617 228 651 q 747 511 663 592 q 832 299 832 431 q 785 131 832 201 q 656 23 738 60 q 472 -14 574 -14 m 299 1206 q 259 1219 275 1206 q 243 1254 243 1232 q 269 1301 243 1283 l 433 1410 q 460 1417 444 1417 q 488 1410 474 1417 l 650 1301 q 676 1254 676 1283 q 661 1219 676 1233 q 622 1206 646 1206 q 589 1217 607 1206 l 460 1306 l 331 1217 q 299 1206 315 1206 z "},"Ș":{"ha":919,"x_min":86,"x_max":832,"o":"m 472 -14 q 238 42 340 -14 q 92 194 136 99 q 86 217 86 204 q 101 249 86 236 q 140 263 115 263 q 172 253 157 263 q 193 228 186 244 q 299 127 225 165 q 472 89 374 89 q 656 144 586 89 q 725 297 725 199 q 660 444 725 385 q 467 521 596 504 q 213 622 306 540 q 121 821 121 703 q 166 967 121 904 q 291 1065 211 1031 q 472 1099 371 1099 q 665 1050 582 1099 q 796 924 749 1001 q 806 890 806 908 q 781 849 806 864 q 756 843 769 843 q 727 851 740 843 q 706 872 714 858 q 471 996 628 994 q 293 949 358 996 q 228 814 228 901 q 490 617 228 651 q 747 511 663 592 q 832 299 832 431 q 785 131 832 201 q 656 23 738 60 q 472 -14 574 -14 m 468 -331 q 353 -303 407 -331 q 300 -232 300 -275 q 311 -203 300 -214 q 340 -193 322 -193 q 367 -199 356 -193 q 393 -217 378 -204 q 428 -241 410 -232 q 475 -250 446 -250 q 556 -190 556 -250 q 532 -149 556 -164 q 460 -133 508 -133 q 414 -124 431 -133 q 397 -96 397 -114 q 414 -65 397 -76 q 463 -54 431 -54 q 588 -92 539 -54 q 638 -190 638 -131 q 589 -292 638 -254 q 468 -331 540 -331 z "},"ẞ":{"ha":965,"x_min":139,"x_max":889,"o":"m 589 654 q 744 606 676 649 q 851 492 813 564 q 889 329 889 419 q 845 158 889 235 q 725 38 801 82 q 554 -6 649 -6 q 383 35 458 -6 q 362 55 368 44 q 356 86 356 65 q 369 119 356 106 q 404 132 383 132 q 426 128 417 132 q 490 105 465 111 q 554 99 515 99 q 672 128 619 99 q 753 210 724 157 q 782 329 782 263 q 720 491 782 429 q 554 553 658 553 l 496 553 q 460 567 475 553 q 446 604 446 582 q 463 643 446 629 l 689 896 q 601 960 657 936 q 481 985 544 985 q 311 921 375 985 q 247 740 247 857 l 247 49 q 232 14 247 28 q 192 0 217 0 q 152 14 165 0 q 139 49 139 28 l 139 758 q 183 935 139 861 q 306 1047 228 1008 q 482 1085 383 1085 q 616 1061 551 1085 q 725 1000 681 1038 q 782 921 769 963 q 785 897 785 904 q 756 832 785 864 l 589 654 z "},"Ə":{"ha":1164,"x_min":86,"x_max":1079,"o":"m 535 1099 q 815 1026 690 1099 q 1009 826 939 954 q 1079 538 1079 699 q 1015 253 1079 379 q 839 57 951 128 q 585 -14 726 -14 q 324 56 438 -14 q 149 248 211 125 q 86 525 86 371 q 106 574 86 556 q 158 593 126 593 l 971 593 q 900 803 960 711 q 744 945 840 894 q 529 996 649 996 q 386 974 454 996 q 261 910 318 951 q 225 897 244 897 q 189 913 203 897 q 176 946 176 928 q 192 981 176 968 q 345 1067 258 1036 q 535 1099 432 1099 m 585 89 q 776 142 690 89 q 913 288 861 194 q 972 497 965 381 l 192 497 q 248 288 196 381 q 388 142 300 194 q 585 89 476 89 z "},"T":{"ha":910,"x_min":21,"x_max":889,"o":"m 839 1085 q 875 1071 861 1085 q 889 1035 889 1057 q 875 1000 889 1014 q 839 986 861 986 l 508 986 l 508 54 q 493 16 508 32 q 454 0 478 0 q 416 16 432 0 q 400 54 400 32 l 400 986 l 71 986 q 35 1000 49 986 q 21 1035 21 1014 q 35 1071 21 1057 q 71 1085 49 1085 l 839 1085 z "},"Ŧ":{"ha":910,"x_min":21,"x_max":889,"o":"m 839 1085 q 875 1071 861 1085 q 889 1035 889 1057 q 875 1000 889 1014 q 839 986 861 986 l 508 986 l 508 590 l 681 590 q 717 577 703 590 q 732 543 732 564 q 717 509 732 522 q 681 496 703 496 l 508 496 l 508 54 q 493 16 508 32 q 454 0 478 0 q 416 16 432 0 q 400 54 400 32 l 400 496 l 236 496 q 199 508 213 496 q 185 543 185 521 q 199 578 185 565 q 236 590 213 590 l 400 590 l 400 986 l 71 986 q 35 1000 49 986 q 21 1035 21 1014 q 35 1071 21 1057 q 71 1085 49 1085 l 839 1085 z "},"Ť":{"ha":910,"x_min":21,"x_max":889,"o":"m 839 1085 q 875 1071 861 1085 q 889 1035 889 1057 q 875 1000 889 1014 q 839 986 861 986 l 508 986 l 508 54 q 493 16 508 32 q 454 0 478 0 q 416 16 432 0 q 400 54 400 32 l 400 986 l 71 986 q 35 1000 49 986 q 21 1035 21 1014 q 35 1071 21 1057 q 71 1085 49 1085 l 839 1085 m 454 1213 q 428 1219 436 1213 l 264 1328 q 238 1374 238 1346 q 249 1403 238 1392 q 281 1414 261 1414 q 325 1399 301 1414 l 454 1311 l 583 1397 q 629 1414 607 1414 q 660 1402 649 1414 q 671 1374 671 1390 q 644 1328 671 1346 l 482 1219 q 454 1213 472 1213 z "},"Ţ":{"ha":910,"x_min":21,"x_max":889,"o":"m 839 1085 q 875 1071 861 1085 q 889 1035 889 1057 q 875 1000 889 1014 q 839 986 861 986 l 508 986 l 508 60 q 528 44 521 54 q 535 21 535 33 q 531 0 535 11 l 510 -50 q 609 -100 579 -68 q 639 -179 639 -132 q 614 -251 639 -218 q 546 -304 589 -285 q 450 -324 503 -324 q 329 -293 378 -324 q 281 -221 281 -262 q 296 -185 281 -200 q 332 -169 311 -169 q 381 -199 358 -169 q 451 -232 403 -232 q 504 -218 483 -232 q 525 -179 525 -204 q 508 -137 525 -153 q 453 -112 492 -122 q 413 -97 426 -107 q 399 -68 399 -86 q 406 -36 399 -57 l 424 10 q 400 54 400 26 l 400 986 l 71 986 q 35 1000 49 986 q 21 1035 21 1014 q 35 1071 21 1057 q 71 1085 49 1085 l 839 1085 z "},"Ț":{"ha":910,"x_min":21,"x_max":889,"o":"m 839 1085 q 875 1071 861 1085 q 889 1035 889 1057 q 875 1000 889 1014 q 839 986 861 986 l 508 986 l 508 54 q 493 16 508 32 q 454 0 478 0 q 416 16 432 0 q 400 54 400 32 l 400 986 l 71 986 q 35 1000 49 986 q 21 1035 21 1014 q 35 1071 21 1057 q 71 1085 49 1085 l 839 1085 m 463 -331 q 348 -303 401 -331 q 294 -232 294 -275 q 306 -203 294 -214 q 335 -193 317 -193 q 361 -199 350 -193 q 388 -217 372 -204 q 422 -241 404 -232 q 469 -250 440 -250 q 550 -190 550 -250 q 526 -149 550 -164 q 454 -133 503 -133 q 408 -124 425 -133 q 392 -96 392 -114 q 408 -65 392 -76 q 457 -54 425 -54 q 583 -92 533 -54 q 632 -190 632 -131 q 583 -292 632 -254 q 463 -331 535 -331 z "},"U":{"ha":1138,"x_min":139,"x_max":999,"o":"m 571 -22 q 347 26 446 -22 q 194 162 249 75 q 139 358 139 249 l 139 1031 q 154 1069 139 1054 q 193 1085 169 1085 q 232 1069 217 1085 q 247 1031 247 1054 l 247 358 q 288 215 247 278 q 403 116 329 151 q 571 81 476 81 q 736 116 664 81 q 849 215 808 151 q 890 358 890 278 l 890 1031 q 906 1069 890 1054 q 944 1085 921 1085 q 983 1069 968 1085 q 999 1031 999 1054 l 999 358 q 944 162 999 249 q 792 26 889 75 q 571 -22 694 -22 z "},"Ú":{"ha":1138,"x_min":139,"x_max":999,"o":"m 571 -22 q 347 26 446 -22 q 194 162 249 75 q 139 358 139 249 l 139 1031 q 154 1069 139 1054 q 193 1085 169 1085 q 232 1069 217 1085 q 247 1031 247 1054 l 247 358 q 288 215 247 278 q 403 116 329 151 q 571 81 476 81 q 736 116 664 81 q 849 215 808 151 q 890 358 890 278 l 890 1031 q 906 1069 890 1054 q 944 1085 921 1085 q 983 1069 968 1085 q 999 1031 999 1054 l 999 358 q 944 162 999 249 q 792 26 889 75 q 571 -22 694 -22 m 560 1200 q 521 1216 536 1200 q 506 1254 506 1232 q 518 1290 506 1276 l 675 1447 q 713 1463 690 1463 q 751 1447 736 1463 q 767 1407 767 1431 q 751 1371 767 1385 l 596 1214 q 560 1200 582 1200 z "},"Ŭ":{"ha":1138,"x_min":139,"x_max":999,"o":"m 571 -22 q 347 26 446 -22 q 194 162 249 75 q 139 358 139 249 l 139 1031 q 154 1069 139 1054 q 193 1085 169 1085 q 232 1069 217 1085 q 247 1031 247 1054 l 247 358 q 288 215 247 278 q 403 116 329 151 q 571 81 476 81 q 736 116 664 81 q 849 215 808 151 q 890 358 890 278 l 890 1031 q 906 1069 890 1054 q 944 1085 921 1085 q 983 1069 968 1085 q 999 1031 999 1054 l 999 358 q 944 162 999 249 q 792 26 889 75 q 571 -22 694 -22 m 568 1201 q 460 1223 510 1201 q 381 1281 410 1244 q 351 1363 351 1318 q 367 1402 351 1386 q 404 1418 382 1418 q 440 1403 425 1418 q 456 1368 456 1389 q 488 1314 456 1336 q 568 1292 519 1292 q 651 1313 619 1292 q 682 1368 682 1335 q 697 1404 682 1390 q 735 1418 713 1418 q 772 1402 757 1418 q 786 1364 786 1386 q 720 1247 783 1293 q 568 1201 657 1201 z "},"Û":{"ha":1138,"x_min":139,"x_max":999,"o":"m 571 -22 q 347 26 446 -22 q 194 162 249 75 q 139 358 139 249 l 139 1031 q 154 1069 139 1054 q 193 1085 169 1085 q 232 1069 217 1085 q 247 1031 247 1054 l 247 358 q 288 215 247 278 q 403 116 329 151 q 571 81 476 81 q 736 116 664 81 q 849 215 808 151 q 890 358 890 278 l 890 1031 q 906 1069 890 1054 q 944 1085 921 1085 q 983 1069 968 1085 q 999 1031 999 1054 l 999 358 q 944 162 999 249 q 792 26 889 75 q 571 -22 694 -22 m 408 1206 q 369 1219 385 1206 q 353 1254 353 1232 q 379 1301 353 1283 l 543 1410 q 569 1417 554 1417 q 597 1410 583 1417 l 760 1301 q 786 1254 786 1283 q 771 1219 786 1233 q 732 1206 756 1206 q 699 1217 717 1206 l 569 1306 l 440 1217 q 408 1206 425 1206 z "},"Ȕ":{"ha":1138,"x_min":139,"x_max":999,"o":"m 571 -22 q 347 26 446 -22 q 194 162 249 75 q 139 358 139 249 l 139 1031 q 154 1069 139 1054 q 193 1085 169 1085 q 232 1069 217 1085 q 247 1031 247 1054 l 247 358 q 288 215 247 278 q 403 116 329 151 q 571 81 476 81 q 736 116 664 81 q 849 215 808 151 q 890 358 890 278 l 890 1031 q 906 1069 890 1054 q 944 1085 921 1085 q 983 1069 968 1085 q 999 1031 999 1054 l 999 358 q 944 162 999 249 q 792 26 889 75 q 571 -22 694 -22 m 508 1192 q 469 1218 482 1192 l 385 1397 q 381 1417 381 1408 q 396 1455 381 1439 q 435 1471 411 1471 q 465 1461 451 1471 q 483 1438 479 1451 l 544 1249 q 547 1232 547 1238 q 535 1203 547 1214 q 508 1192 524 1192 m 718 1192 q 679 1218 692 1192 l 594 1397 q 590 1417 590 1408 q 606 1455 590 1439 q 646 1471 622 1471 q 676 1461 663 1471 q 696 1438 690 1451 l 754 1249 q 757 1232 757 1243 q 745 1203 757 1214 q 718 1192 733 1192 z "},"Ü":{"ha":1138,"x_min":139,"x_max":999,"o":"m 571 -22 q 347 26 446 -22 q 194 162 249 75 q 139 358 139 249 l 139 1031 q 154 1069 139 1054 q 193 1085 169 1085 q 232 1069 217 1085 q 247 1031 247 1054 l 247 358 q 288 215 247 278 q 403 116 329 151 q 571 81 476 81 q 736 116 664 81 q 849 215 808 151 q 890 358 890 278 l 890 1031 q 906 1069 890 1054 q 944 1085 921 1085 q 983 1069 968 1085 q 999 1031 999 1054 l 999 358 q 944 162 999 249 q 792 26 889 75 q 571 -22 694 -22 m 425 1224 q 371 1246 393 1224 q 349 1300 349 1268 q 371 1354 349 1332 q 425 1376 393 1376 q 479 1354 457 1376 q 501 1300 501 1332 q 479 1246 501 1268 q 425 1224 457 1224 m 715 1224 q 661 1246 683 1224 q 639 1300 639 1268 q 661 1354 639 1332 q 715 1376 683 1376 q 769 1354 747 1376 q 792 1300 792 1332 q 769 1246 792 1268 q 715 1224 747 1224 z "},"Ụ":{"ha":1138,"x_min":139,"x_max":999,"o":"m 571 -22 q 347 26 446 -22 q 194 162 249 75 q 139 358 139 249 l 139 1031 q 154 1069 139 1054 q 193 1085 169 1085 q 232 1069 217 1085 q 247 1031 247 1054 l 247 358 q 288 215 247 278 q 403 116 329 151 q 571 81 476 81 q 736 116 664 81 q 849 215 808 151 q 890 358 890 278 l 890 1031 q 906 1069 890 1054 q 944 1085 921 1085 q 983 1069 968 1085 q 999 1031 999 1054 l 999 358 q 944 162 999 249 q 792 26 889 75 q 571 -22 694 -22 m 568 -290 q 515 -268 536 -290 q 493 -214 493 -246 q 515 -160 493 -181 q 569 -139 538 -139 q 622 -160 600 -139 q 644 -214 644 -181 q 622 -268 644 -246 q 568 -290 600 -290 z "},"Ù":{"ha":1138,"x_min":139,"x_max":999,"o":"m 571 -22 q 347 26 446 -22 q 194 162 249 75 q 139 358 139 249 l 139 1031 q 154 1069 139 1054 q 193 1085 169 1085 q 232 1069 217 1085 q 247 1031 247 1054 l 247 358 q 288 215 247 278 q 403 116 329 151 q 571 81 476 81 q 736 116 664 81 q 849 215 808 151 q 890 358 890 278 l 890 1031 q 906 1069 890 1054 q 944 1085 921 1085 q 983 1069 968 1085 q 999 1031 999 1054 l 999 358 q 944 162 999 249 q 792 26 889 75 q 571 -22 694 -22 m 568 1208 q 532 1224 547 1208 l 375 1379 q 361 1417 361 1393 q 376 1456 361 1440 q 414 1472 392 1472 q 453 1456 436 1472 l 608 1299 q 622 1264 622 1286 q 607 1224 622 1240 q 568 1208 592 1208 z "},"Ủ":{"ha":1138,"x_min":139,"x_max":999,"o":"m 571 -22 q 347 26 446 -22 q 194 162 249 75 q 139 358 139 249 l 139 1031 q 154 1069 139 1054 q 193 1085 169 1085 q 232 1069 217 1085 q 247 1031 247 1054 l 247 358 q 288 215 247 278 q 403 116 329 151 q 571 81 476 81 q 736 116 664 81 q 849 215 808 151 q 890 358 890 278 l 890 1031 q 906 1069 890 1054 q 944 1085 921 1085 q 983 1069 968 1085 q 999 1031 999 1054 l 999 358 q 944 162 999 249 q 792 26 889 75 q 571 -22 694 -22 m 568 1156 q 533 1170 547 1156 q 518 1206 518 1185 l 518 1244 q 563 1299 518 1289 l 597 1306 q 654 1367 654 1319 q 635 1414 654 1397 q 585 1431 615 1431 q 524 1408 553 1431 q 489 1396 511 1396 q 458 1408 471 1396 q 444 1440 444 1421 q 461 1478 444 1464 q 583 1521 515 1521 q 700 1480 654 1521 q 746 1374 746 1439 q 707 1278 746 1313 q 606 1235 668 1244 l 617 1217 q 603 1172 617 1189 q 568 1156 589 1156 z "},"Ư":{"ha":1138,"x_min":139,"x_max":1164,"o":"m 1114 1243 q 1151 1226 1138 1243 q 1164 1182 1164 1208 l 1164 1161 q 1119 1036 1164 1086 q 1006 986 1074 986 l 999 986 l 999 358 q 944 162 999 249 q 792 26 889 75 q 571 -22 694 -22 q 347 26 446 -22 q 194 162 249 75 q 139 358 139 249 l 139 1031 q 154 1069 139 1054 q 193 1085 169 1085 q 232 1069 217 1085 q 247 1031 247 1054 l 247 358 q 288 215 247 278 q 403 116 329 151 q 571 81 476 81 q 736 116 664 81 q 849 215 808 151 q 890 358 890 278 l 890 1031 q 906 1069 890 1054 q 944 1085 921 1085 l 1006 1085 q 1048 1106 1031 1085 q 1065 1161 1065 1128 l 1065 1190 q 1078 1228 1065 1214 q 1114 1243 1092 1243 z "},"Ứ":{"ha":1138,"x_min":139,"x_max":1164,"o":"m 1114 1243 q 1151 1226 1138 1243 q 1164 1182 1164 1208 l 1164 1161 q 1119 1036 1164 1086 q 1006 986 1074 986 l 999 986 l 999 358 q 944 162 999 249 q 792 26 889 75 q 571 -22 694 -22 q 347 26 446 -22 q 194 162 249 75 q 139 358 139 249 l 139 1031 q 154 1069 139 1054 q 193 1085 169 1085 q 232 1069 217 1085 q 247 1031 247 1054 l 247 358 q 288 215 247 278 q 403 116 329 151 q 571 81 476 81 q 736 116 664 81 q 849 215 808 151 q 890 358 890 278 l 890 1031 q 906 1069 890 1054 q 944 1085 921 1085 l 1006 1085 q 1048 1106 1031 1085 q 1065 1161 1065 1128 l 1065 1190 q 1078 1228 1065 1214 q 1114 1243 1092 1243 m 560 1200 q 521 1216 536 1200 q 506 1254 506 1232 q 518 1290 506 1276 l 675 1447 q 713 1463 690 1463 q 751 1447 736 1463 q 767 1407 767 1431 q 751 1371 767 1385 l 596 1214 q 560 1200 582 1200 z "},"Ự":{"ha":1138,"x_min":139,"x_max":1164,"o":"m 1114 1243 q 1151 1226 1138 1243 q 1164 1182 1164 1208 l 1164 1161 q 1119 1036 1164 1086 q 1006 986 1074 986 l 999 986 l 999 358 q 944 162 999 249 q 792 26 889 75 q 571 -22 694 -22 q 347 26 446 -22 q 194 162 249 75 q 139 358 139 249 l 139 1031 q 154 1069 139 1054 q 193 1085 169 1085 q 232 1069 217 1085 q 247 1031 247 1054 l 247 358 q 288 215 247 278 q 403 116 329 151 q 571 81 476 81 q 736 116 664 81 q 849 215 808 151 q 890 358 890 278 l 890 1031 q 906 1069 890 1054 q 944 1085 921 1085 l 1006 1085 q 1048 1106 1031 1085 q 1065 1161 1065 1128 l 1065 1190 q 1078 1228 1065 1214 q 1114 1243 1092 1243 m 568 -290 q 515 -268 536 -290 q 493 -214 493 -246 q 515 -160 493 -181 q 569 -139 538 -139 q 622 -160 600 -139 q 644 -214 644 -181 q 622 -268 644 -246 q 568 -290 600 -290 z "},"Ừ":{"ha":1138,"x_min":139,"x_max":1164,"o":"m 1114 1243 q 1151 1226 1138 1243 q 1164 1182 1164 1208 l 1164 1161 q 1119 1036 1164 1086 q 1006 986 1074 986 l 999 986 l 999 358 q 944 162 999 249 q 792 26 889 75 q 571 -22 694 -22 q 347 26 446 -22 q 194 162 249 75 q 139 358 139 249 l 139 1031 q 154 1069 139 1054 q 193 1085 169 1085 q 232 1069 217 1085 q 247 1031 247 1054 l 247 358 q 288 215 247 278 q 403 116 329 151 q 571 81 476 81 q 736 116 664 81 q 849 215 808 151 q 890 358 890 278 l 890 1031 q 906 1069 890 1054 q 944 1085 921 1085 l 1006 1085 q 1048 1106 1031 1085 q 1065 1161 1065 1128 l 1065 1190 q 1078 1228 1065 1214 q 1114 1243 1092 1243 m 568 1208 q 532 1224 547 1208 l 375 1379 q 361 1417 361 1393 q 376 1456 361 1440 q 414 1472 392 1472 q 453 1456 436 1472 l 608 1299 q 622 1264 622 1286 q 607 1224 622 1240 q 568 1208 592 1208 z "},"Ử":{"ha":1138,"x_min":139,"x_max":1164,"o":"m 1114 1243 q 1151 1226 1138 1243 q 1164 1182 1164 1208 l 1164 1161 q 1119 1036 1164 1086 q 1006 986 1074 986 l 999 986 l 999 358 q 944 162 999 249 q 792 26 889 75 q 571 -22 694 -22 q 347 26 446 -22 q 194 162 249 75 q 139 358 139 249 l 139 1031 q 154 1069 139 1054 q 193 1085 169 1085 q 232 1069 217 1085 q 247 1031 247 1054 l 247 358 q 288 215 247 278 q 403 116 329 151 q 571 81 476 81 q 736 116 664 81 q 849 215 808 151 q 890 358 890 278 l 890 1031 q 906 1069 890 1054 q 944 1085 921 1085 l 1006 1085 q 1048 1106 1031 1085 q 1065 1161 1065 1128 l 1065 1190 q 1078 1228 1065 1214 q 1114 1243 1092 1243 m 568 1156 q 533 1170 547 1156 q 518 1206 518 1185 l 518 1244 q 563 1299 518 1289 l 597 1306 q 654 1367 654 1319 q 635 1414 654 1397 q 585 1431 615 1431 q 524 1408 553 1431 q 489 1396 511 1396 q 458 1408 471 1396 q 444 1440 444 1421 q 461 1478 444 1464 q 583 1521 515 1521 q 700 1480 654 1521 q 746 1374 746 1439 q 707 1278 746 1313 q 606 1235 668 1244 l 617 1217 q 603 1172 617 1189 q 568 1156 589 1156 z "},"Ữ":{"ha":1138,"x_min":139,"x_max":1164,"o":"m 1114 1243 q 1151 1226 1138 1243 q 1164 1182 1164 1208 l 1164 1161 q 1119 1036 1164 1086 q 1006 986 1074 986 l 999 986 l 999 358 q 944 162 999 249 q 792 26 889 75 q 571 -22 694 -22 q 347 26 446 -22 q 194 162 249 75 q 139 358 139 249 l 139 1031 q 154 1069 139 1054 q 193 1085 169 1085 q 232 1069 217 1085 q 247 1031 247 1054 l 247 358 q 288 215 247 278 q 403 116 329 151 q 571 81 476 81 q 736 116 664 81 q 849 215 808 151 q 890 358 890 278 l 890 1031 q 906 1069 890 1054 q 944 1085 921 1085 l 1006 1085 q 1048 1106 1031 1085 q 1065 1161 1065 1128 l 1065 1190 q 1078 1228 1065 1214 q 1114 1243 1092 1243 m 715 1196 q 646 1208 676 1196 q 581 1242 615 1221 q 533 1267 551 1260 q 497 1274 515 1274 q 406 1225 446 1274 q 385 1206 397 1213 q 360 1199 372 1199 q 336 1206 347 1199 q 320 1222 326 1211 q 314 1243 314 1232 q 324 1274 314 1260 q 404 1342 358 1318 q 500 1367 450 1367 q 565 1356 538 1367 q 629 1322 593 1344 q 677 1296 661 1303 q 714 1289 693 1289 q 782 1317 757 1289 q 825 1340 803 1340 q 847 1333 836 1340 q 872 1294 872 1321 q 861 1264 872 1279 q 715 1196 806 1196 z "},"Ű":{"ha":1138,"x_min":139,"x_max":999,"o":"m 571 -22 q 347 26 446 -22 q 194 162 249 75 q 139 358 139 249 l 139 1031 q 154 1069 139 1054 q 193 1085 169 1085 q 232 1069 217 1085 q 247 1031 247 1054 l 247 358 q 288 215 247 278 q 403 116 329 151 q 571 81 476 81 q 736 116 664 81 q 849 215 808 151 q 890 358 890 278 l 890 1031 q 906 1069 890 1054 q 944 1085 921 1085 q 983 1069 968 1085 q 999 1031 999 1054 l 999 358 q 944 162 999 249 q 792 26 889 75 q 571 -22 694 -22 m 461 1192 q 434 1203 446 1192 q 422 1232 422 1214 q 425 1249 422 1243 l 483 1438 q 503 1462 489 1453 q 533 1471 517 1471 q 573 1455 557 1471 q 589 1417 589 1439 q 585 1397 589 1408 l 500 1218 q 461 1192 486 1192 m 671 1192 q 644 1203 656 1192 q 632 1232 632 1214 q 635 1249 632 1238 l 696 1438 q 714 1461 700 1451 q 744 1471 728 1471 q 783 1455 768 1471 q 799 1417 799 1439 q 794 1397 799 1408 l 710 1218 q 671 1192 696 1192 z "},"Ȗ":{"ha":1138,"x_min":139,"x_max":999,"o":"m 571 -22 q 347 26 446 -22 q 194 162 249 75 q 139 358 139 249 l 139 1031 q 154 1069 139 1054 q 193 1085 169 1085 q 232 1069 217 1085 q 247 1031 247 1054 l 247 358 q 288 215 247 278 q 403 116 329 151 q 571 81 476 81 q 736 116 664 81 q 849 215 808 151 q 890 358 890 278 l 890 1031 q 906 1069 890 1054 q 944 1085 921 1085 q 983 1069 968 1085 q 999 1031 999 1054 l 999 358 q 944 162 999 249 q 792 26 889 75 q 571 -22 694 -22 m 568 1417 q 720 1371 657 1417 q 786 1254 783 1325 q 772 1216 786 1232 q 735 1200 757 1200 q 697 1214 713 1200 q 682 1250 682 1228 q 651 1305 682 1283 q 568 1326 619 1326 q 488 1304 519 1326 q 456 1250 456 1282 q 440 1215 456 1229 q 404 1200 425 1200 q 367 1216 382 1200 q 351 1256 351 1232 q 381 1337 351 1300 q 460 1395 410 1374 q 568 1417 510 1417 z "},"Ū":{"ha":1138,"x_min":139,"x_max":999,"o":"m 571 -22 q 347 26 446 -22 q 194 162 249 75 q 139 358 139 249 l 139 1031 q 154 1069 139 1054 q 193 1085 169 1085 q 232 1069 217 1085 q 247 1031 247 1054 l 247 358 q 288 215 247 278 q 403 116 329 151 q 571 81 476 81 q 736 116 664 81 q 849 215 808 151 q 890 358 890 278 l 890 1031 q 906 1069 890 1054 q 944 1085 921 1085 q 983 1069 968 1085 q 999 1031 999 1054 l 999 358 q 944 162 999 249 q 792 26 889 75 q 571 -22 694 -22 m 389 1236 q 350 1250 365 1236 q 335 1286 335 1264 q 350 1322 335 1308 q 389 1336 365 1336 l 749 1336 q 787 1322 771 1336 q 803 1286 803 1308 q 787 1250 803 1264 q 749 1236 771 1236 l 389 1236 z "},"Ų":{"ha":1138,"x_min":139,"x_max":999,"o":"m 944 1085 q 983 1069 968 1085 q 999 1031 999 1054 l 999 358 q 935 147 999 239 q 760 13 871 56 q 675 -90 750 -35 q 653 -135 653 -107 q 669 -174 653 -158 q 707 -189 685 -189 q 736 -181 724 -189 l 783 -146 q 815 -135 799 -135 q 854 -151 839 -135 q 869 -189 869 -167 q 851 -232 869 -214 l 796 -268 q 707 -297 754 -297 q 592 -249 640 -297 q 544 -135 544 -201 q 590 -22 544 -72 l 571 -22 q 347 26 446 -22 q 194 162 249 75 q 139 358 139 249 l 139 1031 q 154 1069 139 1054 q 193 1085 169 1085 q 232 1069 217 1085 q 247 1031 247 1054 l 247 358 q 288 215 247 278 q 403 116 329 151 q 571 81 476 81 q 736 116 664 81 q 849 215 808 151 q 890 358 890 278 l 890 1031 q 906 1069 890 1054 q 944 1085 921 1085 z "},"Ů":{"ha":1138,"x_min":139,"x_max":999,"o":"m 571 -22 q 347 26 446 -22 q 194 162 249 75 q 139 358 139 249 l 139 1031 q 154 1069 139 1054 q 193 1085 169 1085 q 232 1069 217 1085 q 247 1031 247 1054 l 247 358 q 288 215 247 278 q 403 116 329 151 q 571 81 476 81 q 736 116 664 81 q 849 215 808 151 q 890 358 890 278 l 890 1031 q 906 1069 890 1054 q 944 1085 921 1085 q 983 1069 968 1085 q 999 1031 999 1054 l 999 358 q 944 162 999 249 q 792 26 889 75 q 571 -22 694 -22 m 569 1149 q 473 1188 513 1149 q 433 1285 433 1226 q 473 1382 433 1343 q 569 1421 513 1421 q 667 1382 628 1421 q 706 1285 706 1343 q 667 1188 706 1226 q 569 1149 628 1149 m 569 1211 q 622 1233 600 1211 q 643 1285 643 1254 q 622 1338 643 1317 q 569 1358 600 1358 q 518 1337 539 1358 q 497 1285 497 1315 q 518 1233 497 1254 q 569 1211 539 1211 z "},"Ũ":{"ha":1138,"x_min":139,"x_max":999,"o":"m 571 -22 q 347 26 446 -22 q 194 162 249 75 q 139 358 139 249 l 139 1031 q 154 1069 139 1054 q 193 1085 169 1085 q 232 1069 217 1085 q 247 1031 247 1054 l 247 358 q 288 215 247 278 q 403 116 329 151 q 571 81 476 81 q 736 116 664 81 q 849 215 808 151 q 890 358 890 278 l 890 1031 q 906 1069 890 1054 q 944 1085 921 1085 q 983 1069 968 1085 q 999 1031 999 1054 l 999 358 q 944 162 999 249 q 792 26 889 75 q 571 -22 694 -22 m 715 1196 q 646 1208 676 1196 q 581 1242 615 1221 q 533 1267 551 1260 q 497 1274 515 1274 q 406 1225 446 1274 q 385 1206 397 1213 q 360 1199 372 1199 q 336 1206 347 1199 q 320 1222 326 1211 q 314 1243 314 1232 q 324 1274 314 1260 q 404 1342 358 1318 q 500 1367 450 1367 q 565 1356 538 1367 q 629 1322 593 1344 q 677 1296 661 1303 q 714 1289 693 1289 q 782 1317 757 1289 q 825 1340 803 1340 q 847 1333 836 1340 q 872 1294 872 1321 q 861 1264 872 1279 q 715 1196 806 1196 z "},"V":{"ha":994,"x_min":28,"x_max":968,"o":"m 919 1085 q 955 1071 942 1085 q 968 1036 968 1057 q 961 1006 968 1022 l 547 35 q 499 0 532 0 q 469 8 481 0 q 449 35 457 15 l 36 1000 q 28 1036 28 1021 q 42 1072 28 1058 q 81 1085 57 1085 q 131 1050 117 1085 l 499 169 l 865 1047 q 886 1076 874 1068 q 919 1085 899 1085 z "},"W":{"ha":1303,"x_min":28,"x_max":1272,"o":"m 1225 1085 q 1260 1070 1247 1085 q 1272 1033 1272 1056 q 1268 1007 1272 1022 l 985 46 q 963 12 978 24 q 929 0 949 0 q 895 13 910 0 q 875 44 881 25 l 650 865 l 426 46 q 405 13 419 25 q 371 0 390 0 q 337 13 351 0 q 317 44 322 25 l 32 1007 q 28 1032 28 1022 q 42 1070 28 1056 q 78 1085 56 1085 q 131 1043 117 1085 l 371 206 l 599 1019 q 617 1044 603 1035 q 650 1054 632 1054 q 682 1044 668 1054 q 701 1018 696 1035 l 931 204 l 1172 1049 q 1225 1085 1183 1085 z "},"Ẃ":{"ha":1303,"x_min":28,"x_max":1272,"o":"m 1225 1085 q 1260 1070 1247 1085 q 1272 1033 1272 1056 q 1268 1007 1272 1022 l 985 46 q 963 12 978 24 q 929 0 949 0 q 895 13 910 0 q 875 44 881 25 l 650 865 l 426 46 q 405 13 419 25 q 371 0 390 0 q 337 13 351 0 q 317 44 322 25 l 32 1007 q 28 1032 28 1022 q 42 1070 28 1056 q 78 1085 56 1085 q 131 1043 117 1085 l 371 206 l 599 1019 q 617 1044 603 1035 q 650 1054 632 1054 q 682 1044 668 1054 q 701 1018 696 1035 l 931 204 l 1172 1049 q 1225 1085 1183 1085 m 642 1200 q 603 1216 618 1200 q 588 1254 588 1232 q 600 1290 588 1276 l 757 1447 q 794 1463 772 1463 q 833 1447 818 1463 q 849 1407 849 1431 q 833 1371 849 1385 l 678 1214 q 642 1200 664 1200 z "},"Ŵ":{"ha":1303,"x_min":28,"x_max":1272,"o":"m 1225 1085 q 1260 1070 1247 1085 q 1272 1033 1272 1056 q 1268 1007 1272 1022 l 985 46 q 963 12 978 24 q 929 0 949 0 q 895 13 910 0 q 875 44 881 25 l 650 865 l 426 46 q 405 13 419 25 q 371 0 390 0 q 337 13 351 0 q 317 44 322 25 l 32 1007 q 28 1032 28 1022 q 42 1070 28 1056 q 78 1085 56 1085 q 131 1043 117 1085 l 371 206 l 599 1019 q 617 1044 603 1035 q 650 1054 632 1054 q 682 1044 668 1054 q 701 1018 696 1035 l 931 204 l 1172 1049 q 1225 1085 1183 1085 m 490 1206 q 451 1219 467 1206 q 435 1254 435 1232 q 461 1301 435 1283 l 625 1410 q 651 1417 636 1417 q 679 1410 665 1417 l 842 1301 q 868 1254 868 1283 q 853 1219 868 1233 q 814 1206 838 1206 q 781 1217 799 1206 l 651 1306 l 522 1217 q 490 1206 507 1206 z "},"Ẅ":{"ha":1303,"x_min":28,"x_max":1272,"o":"m 1225 1085 q 1260 1070 1247 1085 q 1272 1033 1272 1056 q 1268 1007 1272 1022 l 985 46 q 963 12 978 24 q 929 0 949 0 q 895 13 910 0 q 875 44 881 25 l 650 865 l 426 46 q 405 13 419 25 q 371 0 390 0 q 337 13 351 0 q 317 44 322 25 l 32 1007 q 28 1032 28 1022 q 42 1070 28 1056 q 78 1085 56 1085 q 131 1043 117 1085 l 371 206 l 599 1019 q 617 1044 603 1035 q 650 1054 632 1054 q 682 1044 668 1054 q 701 1018 696 1035 l 931 204 l 1172 1049 q 1225 1085 1183 1085 m 507 1224 q 453 1246 475 1224 q 431 1300 431 1268 q 453 1354 431 1332 q 507 1376 475 1376 q 561 1354 539 1376 q 583 1300 583 1332 q 561 1246 583 1268 q 507 1224 539 1224 m 797 1224 q 743 1246 765 1224 q 721 1300 721 1268 q 743 1354 721 1332 q 797 1376 765 1376 q 851 1354 829 1376 q 874 1300 874 1332 q 851 1246 874 1268 q 797 1224 829 1224 z "},"Ẁ":{"ha":1303,"x_min":28,"x_max":1272,"o":"m 1225 1085 q 1260 1070 1247 1085 q 1272 1033 1272 1056 q 1268 1007 1272 1022 l 985 46 q 963 12 978 24 q 929 0 949 0 q 895 13 910 0 q 875 44 881 25 l 650 865 l 426 46 q 405 13 419 25 q 371 0 390 0 q 337 13 351 0 q 317 44 322 25 l 32 1007 q 28 1032 28 1022 q 42 1070 28 1056 q 78 1085 56 1085 q 131 1043 117 1085 l 371 206 l 599 1019 q 617 1044 603 1035 q 650 1054 632 1054 q 682 1044 668 1054 q 701 1018 696 1035 l 931 204 l 1172 1049 q 1225 1085 1183 1085 m 650 1208 q 614 1224 629 1208 l 457 1379 q 443 1417 443 1393 q 458 1456 443 1440 q 496 1472 474 1472 q 535 1456 518 1472 l 690 1299 q 704 1264 704 1286 q 689 1224 704 1240 q 650 1208 674 1208 z "},"X":{"ha":982,"x_min":65,"x_max":919,"o":"m 907 88 q 919 53 919 71 q 906 15 919 31 q 868 0 892 0 q 826 19 840 0 l 494 479 l 156 17 q 117 0 142 0 q 79 15 93 0 q 65 50 65 29 q 78 88 65 71 l 421 554 l 100 1000 q 89 1033 89 1018 q 103 1069 89 1054 q 139 1085 117 1085 q 181 1065 167 1085 l 496 629 l 815 1065 q 857 1085 831 1085 q 893 1069 879 1085 q 907 1032 907 1053 q 897 1000 907 1014 l 569 556 l 907 88 z "},"Y":{"ha":900,"x_min":7,"x_max":893,"o":"m 846 1085 q 880 1070 867 1085 q 893 1035 893 1056 q 883 1000 893 1015 l 504 401 l 504 54 q 489 16 504 32 q 450 0 474 0 q 412 16 428 0 q 396 54 396 32 l 396 401 l 18 1000 q 7 1035 7 1018 q 22 1070 7 1056 q 60 1085 38 1085 q 85 1078 75 1085 q 106 1058 96 1072 l 451 501 l 796 1056 q 818 1078 807 1071 q 846 1085 829 1085 z "},"Ý":{"ha":900,"x_min":7,"x_max":893,"o":"m 846 1085 q 880 1070 867 1085 q 893 1035 893 1056 q 883 1000 893 1015 l 504 401 l 504 54 q 489 16 504 32 q 450 0 474 0 q 412 16 428 0 q 396 54 396 32 l 396 401 l 18 1000 q 7 1035 7 1018 q 22 1070 7 1056 q 60 1085 38 1085 q 85 1078 75 1085 q 106 1058 96 1072 l 451 501 l 796 1056 q 818 1078 807 1071 q 846 1085 829 1085 m 440 1200 q 401 1216 417 1200 q 386 1254 386 1232 q 399 1290 386 1276 l 556 1447 q 593 1463 571 1463 q 632 1447 617 1463 q 647 1407 647 1431 q 632 1371 647 1385 l 476 1214 q 440 1200 463 1200 z "},"Ŷ":{"ha":900,"x_min":7,"x_max":893,"o":"m 846 1085 q 880 1070 867 1085 q 893 1035 893 1056 q 883 1000 893 1015 l 504 401 l 504 54 q 489 16 504 32 q 450 0 474 0 q 412 16 428 0 q 396 54 396 32 l 396 401 l 18 1000 q 7 1035 7 1018 q 22 1070 7 1056 q 60 1085 38 1085 q 85 1078 75 1085 q 106 1058 96 1072 l 451 501 l 796 1056 q 818 1078 807 1071 q 846 1085 829 1085 m 289 1206 q 249 1219 265 1206 q 233 1254 233 1232 q 260 1301 233 1283 l 424 1410 q 450 1417 435 1417 q 478 1410 464 1417 l 640 1301 q 667 1254 667 1283 q 651 1219 667 1233 q 613 1206 636 1206 q 579 1217 597 1206 l 450 1306 l 321 1217 q 289 1206 306 1206 z "},"Ÿ":{"ha":900,"x_min":7,"x_max":893,"o":"m 846 1085 q 880 1070 867 1085 q 893 1035 893 1056 q 883 1000 893 1015 l 504 401 l 504 54 q 489 16 504 32 q 450 0 474 0 q 412 16 428 0 q 396 54 396 32 l 396 401 l 18 1000 q 7 1035 7 1018 q 22 1070 7 1056 q 60 1085 38 1085 q 85 1078 75 1085 q 106 1058 96 1072 l 451 501 l 796 1056 q 818 1078 807 1071 q 846 1085 829 1085 m 306 1224 q 251 1246 274 1224 q 229 1300 229 1268 q 251 1354 229 1332 q 306 1376 274 1376 q 360 1354 338 1376 q 382 1300 382 1332 q 360 1246 382 1268 q 306 1224 338 1224 m 596 1224 q 542 1246 564 1224 q 519 1300 519 1268 q 542 1354 519 1332 q 596 1376 564 1376 q 650 1354 628 1376 q 672 1300 672 1332 q 650 1246 672 1268 q 596 1224 628 1224 z "},"Ỵ":{"ha":900,"x_min":7,"x_max":893,"o":"m 846 1085 q 880 1070 867 1085 q 893 1035 893 1056 q 883 1000 893 1015 l 504 401 l 504 54 q 489 16 504 32 q 450 0 474 0 q 412 16 428 0 q 396 54 396 32 l 396 401 l 18 1000 q 7 1035 7 1018 q 22 1070 7 1056 q 60 1085 38 1085 q 85 1078 75 1085 q 106 1058 96 1072 l 451 501 l 796 1056 q 818 1078 807 1071 q 846 1085 829 1085 m 449 -290 q 395 -268 417 -290 q 374 -214 374 -246 q 396 -160 374 -181 q 450 -139 418 -139 q 503 -160 481 -139 q 525 -214 525 -181 q 503 -268 525 -246 q 449 -290 481 -290 z "},"Ỳ":{"ha":900,"x_min":7,"x_max":893,"o":"m 846 1085 q 880 1070 867 1085 q 893 1035 893 1056 q 883 1000 893 1015 l 504 401 l 504 54 q 489 16 504 32 q 450 0 474 0 q 412 16 428 0 q 396 54 396 32 l 396 401 l 18 1000 q 7 1035 7 1018 q 22 1070 7 1056 q 60 1085 38 1085 q 85 1078 75 1085 q 106 1058 96 1072 l 451 501 l 796 1056 q 818 1078 807 1071 q 846 1085 829 1085 m 449 1208 q 413 1224 428 1208 l 256 1379 q 242 1417 242 1393 q 257 1456 242 1440 q 294 1472 272 1472 q 333 1456 317 1472 l 489 1299 q 503 1264 503 1286 q 488 1224 503 1240 q 449 1208 472 1208 z "},"Ỷ":{"ha":900,"x_min":7,"x_max":893,"o":"m 846 1085 q 880 1070 867 1085 q 893 1035 893 1056 q 883 1000 893 1015 l 504 401 l 504 54 q 489 16 504 32 q 450 0 474 0 q 412 16 428 0 q 396 54 396 32 l 396 401 l 18 1000 q 7 1035 7 1018 q 22 1070 7 1056 q 60 1085 38 1085 q 85 1078 75 1085 q 106 1058 96 1072 l 451 501 l 796 1056 q 818 1078 807 1071 q 846 1085 829 1085 m 449 1156 q 413 1170 428 1156 q 399 1206 399 1185 l 399 1244 q 443 1299 399 1289 l 478 1306 q 535 1367 535 1319 q 515 1414 535 1397 q 465 1431 496 1431 q 404 1408 433 1431 q 369 1396 392 1396 q 338 1408 351 1396 q 325 1440 325 1421 q 342 1478 325 1464 q 464 1521 396 1521 q 581 1480 535 1521 q 626 1374 626 1439 q 588 1278 626 1313 q 486 1235 549 1244 l 497 1217 q 483 1172 497 1189 q 449 1156 469 1156 z "},"Ȳ":{"ha":900,"x_min":7,"x_max":893,"o":"m 846 1085 q 880 1070 867 1085 q 893 1035 893 1056 q 883 1000 893 1015 l 504 401 l 504 54 q 489 16 504 32 q 450 0 474 0 q 412 16 428 0 q 396 54 396 32 l 396 401 l 18 1000 q 7 1035 7 1018 q 22 1070 7 1056 q 60 1085 38 1085 q 85 1078 75 1085 q 106 1058 96 1072 l 451 501 l 796 1056 q 818 1078 807 1071 q 846 1085 829 1085 m 269 1236 q 231 1250 246 1236 q 215 1286 215 1264 q 231 1322 215 1308 q 269 1336 246 1336 l 629 1336 q 667 1322 651 1336 q 683 1286 683 1308 q 667 1250 683 1264 q 629 1236 651 1236 l 269 1236 z "},"Ỹ":{"ha":900,"x_min":7,"x_max":893,"o":"m 846 1085 q 880 1070 867 1085 q 893 1035 893 1056 q 883 1000 893 1015 l 504 401 l 504 54 q 489 16 504 32 q 450 0 474 0 q 412 16 428 0 q 396 54 396 32 l 396 401 l 18 1000 q 7 1035 7 1018 q 22 1070 7 1056 q 60 1085 38 1085 q 85 1078 75 1085 q 106 1058 96 1072 l 451 501 l 796 1056 q 818 1078 807 1071 q 846 1085 829 1085 m 596 1196 q 526 1208 557 1196 q 461 1242 496 1221 q 414 1267 432 1260 q 378 1274 396 1274 q 286 1225 326 1274 q 265 1206 278 1213 q 240 1199 253 1199 q 217 1206 228 1199 q 201 1222 207 1211 q 194 1243 194 1232 q 204 1274 194 1260 q 285 1342 239 1318 q 381 1367 331 1367 q 446 1356 418 1367 q 510 1322 474 1344 q 558 1296 542 1303 q 594 1289 574 1289 q 663 1317 638 1289 q 706 1340 683 1340 q 728 1333 717 1340 q 753 1294 753 1321 q 742 1264 753 1279 q 596 1196 686 1196 z "},"Z":{"ha":1006,"x_min":68,"x_max":936,"o":"m 122 0 q 83 17 99 0 q 68 54 68 33 q 79 88 68 75 l 797 988 l 128 988 q 89 1000 103 988 q 75 1035 75 1013 q 90 1070 75 1056 q 129 1085 106 1085 l 882 1085 q 922 1068 907 1085 q 936 1029 936 1051 q 926 1000 936 1011 l 206 97 l 882 97 q 921 84 906 97 q 936 49 936 71 q 921 14 936 28 q 882 0 906 0 l 122 0 z "},"Ź":{"ha":1006,"x_min":68,"x_max":936,"o":"m 122 0 q 83 17 99 0 q 68 54 68 33 q 79 88 68 75 l 797 988 l 128 988 q 89 1000 103 988 q 75 1035 75 1013 q 90 1070 75 1056 q 129 1085 106 1085 l 882 1085 q 922 1068 907 1085 q 936 1029 936 1051 q 926 1000 936 1011 l 206 97 l 882 97 q 921 84 906 97 q 936 49 936 71 q 921 14 936 28 q 882 0 906 0 l 122 0 m 493 1200 q 454 1216 469 1200 q 439 1254 439 1232 q 451 1290 439 1276 l 608 1447 q 646 1463 624 1463 q 685 1447 669 1463 q 700 1407 700 1431 q 685 1371 700 1385 l 529 1214 q 493 1200 515 1200 z "},"Ž":{"ha":1006,"x_min":68,"x_max":936,"o":"m 122 0 q 83 17 99 0 q 68 54 68 33 q 79 88 68 75 l 797 988 l 128 988 q 89 1000 103 988 q 75 1035 75 1013 q 90 1070 75 1056 q 129 1085 106 1085 l 882 1085 q 922 1068 907 1085 q 936 1029 936 1051 q 926 1000 936 1011 l 206 97 l 882 97 q 921 84 906 97 q 936 49 936 71 q 921 14 936 28 q 882 0 906 0 l 122 0 m 503 1213 q 476 1219 485 1213 l 313 1328 q 286 1374 286 1346 q 298 1403 286 1392 q 329 1414 310 1414 q 374 1399 350 1414 l 503 1311 l 632 1397 q 678 1414 656 1414 q 708 1402 697 1414 q 719 1374 719 1390 q 693 1328 719 1346 l 531 1219 q 503 1213 521 1213 z "},"Ż":{"ha":1006,"x_min":68,"x_max":936,"o":"m 122 0 q 83 17 99 0 q 68 54 68 33 q 79 88 68 75 l 797 988 l 128 988 q 89 1000 103 988 q 75 1035 75 1013 q 90 1070 75 1056 q 129 1085 106 1085 l 882 1085 q 922 1068 907 1085 q 936 1029 936 1051 q 926 1000 936 1011 l 206 97 l 882 97 q 921 84 906 97 q 936 49 936 71 q 921 14 936 28 q 882 0 906 0 l 122 0 m 501 1229 q 448 1251 469 1229 q 426 1306 426 1274 q 449 1360 426 1339 q 503 1381 471 1381 q 556 1360 533 1381 q 578 1306 578 1339 q 556 1251 578 1274 q 501 1229 533 1229 z "},"a":{"ha":940,"x_min":85,"x_max":857,"o":"m 471 767 q 667 716 579 767 q 806 576 756 665 q 857 379 857 488 l 857 53 q 842 15 857 31 q 803 0 826 0 q 764 15 779 0 q 749 53 749 29 l 749 136 q 625 31 700 69 q 460 -7 550 -7 q 269 44 354 -7 q 134 183 183 94 q 85 379 85 271 q 135 576 85 488 q 274 716 186 665 q 471 767 363 767 m 471 90 q 614 128 550 90 q 715 231 678 165 q 751 379 751 297 q 715 527 751 461 q 614 631 678 593 q 471 669 550 669 q 327 631 392 669 q 226 527 263 593 q 189 379 189 461 q 226 231 189 297 q 327 128 263 165 q 471 90 392 90 z "},"á":{"ha":940,"x_min":85,"x_max":857,"o":"m 471 767 q 667 716 579 767 q 806 576 756 665 q 857 379 857 488 l 857 53 q 842 15 857 31 q 803 0 826 0 q 764 15 779 0 q 749 53 749 29 l 749 136 q 625 31 700 69 q 460 -7 550 -7 q 269 44 354 -7 q 134 183 183 94 q 85 379 85 271 q 135 576 85 488 q 274 716 186 665 q 471 767 363 767 m 471 90 q 614 128 550 90 q 715 231 678 165 q 751 379 751 297 q 715 527 751 461 q 614 631 678 593 q 471 669 550 669 q 327 631 392 669 q 226 527 263 593 q 189 379 189 461 q 226 231 189 297 q 327 128 263 165 q 471 90 392 90 m 461 875 q 422 891 438 875 q 407 929 407 907 q 419 965 407 951 l 576 1122 q 614 1138 592 1138 q 653 1122 638 1138 q 668 1082 668 1106 q 653 1046 668 1060 l 497 889 q 461 875 483 875 z "},"ă":{"ha":940,"x_min":85,"x_max":857,"o":"m 471 767 q 667 716 579 767 q 806 576 756 665 q 857 379 857 488 l 857 53 q 842 15 857 31 q 803 0 826 0 q 764 15 779 0 q 749 53 749 29 l 749 136 q 625 31 700 69 q 460 -7 550 -7 q 269 44 354 -7 q 134 183 183 94 q 85 379 85 271 q 135 576 85 488 q 274 716 186 665 q 471 767 363 767 m 471 90 q 614 128 550 90 q 715 231 678 165 q 751 379 751 297 q 715 527 751 461 q 614 631 678 593 q 471 669 550 669 q 327 631 392 669 q 226 527 263 593 q 189 379 189 461 q 226 231 189 297 q 327 128 263 165 q 471 90 392 90 m 469 876 q 361 898 411 876 q 282 956 311 919 q 253 1038 253 993 q 268 1077 253 1061 q 306 1093 283 1093 q 342 1078 326 1093 q 357 1043 357 1064 q 389 989 357 1011 q 469 967 421 967 q 552 988 521 967 q 583 1043 583 1010 q 599 1079 583 1065 q 636 1093 614 1093 q 673 1077 658 1093 q 688 1039 688 1061 q 622 922 685 968 q 469 876 558 876 z "},"ắ":{"ha":940,"x_min":85,"x_max":857,"o":"m 471 767 q 667 716 579 767 q 806 576 756 665 q 857 379 857 488 l 857 53 q 842 15 857 31 q 803 0 826 0 q 764 15 779 0 q 749 53 749 29 l 749 136 q 625 31 700 69 q 460 -7 550 -7 q 269 44 354 -7 q 134 183 183 94 q 85 379 85 271 q 135 576 85 488 q 274 716 186 665 q 471 767 363 767 m 471 90 q 614 128 550 90 q 715 231 678 165 q 751 379 751 297 q 715 527 751 461 q 614 631 678 593 q 471 669 550 669 q 327 631 392 669 q 226 527 263 593 q 189 379 189 461 q 226 231 189 297 q 327 128 263 165 q 471 90 392 90 m 469 876 q 361 898 411 876 q 282 956 311 919 q 253 1038 253 993 q 268 1077 253 1061 q 306 1093 283 1093 q 342 1078 326 1093 q 357 1043 357 1064 q 389 989 357 1011 q 469 967 421 967 q 552 988 521 967 q 583 1043 583 1010 q 599 1079 583 1065 q 636 1093 614 1093 q 673 1077 658 1093 q 688 1039 688 1061 q 622 922 685 968 q 469 876 558 876 m 461 1108 q 422 1124 438 1108 q 407 1163 407 1140 q 419 1199 407 1185 l 576 1356 q 614 1371 592 1371 q 653 1355 638 1371 q 668 1315 668 1339 q 653 1279 668 1293 l 497 1122 q 461 1108 483 1108 z "},"ặ":{"ha":940,"x_min":85,"x_max":857,"o":"m 471 767 q 667 716 579 767 q 806 576 756 665 q 857 379 857 488 l 857 53 q 842 15 857 31 q 803 0 826 0 q 764 15 779 0 q 749 53 749 29 l 749 136 q 625 31 700 69 q 460 -7 550 -7 q 269 44 354 -7 q 134 183 183 94 q 85 379 85 271 q 135 576 85 488 q 274 716 186 665 q 471 767 363 767 m 471 90 q 614 128 550 90 q 715 231 678 165 q 751 379 751 297 q 715 527 751 461 q 614 631 678 593 q 471 669 550 669 q 327 631 392 669 q 226 527 263 593 q 189 379 189 461 q 226 231 189 297 q 327 128 263 165 q 471 90 392 90 m 469 876 q 361 898 411 876 q 282 956 311 919 q 253 1038 253 993 q 268 1077 253 1061 q 306 1093 283 1093 q 342 1078 326 1093 q 357 1043 357 1064 q 389 989 357 1011 q 469 967 421 967 q 552 988 521 967 q 583 1043 583 1010 q 599 1079 583 1065 q 636 1093 614 1093 q 673 1077 658 1093 q 688 1039 688 1061 q 622 922 685 968 q 469 876 558 876 m 469 -290 q 416 -268 438 -290 q 394 -214 394 -246 q 417 -160 394 -181 q 471 -139 439 -139 q 524 -160 501 -139 q 546 -214 546 -181 q 524 -268 546 -246 q 469 -290 501 -290 z "},"ằ":{"ha":940,"x_min":85,"x_max":857,"o":"m 471 767 q 667 716 579 767 q 806 576 756 665 q 857 379 857 488 l 857 53 q 842 15 857 31 q 803 0 826 0 q 764 15 779 0 q 749 53 749 29 l 749 136 q 625 31 700 69 q 460 -7 550 -7 q 269 44 354 -7 q 134 183 183 94 q 85 379 85 271 q 135 576 85 488 q 274 716 186 665 q 471 767 363 767 m 471 90 q 614 128 550 90 q 715 231 678 165 q 751 379 751 297 q 715 527 751 461 q 614 631 678 593 q 471 669 550 669 q 327 631 392 669 q 226 527 263 593 q 189 379 189 461 q 226 231 189 297 q 327 128 263 165 q 471 90 392 90 m 469 876 q 361 898 411 876 q 282 956 311 919 q 253 1038 253 993 q 268 1077 253 1061 q 306 1093 283 1093 q 342 1078 326 1093 q 357 1043 357 1064 q 389 989 357 1011 q 469 967 421 967 q 552 988 521 967 q 583 1043 583 1010 q 599 1079 583 1065 q 636 1093 614 1093 q 673 1077 658 1093 q 688 1039 688 1061 q 622 922 685 968 q 469 876 558 876 m 469 1117 q 433 1132 449 1117 l 276 1288 q 263 1325 263 1301 q 278 1365 263 1349 q 315 1381 293 1381 q 354 1364 338 1381 l 510 1207 q 524 1172 524 1194 q 508 1133 524 1149 q 469 1117 493 1117 z "},"ẳ":{"ha":940,"x_min":85,"x_max":857,"o":"m 471 767 q 667 716 579 767 q 806 576 756 665 q 857 379 857 488 l 857 53 q 842 15 857 31 q 803 0 826 0 q 764 15 779 0 q 749 53 749 29 l 749 136 q 625 31 700 69 q 460 -7 550 -7 q 269 44 354 -7 q 134 183 183 94 q 85 379 85 271 q 135 576 85 488 q 274 716 186 665 q 471 767 363 767 m 471 90 q 614 128 550 90 q 715 231 678 165 q 751 379 751 297 q 715 527 751 461 q 614 631 678 593 q 471 669 550 669 q 327 631 392 669 q 226 527 263 593 q 189 379 189 461 q 226 231 189 297 q 327 128 263 165 q 471 90 392 90 m 469 876 q 361 898 411 876 q 282 956 311 919 q 253 1038 253 993 q 268 1077 253 1061 q 306 1093 283 1093 q 342 1078 326 1093 q 357 1043 357 1064 q 389 989 357 1011 q 469 967 421 967 q 552 988 521 967 q 583 1043 583 1010 q 599 1079 583 1065 q 636 1093 614 1093 q 673 1077 658 1093 q 688 1039 688 1061 q 622 922 685 968 q 469 876 558 876 m 469 1064 q 434 1078 449 1064 q 419 1114 419 1093 l 419 1153 q 464 1207 419 1197 l 499 1214 q 556 1275 556 1228 q 536 1322 556 1306 q 486 1339 517 1339 q 425 1317 454 1339 q 390 1304 413 1304 q 359 1317 372 1304 q 346 1349 346 1329 q 363 1386 346 1372 q 485 1429 417 1429 q 601 1388 556 1429 q 647 1282 647 1347 q 608 1187 647 1221 q 507 1143 569 1153 l 518 1125 q 504 1081 518 1097 q 469 1064 490 1064 z "},"ẵ":{"ha":940,"x_min":85,"x_max":857,"o":"m 471 767 q 667 716 579 767 q 806 576 756 665 q 857 379 857 488 l 857 53 q 842 15 857 31 q 803 0 826 0 q 764 15 779 0 q 749 53 749 29 l 749 136 q 625 31 700 69 q 460 -7 550 -7 q 269 44 354 -7 q 134 183 183 94 q 85 379 85 271 q 135 576 85 488 q 274 716 186 665 q 471 767 363 767 m 471 90 q 614 128 550 90 q 715 231 678 165 q 751 379 751 297 q 715 527 751 461 q 614 631 678 593 q 471 669 550 669 q 327 631 392 669 q 226 527 263 593 q 189 379 189 461 q 226 231 189 297 q 327 128 263 165 q 471 90 392 90 m 469 876 q 361 898 411 876 q 282 956 311 919 q 253 1038 253 993 q 268 1077 253 1061 q 306 1093 283 1093 q 342 1078 326 1093 q 357 1043 357 1064 q 389 989 357 1011 q 469 967 421 967 q 552 988 521 967 q 583 1043 583 1010 q 599 1079 583 1065 q 636 1093 614 1093 q 673 1077 658 1093 q 688 1039 688 1061 q 622 922 685 968 q 469 876 558 876 m 560 1125 q 451 1176 503 1125 q 416 1206 429 1197 q 389 1214 403 1214 q 362 1201 374 1214 q 336 1163 350 1189 q 292 1133 318 1133 q 258 1146 271 1133 q 246 1176 246 1158 q 251 1200 246 1189 q 310 1278 278 1254 q 383 1303 342 1303 q 441 1290 419 1303 q 493 1250 463 1276 q 527 1224 515 1231 q 550 1217 539 1217 q 568 1224 560 1217 q 585 1250 576 1232 q 606 1274 592 1265 q 633 1283 619 1283 q 647 1281 639 1283 q 681 1239 681 1267 q 675 1217 681 1226 q 624 1147 651 1168 q 560 1125 596 1125 z "},"â":{"ha":940,"x_min":85,"x_max":857,"o":"m 471 767 q 667 716 579 767 q 806 576 756 665 q 857 379 857 488 l 857 53 q 842 15 857 31 q 803 0 826 0 q 764 15 779 0 q 749 53 749 29 l 749 136 q 625 31 700 69 q 460 -7 550 -7 q 269 44 354 -7 q 134 183 183 94 q 85 379 85 271 q 135 576 85 488 q 274 716 186 665 q 471 767 363 767 m 471 90 q 614 128 550 90 q 715 231 678 165 q 751 379 751 297 q 715 527 751 461 q 614 631 678 593 q 471 669 550 669 q 327 631 392 669 q 226 527 263 593 q 189 379 189 461 q 226 231 189 297 q 327 128 263 165 q 471 90 392 90 m 310 881 q 270 894 286 881 q 254 929 254 907 q 281 976 254 958 l 444 1085 q 471 1092 456 1092 q 499 1085 485 1092 l 661 976 q 688 929 688 958 q 672 894 688 908 q 633 881 657 881 q 600 892 618 881 l 471 981 l 342 892 q 310 881 326 881 z "},"ấ":{"ha":940,"x_min":85,"x_max":857,"o":"m 471 767 q 667 716 579 767 q 806 576 756 665 q 857 379 857 488 l 857 53 q 842 15 857 31 q 803 0 826 0 q 764 15 779 0 q 749 53 749 29 l 749 136 q 625 31 700 69 q 460 -7 550 -7 q 269 44 354 -7 q 134 183 183 94 q 85 379 85 271 q 135 576 85 488 q 274 716 186 665 q 471 767 363 767 m 471 90 q 614 128 550 90 q 715 231 678 165 q 751 379 751 297 q 715 527 751 461 q 614 631 678 593 q 471 669 550 669 q 327 631 392 669 q 226 527 263 593 q 189 379 189 461 q 226 231 189 297 q 327 128 263 165 q 471 90 392 90 m 310 881 q 270 894 286 881 q 254 929 254 907 q 281 976 254 958 l 444 1085 q 471 1092 456 1092 q 499 1085 485 1092 l 661 976 q 688 929 688 958 q 672 894 688 908 q 633 881 657 881 q 600 892 618 881 l 471 981 l 342 892 q 310 881 326 881 m 594 1110 q 556 1126 571 1110 q 540 1164 540 1142 q 553 1200 540 1186 l 710 1357 q 747 1372 725 1372 q 786 1356 771 1372 q 801 1317 801 1340 q 786 1281 801 1294 l 631 1124 q 594 1110 617 1110 z "},"ậ":{"ha":940,"x_min":85,"x_max":857,"o":"m 471 767 q 667 716 579 767 q 806 576 756 665 q 857 379 857 488 l 857 53 q 842 15 857 31 q 803 0 826 0 q 764 15 779 0 q 749 53 749 29 l 749 136 q 625 31 700 69 q 460 -7 550 -7 q 269 44 354 -7 q 134 183 183 94 q 85 379 85 271 q 135 576 85 488 q 274 716 186 665 q 471 767 363 767 m 471 90 q 614 128 550 90 q 715 231 678 165 q 751 379 751 297 q 715 527 751 461 q 614 631 678 593 q 471 669 550 669 q 327 631 392 669 q 226 527 263 593 q 189 379 189 461 q 226 231 189 297 q 327 128 263 165 q 471 90 392 90 m 310 881 q 270 894 286 881 q 254 929 254 907 q 281 976 254 958 l 444 1085 q 471 1092 456 1092 q 499 1085 485 1092 l 661 976 q 688 929 688 958 q 672 894 688 908 q 633 881 657 881 q 600 892 618 881 l 471 981 l 342 892 q 310 881 326 881 m 469 -290 q 416 -268 438 -290 q 394 -214 394 -246 q 417 -160 394 -181 q 471 -139 439 -139 q 524 -160 501 -139 q 546 -214 546 -181 q 524 -268 546 -246 q 469 -290 501 -290 z "},"ầ":{"ha":940,"x_min":85,"x_max":857,"o":"m 471 767 q 667 716 579 767 q 806 576 756 665 q 857 379 857 488 l 857 53 q 842 15 857 31 q 803 0 826 0 q 764 15 779 0 q 749 53 749 29 l 749 136 q 625 31 700 69 q 460 -7 550 -7 q 269 44 354 -7 q 134 183 183 94 q 85 379 85 271 q 135 576 85 488 q 274 716 186 665 q 471 767 363 767 m 471 90 q 614 128 550 90 q 715 231 678 165 q 751 379 751 297 q 715 527 751 461 q 614 631 678 593 q 471 669 550 669 q 327 631 392 669 q 226 527 263 593 q 189 379 189 461 q 226 231 189 297 q 327 128 263 165 q 471 90 392 90 m 310 881 q 270 894 286 881 q 254 929 254 907 q 281 976 254 958 l 444 1085 q 471 1092 456 1092 q 499 1085 485 1092 l 661 976 q 688 929 688 958 q 672 894 688 908 q 633 881 657 881 q 600 892 618 881 l 471 981 l 342 892 q 310 881 326 881 m 603 1118 q 567 1133 582 1118 l 410 1289 q 396 1326 396 1303 q 411 1366 396 1350 q 449 1382 426 1382 q 488 1365 471 1382 l 643 1208 q 657 1174 657 1196 q 642 1134 657 1150 q 603 1118 626 1118 z "},"ẩ":{"ha":940,"x_min":85,"x_max":857,"o":"m 471 767 q 667 716 579 767 q 806 576 756 665 q 857 379 857 488 l 857 53 q 842 15 857 31 q 803 0 826 0 q 764 15 779 0 q 749 53 749 29 l 749 136 q 625 31 700 69 q 460 -7 550 -7 q 269 44 354 -7 q 134 183 183 94 q 85 379 85 271 q 135 576 85 488 q 274 716 186 665 q 471 767 363 767 m 471 90 q 614 128 550 90 q 715 231 678 165 q 751 379 751 297 q 715 527 751 461 q 614 631 678 593 q 471 669 550 669 q 327 631 392 669 q 226 527 263 593 q 189 379 189 461 q 226 231 189 297 q 327 128 263 165 q 471 90 392 90 m 314 881 q 274 894 290 881 q 258 929 258 907 q 285 976 258 958 l 449 1085 q 475 1092 460 1092 q 503 1085 489 1092 l 665 976 q 692 929 692 958 q 676 894 692 908 q 638 881 661 881 q 604 892 622 881 l 475 981 l 346 892 q 314 881 331 881 m 607 1065 q 572 1080 586 1065 q 557 1115 557 1094 l 557 1154 q 601 1208 557 1199 l 636 1215 q 693 1276 693 1229 q 674 1324 693 1307 q 624 1340 654 1340 q 563 1318 592 1340 q 528 1306 550 1306 q 497 1318 510 1306 q 483 1350 483 1331 q 500 1388 483 1374 q 622 1431 554 1431 q 739 1390 693 1431 q 785 1283 785 1349 q 746 1188 785 1222 q 644 1144 707 1154 l 656 1126 q 642 1082 656 1099 q 607 1065 628 1065 z "},"ẫ":{"ha":940,"x_min":85,"x_max":857,"o":"m 471 767 q 667 716 579 767 q 806 576 756 665 q 857 379 857 488 l 857 53 q 842 15 857 31 q 803 0 826 0 q 764 15 779 0 q 749 53 749 29 l 749 136 q 625 31 700 69 q 460 -7 550 -7 q 269 44 354 -7 q 134 183 183 94 q 85 379 85 271 q 135 576 85 488 q 274 716 186 665 q 471 767 363 767 m 471 90 q 614 128 550 90 q 715 231 678 165 q 751 379 751 297 q 715 527 751 461 q 614 631 678 593 q 471 669 550 669 q 327 631 392 669 q 226 527 263 593 q 189 379 189 461 q 226 231 189 297 q 327 128 263 165 q 471 90 392 90 m 313 881 q 273 894 289 881 q 257 929 257 907 q 283 976 257 958 l 447 1085 q 474 1092 458 1092 q 501 1085 488 1092 l 664 976 q 690 929 690 958 q 675 894 690 908 q 636 881 660 881 q 603 892 621 881 l 474 981 l 344 892 q 313 881 329 881 m 556 1129 q 447 1181 499 1129 q 412 1210 425 1201 q 385 1218 399 1218 q 358 1206 369 1218 q 332 1167 346 1193 q 288 1138 314 1138 q 254 1150 267 1138 q 242 1181 242 1163 q 247 1204 242 1193 q 306 1283 274 1258 q 379 1307 338 1307 q 437 1294 415 1307 q 489 1254 458 1281 q 523 1228 511 1235 q 546 1221 535 1221 q 564 1228 556 1221 q 581 1254 572 1236 q 601 1278 588 1269 q 629 1288 615 1288 q 643 1285 635 1288 q 676 1243 676 1271 q 671 1221 676 1231 q 619 1151 647 1172 q 556 1129 592 1129 z "},"ȁ":{"ha":940,"x_min":85,"x_max":857,"o":"m 471 767 q 667 716 579 767 q 806 576 756 665 q 857 379 857 488 l 857 53 q 842 15 857 31 q 803 0 826 0 q 764 15 779 0 q 749 53 749 29 l 749 136 q 625 31 700 69 q 460 -7 550 -7 q 269 44 354 -7 q 134 183 183 94 q 85 379 85 271 q 135 576 85 488 q 274 716 186 665 q 471 767 363 767 m 471 90 q 614 128 550 90 q 715 231 678 165 q 751 379 751 297 q 715 527 751 461 q 614 631 678 593 q 471 669 550 669 q 327 631 392 669 q 226 527 263 593 q 189 379 189 461 q 226 231 189 297 q 327 128 263 165 q 471 90 392 90 m 410 867 q 371 893 383 867 l 286 1072 q 282 1092 282 1083 q 297 1130 282 1114 q 336 1146 313 1146 q 367 1136 353 1146 q 385 1113 381 1126 l 446 924 q 449 907 449 913 q 437 878 449 889 q 410 867 425 867 m 619 867 q 581 893 593 867 l 496 1072 q 492 1092 492 1083 q 508 1130 492 1114 q 547 1146 524 1146 q 578 1136 564 1146 q 597 1113 592 1126 l 656 924 q 658 907 658 918 q 647 878 658 889 q 619 867 635 867 z "},"ä":{"ha":940,"x_min":85,"x_max":857,"o":"m 471 767 q 667 716 579 767 q 806 576 756 665 q 857 379 857 488 l 857 53 q 842 15 857 31 q 803 0 826 0 q 764 15 779 0 q 749 53 749 29 l 749 136 q 625 31 700 69 q 460 -7 550 -7 q 269 44 354 -7 q 134 183 183 94 q 85 379 85 271 q 135 576 85 488 q 274 716 186 665 q 471 767 363 767 m 471 90 q 614 128 550 90 q 715 231 678 165 q 751 379 751 297 q 715 527 751 461 q 614 631 678 593 q 471 669 550 669 q 327 631 392 669 q 226 527 263 593 q 189 379 189 461 q 226 231 189 297 q 327 128 263 165 q 471 90 392 90 m 326 899 q 272 921 294 899 q 250 975 250 943 q 272 1029 250 1007 q 326 1051 294 1051 q 381 1029 358 1051 q 403 975 403 1007 q 381 921 403 943 q 326 899 358 899 m 617 899 q 563 921 585 899 q 540 975 540 943 q 563 1029 540 1007 q 617 1051 585 1051 q 671 1029 649 1051 q 693 975 693 1007 q 671 921 693 943 q 617 899 649 899 z "},"ạ":{"ha":940,"x_min":85,"x_max":857,"o":"m 471 767 q 667 716 579 767 q 806 576 756 665 q 857 379 857 488 l 857 53 q 842 15 857 31 q 803 0 826 0 q 764 15 779 0 q 749 53 749 29 l 749 136 q 625 31 700 69 q 460 -7 550 -7 q 269 44 354 -7 q 134 183 183 94 q 85 379 85 271 q 135 576 85 488 q 274 716 186 665 q 471 767 363 767 m 471 90 q 614 128 550 90 q 715 231 678 165 q 751 379 751 297 q 715 527 751 461 q 614 631 678 593 q 471 669 550 669 q 327 631 392 669 q 226 527 263 593 q 189 379 189 461 q 226 231 189 297 q 327 128 263 165 q 471 90 392 90 m 469 -290 q 416 -268 438 -290 q 394 -214 394 -246 q 417 -160 394 -181 q 471 -139 439 -139 q 524 -160 501 -139 q 546 -214 546 -181 q 524 -268 546 -246 q 469 -290 501 -290 z "},"à":{"ha":940,"x_min":85,"x_max":857,"o":"m 471 767 q 667 716 579 767 q 806 576 756 665 q 857 379 857 488 l 857 53 q 842 15 857 31 q 803 0 826 0 q 764 15 779 0 q 749 53 749 29 l 749 136 q 625 31 700 69 q 460 -7 550 -7 q 269 44 354 -7 q 134 183 183 94 q 85 379 85 271 q 135 576 85 488 q 274 716 186 665 q 471 767 363 767 m 471 90 q 614 128 550 90 q 715 231 678 165 q 751 379 751 297 q 715 527 751 461 q 614 631 678 593 q 471 669 550 669 q 327 631 392 669 q 226 527 263 593 q 189 379 189 461 q 226 231 189 297 q 327 128 263 165 q 471 90 392 90 m 469 883 q 433 899 449 883 l 276 1054 q 263 1092 263 1068 q 278 1131 263 1115 q 315 1147 293 1147 q 354 1131 338 1147 l 510 974 q 524 939 524 961 q 508 899 524 915 q 469 883 493 883 z "},"ả":{"ha":940,"x_min":85,"x_max":857,"o":"m 471 767 q 667 716 579 767 q 806 576 756 665 q 857 379 857 488 l 857 53 q 842 15 857 31 q 803 0 826 0 q 764 15 779 0 q 749 53 749 29 l 749 136 q 625 31 700 69 q 460 -7 550 -7 q 269 44 354 -7 q 134 183 183 94 q 85 379 85 271 q 135 576 85 488 q 274 716 186 665 q 471 767 363 767 m 471 90 q 614 128 550 90 q 715 231 678 165 q 751 379 751 297 q 715 527 751 461 q 614 631 678 593 q 471 669 550 669 q 327 631 392 669 q 226 527 263 593 q 189 379 189 461 q 226 231 189 297 q 327 128 263 165 q 471 90 392 90 m 469 831 q 434 845 449 831 q 419 881 419 860 l 419 919 q 464 974 419 964 l 499 981 q 556 1042 556 994 q 536 1089 556 1072 q 486 1106 517 1106 q 425 1083 454 1106 q 390 1071 413 1071 q 359 1083 372 1071 q 346 1115 346 1096 q 363 1153 346 1139 q 485 1196 417 1196 q 601 1155 556 1196 q 647 1049 647 1114 q 608 953 647 988 q 507 910 569 919 l 518 892 q 504 847 518 864 q 469 831 490 831 z "},"ȃ":{"ha":940,"x_min":85,"x_max":857,"o":"m 471 767 q 667 716 579 767 q 806 576 756 665 q 857 379 857 488 l 857 53 q 842 15 857 31 q 803 0 826 0 q 764 15 779 0 q 749 53 749 29 l 749 136 q 625 31 700 69 q 460 -7 550 -7 q 269 44 354 -7 q 134 183 183 94 q 85 379 85 271 q 135 576 85 488 q 274 716 186 665 q 471 767 363 767 m 471 90 q 614 128 550 90 q 715 231 678 165 q 751 379 751 297 q 715 527 751 461 q 614 631 678 593 q 471 669 550 669 q 327 631 392 669 q 226 527 263 593 q 189 379 189 461 q 226 231 189 297 q 327 128 263 165 q 471 90 392 90 m 469 1092 q 622 1046 558 1092 q 688 929 685 1000 q 673 891 688 907 q 636 875 658 875 q 599 889 614 875 q 583 925 583 903 q 552 980 583 958 q 469 1001 521 1001 q 389 979 421 1001 q 357 925 357 957 q 342 890 357 904 q 306 875 326 875 q 268 891 283 875 q 253 931 253 907 q 282 1012 253 975 q 361 1070 311 1049 q 469 1092 411 1092 z "},"ā":{"ha":940,"x_min":85,"x_max":857,"o":"m 471 767 q 667 716 579 767 q 806 576 756 665 q 857 379 857 488 l 857 53 q 842 15 857 31 q 803 0 826 0 q 764 15 779 0 q 749 53 749 29 l 749 136 q 625 31 700 69 q 460 -7 550 -7 q 269 44 354 -7 q 134 183 183 94 q 85 379 85 271 q 135 576 85 488 q 274 716 186 665 q 471 767 363 767 m 471 90 q 614 128 550 90 q 715 231 678 165 q 751 379 751 297 q 715 527 751 461 q 614 631 678 593 q 471 669 550 669 q 327 631 392 669 q 226 527 263 593 q 189 379 189 461 q 226 231 189 297 q 327 128 263 165 q 471 90 392 90 m 290 911 q 251 925 267 911 q 236 961 236 939 q 251 997 236 983 q 290 1011 267 1011 l 650 1011 q 688 997 672 1011 q 704 961 704 983 q 688 925 704 939 q 650 911 672 911 l 290 911 z "},"ą":{"ha":940,"x_min":85,"x_max":1008,"o":"m 954 -201 q 993 -217 978 -201 q 1008 -256 1008 -233 q 990 -299 1008 -281 l 935 -335 q 846 -364 893 -364 q 731 -316 779 -364 q 683 -201 683 -268 q 751 -68 683 -125 q 799 -14 788 -42 q 810 0 801 -8 l 803 0 q 764 15 779 0 q 749 53 749 29 l 749 136 q 625 31 700 69 q 460 -7 550 -7 q 269 44 354 -7 q 134 183 183 94 q 85 379 85 271 q 135 576 85 488 q 274 716 186 665 q 471 767 363 767 q 667 716 579 767 q 806 576 756 665 q 857 379 857 488 l 857 53 q 840 14 857 31 l 846 14 q 883 -1 868 14 q 900 -39 899 -15 q 814 -157 900 -94 q 792 -201 792 -174 q 808 -240 792 -225 q 846 -256 824 -256 q 875 -247 863 -256 l 922 -212 q 954 -201 938 -201 m 471 90 q 614 128 550 90 q 715 231 678 165 q 751 379 751 297 q 715 527 751 461 q 614 631 678 593 q 471 669 550 669 q 327 631 392 669 q 226 527 263 593 q 189 379 189 461 q 226 231 189 297 q 327 128 263 165 q 471 90 392 90 z "},"å":{"ha":940,"x_min":85,"x_max":857,"o":"m 471 767 q 667 716 579 767 q 806 576 756 665 q 857 379 857 488 l 857 53 q 842 15 857 31 q 803 0 826 0 q 764 15 779 0 q 749 53 749 29 l 749 136 q 625 31 700 69 q 460 -7 550 -7 q 269 44 354 -7 q 134 183 183 94 q 85 379 85 271 q 135 576 85 488 q 274 716 186 665 q 471 767 363 767 m 471 90 q 614 128 550 90 q 715 231 678 165 q 751 379 751 297 q 715 527 751 461 q 614 631 678 593 q 471 669 550 669 q 327 631 392 669 q 226 527 263 593 q 189 379 189 461 q 226 231 189 297 q 327 128 263 165 q 471 90 392 90 m 471 824 q 374 863 414 824 q 335 960 335 901 q 374 1057 335 1018 q 471 1096 414 1096 q 568 1057 529 1096 q 607 960 607 1018 q 568 863 607 901 q 471 824 529 824 m 471 886 q 523 908 501 886 q 544 960 544 929 q 523 1013 544 992 q 471 1033 501 1033 q 419 1012 440 1033 q 399 960 399 990 q 419 908 399 929 q 471 886 440 886 z "},"ǻ":{"ha":940,"x_min":85,"x_max":857,"o":"m 471 767 q 667 716 579 767 q 806 576 756 665 q 857 379 857 488 l 857 53 q 842 15 857 31 q 803 0 826 0 q 764 15 779 0 q 749 53 749 29 l 749 136 q 625 31 700 69 q 460 -7 550 -7 q 269 44 354 -7 q 134 183 183 94 q 85 379 85 271 q 135 576 85 488 q 274 716 186 665 q 471 767 363 767 m 471 90 q 614 128 550 90 q 715 231 678 165 q 751 379 751 297 q 715 527 751 461 q 614 631 678 593 q 471 669 550 669 q 327 631 392 669 q 226 527 263 593 q 189 379 189 461 q 226 231 189 297 q 327 128 263 165 q 471 90 392 90 m 471 824 q 374 863 414 824 q 335 960 335 901 q 374 1057 335 1018 q 471 1096 414 1096 q 568 1057 529 1096 q 607 960 607 1018 q 568 863 607 901 q 471 824 529 824 m 471 886 q 523 908 501 886 q 544 960 544 929 q 523 1013 544 992 q 471 1033 501 1033 q 419 1012 440 1033 q 399 960 399 990 q 419 908 399 929 q 471 886 440 886 m 461 1150 q 422 1166 438 1150 q 407 1204 407 1182 q 419 1240 407 1226 l 576 1397 q 614 1413 592 1413 q 653 1397 638 1413 q 668 1357 668 1381 q 653 1321 668 1335 l 497 1164 q 461 1150 483 1150 z "},"ã":{"ha":940,"x_min":85,"x_max":857,"o":"m 471 767 q 667 716 579 767 q 806 576 756 665 q 857 379 857 488 l 857 53 q 842 15 857 31 q 803 0 826 0 q 764 15 779 0 q 749 53 749 29 l 749 136 q 625 31 700 69 q 460 -7 550 -7 q 269 44 354 -7 q 134 183 183 94 q 85 379 85 271 q 135 576 85 488 q 274 716 186 665 q 471 767 363 767 m 471 90 q 614 128 550 90 q 715 231 678 165 q 751 379 751 297 q 715 527 751 461 q 614 631 678 593 q 471 669 550 669 q 327 631 392 669 q 226 527 263 593 q 189 379 189 461 q 226 231 189 297 q 327 128 263 165 q 471 90 392 90 m 617 871 q 547 883 578 871 q 482 917 517 896 q 435 942 453 935 q 399 949 417 949 q 307 900 347 949 q 286 881 299 888 q 261 874 274 874 q 238 881 249 874 q 222 897 228 886 q 215 918 215 907 q 225 949 215 935 q 306 1017 260 993 q 401 1042 351 1042 q 467 1031 439 1042 q 531 997 494 1019 q 578 971 563 978 q 615 964 594 964 q 683 992 658 964 q 726 1015 704 1015 q 749 1008 738 1015 q 774 969 774 996 q 763 939 774 954 q 617 871 707 871 z "},"æ":{"ha":1522,"x_min":85,"x_max":1467,"o":"m 1118 767 q 1301 719 1222 767 q 1424 586 1381 671 q 1467 393 1467 501 q 1453 358 1467 371 q 1417 344 1439 344 l 857 344 l 857 335 q 949 157 871 225 q 1139 89 1026 89 q 1241 106 1193 89 q 1321 150 1289 122 q 1358 164 1339 164 q 1389 153 1378 164 q 1408 115 1408 136 q 1392 83 1408 99 q 1275 19 1346 44 q 1139 -7 1204 -7 q 981 26 1053 -7 q 857 118 908 58 l 857 53 q 842 15 857 31 q 803 0 826 0 q 764 15 779 0 q 749 53 749 29 l 749 136 q 625 31 700 69 q 460 -7 550 -7 q 269 44 354 -7 q 134 183 183 94 q 85 379 85 271 q 135 576 85 488 q 274 716 186 665 q 471 767 363 767 q 670 714 581 767 q 808 571 760 661 q 933 715 851 663 q 1118 767 1014 767 m 1118 671 q 943 606 1013 671 q 858 433 874 540 l 1368 433 q 1290 606 1357 540 q 1118 671 1222 671 m 471 90 q 614 128 550 90 q 715 231 678 165 q 751 379 751 297 q 715 527 751 461 q 614 631 678 593 q 471 669 550 669 q 327 631 392 669 q 226 527 263 593 q 189 379 189 461 q 226 231 189 297 q 327 128 263 165 q 471 90 392 90 z "},"ǽ":{"ha":1522,"x_min":85,"x_max":1467,"o":"m 1118 767 q 1301 719 1222 767 q 1424 586 1381 671 q 1467 393 1467 501 q 1453 358 1467 371 q 1417 344 1439 344 l 857 344 l 857 335 q 949 157 871 225 q 1139 89 1026 89 q 1241 106 1193 89 q 1321 150 1289 122 q 1358 164 1339 164 q 1389 153 1378 164 q 1408 115 1408 136 q 1392 83 1408 99 q 1275 19 1346 44 q 1139 -7 1204 -7 q 981 26 1053 -7 q 857 118 908 58 l 857 53 q 842 15 857 31 q 803 0 826 0 q 764 15 779 0 q 749 53 749 29 l 749 136 q 625 31 700 69 q 460 -7 550 -7 q 269 44 354 -7 q 134 183 183 94 q 85 379 85 271 q 135 576 85 488 q 274 716 186 665 q 471 767 363 767 q 670 714 581 767 q 808 571 760 661 q 933 715 851 663 q 1118 767 1014 767 m 1118 671 q 943 606 1013 671 q 858 433 874 540 l 1368 433 q 1290 606 1357 540 q 1118 671 1222 671 m 471 90 q 614 128 550 90 q 715 231 678 165 q 751 379 751 297 q 715 527 751 461 q 614 631 678 593 q 471 669 550 669 q 327 631 392 669 q 226 527 263 593 q 189 379 189 461 q 226 231 189 297 q 327 128 263 165 q 471 90 392 90 m 767 875 q 728 891 743 875 q 713 929 713 907 q 725 965 713 951 l 882 1122 q 919 1138 897 1138 q 958 1122 943 1138 q 974 1082 974 1106 q 958 1046 974 1060 l 803 889 q 767 875 789 875 z "},"b":{"ha":982,"x_min":125,"x_max":897,"o":"m 522 767 q 713 716 628 767 q 848 577 799 665 q 897 381 897 489 q 847 183 897 272 q 708 44 796 94 q 511 -7 619 -7 q 315 44 403 -7 q 176 183 226 94 q 125 381 125 272 l 125 707 q 126 719 125 715 l 126 1031 q 141 1069 126 1054 q 179 1085 156 1085 q 218 1069 203 1085 q 233 1031 233 1054 l 233 624 q 357 728 282 690 q 522 767 432 767 m 511 90 q 655 128 590 90 q 756 233 719 167 q 793 381 793 299 q 756 528 793 463 q 655 632 719 594 q 511 669 590 669 q 324 600 401 669 q 233 422 247 531 q 232 415 233 418 q 231 381 231 404 q 267 233 231 299 q 368 128 304 167 q 511 90 432 90 z "},"c":{"ha":828,"x_min":85,"x_max":743,"o":"m 464 -7 q 269 44 356 -7 q 134 183 183 94 q 85 379 85 271 q 132 578 85 490 q 263 717 179 667 q 450 767 346 767 q 732 633 624 767 q 743 604 743 621 q 719 565 743 582 q 693 557 707 557 q 653 578 672 557 q 561 647 611 624 q 450 669 511 669 q 314 633 374 669 q 222 529 254 596 q 189 379 189 463 q 224 231 189 297 q 321 128 258 165 q 464 90 383 90 q 643 150 575 90 q 681 165 661 165 q 711 154 697 165 q 731 117 731 138 q 717 86 731 99 q 464 -7 617 -7 z "},"ć":{"ha":828,"x_min":85,"x_max":743,"o":"m 464 -7 q 269 44 356 -7 q 134 183 183 94 q 85 379 85 271 q 132 578 85 490 q 263 717 179 667 q 450 767 346 767 q 732 633 624 767 q 743 604 743 621 q 719 565 743 582 q 693 557 707 557 q 653 578 672 557 q 561 647 611 624 q 450 669 511 669 q 314 633 374 669 q 222 529 254 596 q 189 379 189 463 q 224 231 189 297 q 321 128 258 165 q 464 90 383 90 q 643 150 575 90 q 681 165 661 165 q 711 154 697 165 q 731 117 731 138 q 717 86 731 99 q 464 -7 617 -7 m 440 875 q 401 891 417 875 q 386 929 386 907 q 399 965 386 951 l 556 1122 q 593 1138 571 1138 q 632 1122 617 1138 q 647 1082 647 1106 q 632 1046 647 1060 l 476 889 q 440 875 463 875 z "},"č":{"ha":828,"x_min":85,"x_max":743,"o":"m 464 -7 q 269 44 356 -7 q 134 183 183 94 q 85 379 85 271 q 132 578 85 490 q 263 717 179 667 q 450 767 346 767 q 732 633 624 767 q 743 604 743 621 q 719 565 743 582 q 693 557 707 557 q 653 578 672 557 q 561 647 611 624 q 450 669 511 669 q 314 633 374 669 q 222 529 254 596 q 189 379 189 463 q 224 231 189 297 q 321 128 258 165 q 464 90 383 90 q 643 150 575 90 q 681 165 661 165 q 711 154 697 165 q 731 117 731 138 q 717 86 731 99 q 464 -7 617 -7 m 450 888 q 424 894 432 888 l 260 1003 q 233 1049 233 1021 q 245 1078 233 1067 q 276 1089 257 1089 q 321 1074 297 1089 l 450 986 l 579 1072 q 625 1089 603 1089 q 656 1077 644 1089 q 667 1049 667 1065 q 640 1003 667 1021 l 478 894 q 450 888 468 888 z "},"ç":{"ha":828,"x_min":85,"x_max":743,"o":"m 711 154 q 731 117 731 138 q 717 86 731 99 q 510 -4 633 8 l 490 -50 q 590 -100 560 -68 q 619 -179 619 -132 q 594 -251 619 -218 q 526 -304 569 -285 q 431 -324 483 -324 q 310 -293 358 -324 q 261 -221 261 -262 q 276 -185 261 -200 q 313 -169 292 -169 q 361 -199 339 -169 q 432 -232 383 -232 q 485 -218 464 -232 q 506 -179 506 -204 q 489 -137 506 -153 q 433 -112 472 -122 q 393 -97 407 -107 q 379 -68 379 -86 q 386 -36 379 -57 l 400 -1 q 236 66 308 13 q 124 201 164 119 q 85 379 85 282 q 132 578 85 490 q 263 717 179 667 q 450 767 346 767 q 732 633 624 767 q 743 604 743 621 q 719 565 743 582 q 693 557 707 557 q 653 578 672 557 q 561 647 611 624 q 450 669 511 669 q 314 633 374 669 q 222 529 254 596 q 189 379 189 463 q 224 231 189 297 q 321 128 258 165 q 464 90 383 90 q 643 150 575 90 q 681 165 661 165 q 711 154 697 165 z "},"ĉ":{"ha":828,"x_min":85,"x_max":743,"o":"m 464 -7 q 269 44 356 -7 q 134 183 183 94 q 85 379 85 271 q 132 578 85 490 q 263 717 179 667 q 450 767 346 767 q 732 633 624 767 q 743 604 743 621 q 719 565 743 582 q 693 557 707 557 q 653 578 672 557 q 561 647 611 624 q 450 669 511 669 q 314 633 374 669 q 222 529 254 596 q 189 379 189 463 q 224 231 189 297 q 321 128 258 165 q 464 90 383 90 q 643 150 575 90 q 681 165 661 165 q 711 154 697 165 q 731 117 731 138 q 717 86 731 99 q 464 -7 617 -7 m 289 881 q 249 894 265 881 q 233 929 233 907 q 260 976 233 958 l 424 1085 q 450 1092 435 1092 q 478 1085 464 1092 l 640 976 q 667 929 667 958 q 651 894 667 908 q 613 881 636 881 q 579 892 597 881 l 450 981 l 321 892 q 289 881 306 881 z "},"ċ":{"ha":828,"x_min":85,"x_max":743,"o":"m 464 -7 q 269 44 356 -7 q 134 183 183 94 q 85 379 85 271 q 132 578 85 490 q 263 717 179 667 q 450 767 346 767 q 732 633 624 767 q 743 604 743 621 q 719 565 743 582 q 693 557 707 557 q 653 578 672 557 q 561 647 611 624 q 450 669 511 669 q 314 633 374 669 q 222 529 254 596 q 189 379 189 463 q 224 231 189 297 q 321 128 258 165 q 464 90 383 90 q 643 150 575 90 q 681 165 661 165 q 711 154 697 165 q 731 117 731 138 q 717 86 731 99 q 464 -7 617 -7 m 449 904 q 395 926 417 904 q 374 981 374 949 q 396 1035 374 1014 q 450 1056 418 1056 q 503 1035 481 1056 q 525 981 525 1014 q 503 926 525 949 q 449 904 481 904 z "},"d":{"ha":982,"x_min":85,"x_max":857,"o":"m 856 719 q 857 707 857 715 l 857 381 q 806 183 857 272 q 667 44 756 94 q 471 -7 579 -7 q 274 44 363 -7 q 135 183 186 94 q 85 381 85 272 q 134 577 85 489 q 269 716 183 665 q 460 767 354 767 q 625 728 550 767 q 749 624 700 690 l 749 1031 q 764 1069 749 1054 q 803 1085 779 1085 q 841 1069 826 1085 q 856 1031 856 1054 l 856 719 m 471 90 q 614 128 550 90 q 715 233 678 167 q 751 381 751 299 q 750 415 751 404 q 749 422 749 418 q 658 600 735 531 q 471 669 581 669 q 327 632 392 669 q 226 528 263 594 q 189 381 189 463 q 226 233 189 299 q 327 128 263 167 q 471 90 392 90 z "},"ð":{"ha":926,"x_min":85,"x_max":829,"o":"m 494 1035 q 690 903 618 976 q 795 730 763 829 q 829 493 828 631 l 829 379 q 781 180 829 268 q 647 42 732 92 q 454 -7 563 -7 q 263 40 347 -7 q 132 169 179 86 q 85 358 85 253 q 131 545 85 463 q 258 674 176 628 q 443 719 339 719 q 628 667 549 719 q 746 524 708 614 q 672 790 738 692 q 456 958 606 889 l 407 863 q 375 842 397 842 q 354 847 364 842 q 333 878 333 858 q 339 897 333 888 l 385 988 q 313 1014 363 997 q 267 1060 267 1031 q 269 1075 267 1064 q 310 1103 279 1103 q 339 1097 319 1103 q 425 1065 369 1088 l 464 1143 q 494 1165 474 1165 q 515 1160 506 1165 q 538 1128 538 1147 q 532 1108 538 1122 l 494 1035 m 454 90 q 594 124 532 90 q 690 219 656 158 q 725 358 725 281 q 690 495 725 435 q 594 589 656 556 q 454 622 532 622 q 317 589 378 622 q 223 495 257 556 q 189 358 189 435 q 223 219 189 281 q 317 124 257 158 q 454 90 378 90 z "},"ď":{"ha":1097,"x_min":85,"x_max":1111,"o":"m 856 719 q 857 707 857 715 l 857 381 q 806 183 857 272 q 667 44 756 94 q 471 -7 579 -7 q 274 44 363 -7 q 135 183 186 94 q 85 381 85 272 q 134 577 85 489 q 269 716 183 665 q 460 767 354 767 q 625 728 550 767 q 749 624 700 690 l 749 1031 q 764 1069 749 1054 q 803 1085 779 1085 q 841 1069 826 1085 q 856 1031 856 1054 l 856 719 m 471 90 q 614 128 550 90 q 715 233 678 167 q 751 381 751 299 q 750 415 751 404 q 749 422 749 418 q 658 600 735 531 q 471 669 581 669 q 327 632 392 669 q 226 528 263 594 q 189 381 189 463 q 226 233 189 299 q 327 128 263 167 q 471 90 392 90 m 963 728 q 940 735 949 728 q 932 757 932 743 q 954 808 932 774 q 983 859 972 835 q 997 914 994 883 q 996 945 999 932 q 986 976 993 958 q 978 1003 982 988 q 974 1035 974 1018 q 991 1076 974 1063 q 1038 1089 1008 1089 q 1092 1060 1072 1089 q 1111 985 1111 1031 q 1108 953 1111 975 q 1075 853 1101 906 q 1017 764 1049 800 q 963 728 985 728 z "},"đ":{"ha":982,"x_min":85,"x_max":982,"o":"m 929 953 q 967 941 953 953 q 982 908 982 929 q 967 876 982 889 q 929 863 951 863 l 856 863 l 856 719 q 857 707 857 715 l 857 381 q 806 183 857 272 q 667 44 756 94 q 471 -7 579 -7 q 274 44 363 -7 q 135 183 186 94 q 85 381 85 272 q 134 577 85 489 q 269 716 183 665 q 460 767 354 767 q 625 728 550 767 q 749 624 700 690 l 749 863 l 525 863 q 488 876 503 863 q 474 908 474 889 q 488 941 474 929 q 525 953 501 953 l 749 953 l 749 1031 q 764 1069 749 1054 q 803 1085 779 1085 q 841 1069 826 1085 q 856 1031 856 1054 l 856 953 l 929 953 m 471 90 q 614 128 550 90 q 715 233 678 167 q 751 381 751 299 q 750 415 751 404 q 749 422 749 418 q 658 600 735 531 q 471 669 581 669 q 327 632 392 669 q 226 528 263 594 q 189 381 189 463 q 226 233 189 299 q 327 128 263 167 q 471 90 392 90 z "},"e":{"ha":853,"x_min":85,"x_max":797,"o":"m 449 767 q 631 719 551 767 q 753 586 710 671 q 797 393 797 501 q 783 358 797 371 q 747 344 769 344 l 186 344 q 275 160 197 231 q 469 89 353 89 q 570 106 519 89 q 651 150 621 124 q 689 164 669 164 q 719 153 704 164 q 738 115 738 136 q 722 83 738 97 q 606 19 676 44 q 469 -7 535 -7 q 271 42 358 -7 q 134 180 183 92 q 85 379 85 268 q 131 580 85 492 q 260 717 178 668 q 449 767 343 767 m 449 671 q 274 606 343 671 q 189 433 204 540 l 697 433 q 619 606 686 540 q 449 671 553 671 z "},"é":{"ha":853,"x_min":85,"x_max":797,"o":"m 449 767 q 631 719 551 767 q 753 586 710 671 q 797 393 797 501 q 783 358 797 371 q 747 344 769 344 l 186 344 q 275 160 197 231 q 469 89 353 89 q 570 106 519 89 q 651 150 621 124 q 689 164 669 164 q 719 153 704 164 q 738 115 738 136 q 722 83 738 97 q 606 19 676 44 q 469 -7 535 -7 q 271 42 358 -7 q 134 180 183 92 q 85 379 85 268 q 131 580 85 492 q 260 717 178 668 q 449 767 343 767 m 449 671 q 274 606 343 671 q 189 433 204 540 l 697 433 q 619 606 686 540 q 449 671 553 671 m 432 875 q 393 891 408 875 q 378 929 378 907 q 390 965 378 951 l 547 1122 q 585 1138 563 1138 q 624 1122 608 1138 q 639 1082 639 1106 q 624 1046 639 1060 l 468 889 q 432 875 454 875 z "},"ĕ":{"ha":853,"x_min":85,"x_max":797,"o":"m 449 767 q 631 719 551 767 q 753 586 710 671 q 797 393 797 501 q 783 358 797 371 q 747 344 769 344 l 186 344 q 275 160 197 231 q 469 89 353 89 q 570 106 519 89 q 651 150 621 124 q 689 164 669 164 q 719 153 704 164 q 738 115 738 136 q 722 83 738 97 q 606 19 676 44 q 469 -7 535 -7 q 271 42 358 -7 q 134 180 183 92 q 85 379 85 268 q 131 580 85 492 q 260 717 178 668 q 449 767 343 767 m 449 671 q 274 606 343 671 q 189 433 204 540 l 697 433 q 619 606 686 540 q 449 671 553 671 m 440 876 q 332 898 382 876 q 253 956 282 919 q 224 1038 224 993 q 239 1077 224 1061 q 276 1093 254 1093 q 313 1078 297 1093 q 328 1043 328 1064 q 360 989 328 1011 q 440 967 392 967 q 523 988 492 967 q 554 1043 554 1010 q 569 1079 554 1065 q 607 1093 585 1093 q 644 1077 629 1093 q 658 1039 658 1061 q 592 922 656 968 q 440 876 529 876 z "},"ě":{"ha":853,"x_min":85,"x_max":797,"o":"m 449 767 q 631 719 551 767 q 753 586 710 671 q 797 393 797 501 q 783 358 797 371 q 747 344 769 344 l 186 344 q 275 160 197 231 q 469 89 353 89 q 570 106 519 89 q 651 150 621 124 q 689 164 669 164 q 719 153 704 164 q 738 115 738 136 q 722 83 738 97 q 606 19 676 44 q 469 -7 535 -7 q 271 42 358 -7 q 134 180 183 92 q 85 379 85 268 q 131 580 85 492 q 260 717 178 668 q 449 767 343 767 m 449 671 q 274 606 343 671 q 189 433 204 540 l 697 433 q 619 606 686 540 q 449 671 553 671 m 442 888 q 415 894 424 888 l 251 1003 q 225 1049 225 1021 q 237 1078 225 1067 q 268 1089 249 1089 q 313 1074 289 1089 l 442 986 l 571 1072 q 617 1089 594 1089 q 647 1077 636 1089 q 658 1049 658 1065 q 632 1003 658 1021 l 469 894 q 442 888 460 888 z "},"ê":{"ha":853,"x_min":85,"x_max":797,"o":"m 449 767 q 631 719 551 767 q 753 586 710 671 q 797 393 797 501 q 783 358 797 371 q 747 344 769 344 l 186 344 q 275 160 197 231 q 469 89 353 89 q 570 106 519 89 q 651 150 621 124 q 689 164 669 164 q 719 153 704 164 q 738 115 738 136 q 722 83 738 97 q 606 19 676 44 q 469 -7 535 -7 q 271 42 358 -7 q 134 180 183 92 q 85 379 85 268 q 131 580 85 492 q 260 717 178 668 q 449 767 343 767 m 449 671 q 274 606 343 671 q 189 433 204 540 l 697 433 q 619 606 686 540 q 449 671 553 671 m 281 881 q 241 894 257 881 q 225 929 225 907 q 251 976 225 958 l 415 1085 q 442 1092 426 1092 q 469 1085 456 1092 l 632 976 q 658 929 658 958 q 643 894 658 908 q 604 881 628 881 q 571 892 589 881 l 442 981 l 313 892 q 281 881 297 881 z "},"ế":{"ha":853,"x_min":85,"x_max":797,"o":"m 449 767 q 631 719 551 767 q 753 586 710 671 q 797 393 797 501 q 783 358 797 371 q 747 344 769 344 l 186 344 q 275 160 197 231 q 469 89 353 89 q 570 106 519 89 q 651 150 621 124 q 689 164 669 164 q 719 153 704 164 q 738 115 738 136 q 722 83 738 97 q 606 19 676 44 q 469 -7 535 -7 q 271 42 358 -7 q 134 180 183 92 q 85 379 85 268 q 131 580 85 492 q 260 717 178 668 q 449 767 343 767 m 449 671 q 274 606 343 671 q 189 433 204 540 l 697 433 q 619 606 686 540 q 449 671 553 671 m 281 881 q 241 894 257 881 q 225 929 225 907 q 251 976 225 958 l 415 1085 q 442 1092 426 1092 q 469 1085 456 1092 l 632 976 q 658 929 658 958 q 643 894 658 908 q 604 881 628 881 q 571 892 589 881 l 442 981 l 313 892 q 281 881 297 881 m 565 1110 q 526 1126 542 1110 q 511 1164 511 1142 q 524 1200 511 1186 l 681 1357 q 718 1372 696 1372 q 757 1356 742 1372 q 772 1317 772 1340 q 757 1281 772 1294 l 601 1124 q 565 1110 588 1110 z "},"ệ":{"ha":853,"x_min":85,"x_max":797,"o":"m 449 767 q 631 719 551 767 q 753 586 710 671 q 797 393 797 501 q 783 358 797 371 q 747 344 769 344 l 186 344 q 275 160 197 231 q 469 89 353 89 q 570 106 519 89 q 651 150 621 124 q 689 164 669 164 q 719 153 704 164 q 738 115 738 136 q 722 83 738 97 q 606 19 676 44 q 469 -7 535 -7 q 271 42 358 -7 q 134 180 183 92 q 85 379 85 268 q 131 580 85 492 q 260 717 178 668 q 449 767 343 767 m 449 671 q 274 606 343 671 q 189 433 204 540 l 697 433 q 619 606 686 540 q 449 671 553 671 m 281 881 q 241 894 257 881 q 225 929 225 907 q 251 976 225 958 l 415 1085 q 442 1092 426 1092 q 469 1085 456 1092 l 632 976 q 658 929 658 958 q 643 894 658 908 q 604 881 628 881 q 571 892 589 881 l 442 981 l 313 892 q 281 881 297 881 m 440 -290 q 387 -268 408 -290 q 365 -214 365 -246 q 388 -160 365 -181 q 442 -139 410 -139 q 494 -160 472 -139 q 517 -214 517 -181 q 494 -268 517 -246 q 440 -290 472 -290 z "},"ề":{"ha":853,"x_min":85,"x_max":797,"o":"m 449 767 q 631 719 551 767 q 753 586 710 671 q 797 393 797 501 q 783 358 797 371 q 747 344 769 344 l 186 344 q 275 160 197 231 q 469 89 353 89 q 570 106 519 89 q 651 150 621 124 q 689 164 669 164 q 719 153 704 164 q 738 115 738 136 q 722 83 738 97 q 606 19 676 44 q 469 -7 535 -7 q 271 42 358 -7 q 134 180 183 92 q 85 379 85 268 q 131 580 85 492 q 260 717 178 668 q 449 767 343 767 m 449 671 q 274 606 343 671 q 189 433 204 540 l 697 433 q 619 606 686 540 q 449 671 553 671 m 281 881 q 241 894 257 881 q 225 929 225 907 q 251 976 225 958 l 415 1085 q 442 1092 426 1092 q 469 1085 456 1092 l 632 976 q 658 929 658 958 q 643 894 658 908 q 604 881 628 881 q 571 892 589 881 l 442 981 l 313 892 q 281 881 297 881 m 574 1118 q 538 1133 553 1118 l 381 1289 q 367 1326 367 1303 q 382 1366 367 1350 q 419 1382 397 1382 q 458 1365 442 1382 l 614 1208 q 628 1174 628 1196 q 613 1134 628 1150 q 574 1118 597 1118 z "},"ể":{"ha":853,"x_min":85,"x_max":797,"o":"m 449 767 q 631 719 551 767 q 753 586 710 671 q 797 393 797 501 q 783 358 797 371 q 747 344 769 344 l 186 344 q 275 160 197 231 q 469 89 353 89 q 570 106 519 89 q 651 150 621 124 q 689 164 669 164 q 719 153 704 164 q 738 115 738 136 q 722 83 738 97 q 606 19 676 44 q 469 -7 535 -7 q 271 42 358 -7 q 134 180 183 92 q 85 379 85 268 q 131 580 85 492 q 260 717 178 668 q 449 767 343 767 m 449 671 q 274 606 343 671 q 189 433 204 540 l 697 433 q 619 606 686 540 q 449 671 553 671 m 285 881 q 245 894 261 881 q 229 929 229 907 q 256 976 229 958 l 419 1085 q 446 1092 431 1092 q 474 1085 460 1092 l 636 976 q 663 929 663 958 q 647 894 663 908 q 608 881 632 881 q 575 892 593 881 l 446 981 l 317 892 q 285 881 301 881 m 578 1065 q 542 1080 557 1065 q 528 1115 528 1094 l 528 1154 q 572 1208 528 1199 l 607 1215 q 664 1276 664 1229 q 644 1324 664 1307 q 594 1340 625 1340 q 533 1318 563 1340 q 499 1306 521 1306 q 467 1318 481 1306 q 454 1350 454 1331 q 471 1388 454 1374 q 593 1431 525 1431 q 710 1390 664 1431 q 756 1283 756 1349 q 717 1188 756 1222 q 615 1144 678 1154 l 626 1126 q 613 1082 626 1099 q 578 1065 599 1065 z "},"ễ":{"ha":853,"x_min":85,"x_max":797,"o":"m 449 767 q 631 719 551 767 q 753 586 710 671 q 797 393 797 501 q 783 358 797 371 q 747 344 769 344 l 186 344 q 275 160 197 231 q 469 89 353 89 q 570 106 519 89 q 651 150 621 124 q 689 164 669 164 q 719 153 704 164 q 738 115 738 136 q 722 83 738 97 q 606 19 676 44 q 469 -7 535 -7 q 271 42 358 -7 q 134 180 183 92 q 85 379 85 268 q 131 580 85 492 q 260 717 178 668 q 449 767 343 767 m 449 671 q 274 606 343 671 q 189 433 204 540 l 697 433 q 619 606 686 540 q 449 671 553 671 m 283 881 q 244 894 260 881 q 228 929 228 907 q 254 976 228 958 l 418 1085 q 444 1092 429 1092 q 472 1085 458 1092 l 635 976 q 661 929 661 958 q 646 894 661 908 q 607 881 631 881 q 574 892 592 881 l 444 981 l 315 892 q 283 881 300 881 m 526 1129 q 418 1181 469 1129 q 383 1210 396 1201 q 356 1218 369 1218 q 328 1206 340 1218 q 303 1167 317 1193 q 258 1138 285 1138 q 225 1150 238 1138 q 213 1181 213 1163 q 218 1204 213 1193 q 276 1283 244 1258 q 350 1307 308 1307 q 408 1294 386 1307 q 460 1254 429 1281 q 494 1228 482 1235 q 517 1221 506 1221 q 535 1228 526 1221 q 551 1254 543 1236 q 572 1278 558 1269 q 600 1288 586 1288 q 614 1285 606 1288 q 647 1243 647 1271 q 642 1221 647 1231 q 590 1151 618 1172 q 526 1129 563 1129 z "},"ȅ":{"ha":853,"x_min":85,"x_max":797,"o":"m 449 767 q 631 719 551 767 q 753 586 710 671 q 797 393 797 501 q 783 358 797 371 q 747 344 769 344 l 186 344 q 275 160 197 231 q 469 89 353 89 q 570 106 519 89 q 651 150 621 124 q 689 164 669 164 q 719 153 704 164 q 738 115 738 136 q 722 83 738 97 q 606 19 676 44 q 469 -7 535 -7 q 271 42 358 -7 q 134 180 183 92 q 85 379 85 268 q 131 580 85 492 q 260 717 178 668 q 449 767 343 767 m 449 671 q 274 606 343 671 q 189 433 204 540 l 697 433 q 619 606 686 540 q 449 671 553 671 m 381 867 q 342 893 354 867 l 257 1072 q 253 1092 253 1083 q 268 1130 253 1114 q 307 1146 283 1146 q 338 1136 324 1146 q 356 1113 351 1126 l 417 924 q 419 907 419 913 q 408 878 419 889 q 381 867 396 867 m 590 867 q 551 893 564 867 l 467 1072 q 463 1092 463 1083 q 478 1130 463 1114 q 518 1146 494 1146 q 549 1136 535 1146 q 568 1113 563 1126 l 626 924 q 629 907 629 918 q 617 878 629 889 q 590 867 606 867 z "},"ë":{"ha":853,"x_min":85,"x_max":797,"o":"m 449 767 q 631 719 551 767 q 753 586 710 671 q 797 393 797 501 q 783 358 797 371 q 747 344 769 344 l 186 344 q 275 160 197 231 q 469 89 353 89 q 570 106 519 89 q 651 150 621 124 q 689 164 669 164 q 719 153 704 164 q 738 115 738 136 q 722 83 738 97 q 606 19 676 44 q 469 -7 535 -7 q 271 42 358 -7 q 134 180 183 92 q 85 379 85 268 q 131 580 85 492 q 260 717 178 668 q 449 767 343 767 m 449 671 q 274 606 343 671 q 189 433 204 540 l 697 433 q 619 606 686 540 q 449 671 553 671 m 297 899 q 243 921 265 899 q 221 975 221 943 q 243 1029 221 1007 q 297 1051 265 1051 q 351 1029 329 1051 q 374 975 374 1007 q 351 921 374 943 q 297 899 329 899 m 588 899 q 533 921 556 899 q 511 975 511 943 q 533 1029 511 1007 q 588 1051 556 1051 q 642 1029 619 1051 q 664 975 664 1007 q 642 921 664 943 q 588 899 619 899 z "},"ė":{"ha":853,"x_min":85,"x_max":797,"o":"m 449 767 q 631 719 551 767 q 753 586 710 671 q 797 393 797 501 q 783 358 797 371 q 747 344 769 344 l 186 344 q 275 160 197 231 q 469 89 353 89 q 570 106 519 89 q 651 150 621 124 q 689 164 669 164 q 719 153 704 164 q 738 115 738 136 q 722 83 738 97 q 606 19 676 44 q 469 -7 535 -7 q 271 42 358 -7 q 134 180 183 92 q 85 379 85 268 q 131 580 85 492 q 260 717 178 668 q 449 767 343 767 m 449 671 q 274 606 343 671 q 189 433 204 540 l 697 433 q 619 606 686 540 q 449 671 553 671 m 440 904 q 387 926 408 904 q 365 981 365 949 q 388 1035 365 1014 q 442 1056 410 1056 q 494 1035 472 1056 q 517 981 517 1014 q 494 926 517 949 q 440 904 472 904 z "},"ẹ":{"ha":853,"x_min":85,"x_max":797,"o":"m 449 767 q 631 719 551 767 q 753 586 710 671 q 797 393 797 501 q 783 358 797 371 q 747 344 769 344 l 186 344 q 275 160 197 231 q 469 89 353 89 q 570 106 519 89 q 651 150 621 124 q 689 164 669 164 q 719 153 704 164 q 738 115 738 136 q 722 83 738 97 q 606 19 676 44 q 469 -7 535 -7 q 271 42 358 -7 q 134 180 183 92 q 85 379 85 268 q 131 580 85 492 q 260 717 178 668 q 449 767 343 767 m 449 671 q 274 606 343 671 q 189 433 204 540 l 697 433 q 619 606 686 540 q 449 671 553 671 m 440 -290 q 387 -268 408 -290 q 365 -214 365 -246 q 388 -160 365 -181 q 442 -139 410 -139 q 494 -160 472 -139 q 517 -214 517 -181 q 494 -268 517 -246 q 440 -290 472 -290 z "},"è":{"ha":853,"x_min":85,"x_max":797,"o":"m 449 767 q 631 719 551 767 q 753 586 710 671 q 797 393 797 501 q 783 358 797 371 q 747 344 769 344 l 186 344 q 275 160 197 231 q 469 89 353 89 q 570 106 519 89 q 651 150 621 124 q 689 164 669 164 q 719 153 704 164 q 738 115 738 136 q 722 83 738 97 q 606 19 676 44 q 469 -7 535 -7 q 271 42 358 -7 q 134 180 183 92 q 85 379 85 268 q 131 580 85 492 q 260 717 178 668 q 449 767 343 767 m 449 671 q 274 606 343 671 q 189 433 204 540 l 697 433 q 619 606 686 540 q 449 671 553 671 m 440 883 q 404 899 419 883 l 247 1054 q 233 1092 233 1068 q 249 1131 233 1115 q 286 1147 264 1147 q 325 1131 308 1147 l 481 974 q 494 939 494 961 q 479 899 494 915 q 440 883 464 883 z "},"ẻ":{"ha":853,"x_min":85,"x_max":797,"o":"m 449 767 q 631 719 551 767 q 753 586 710 671 q 797 393 797 501 q 783 358 797 371 q 747 344 769 344 l 186 344 q 275 160 197 231 q 469 89 353 89 q 570 106 519 89 q 651 150 621 124 q 689 164 669 164 q 719 153 704 164 q 738 115 738 136 q 722 83 738 97 q 606 19 676 44 q 469 -7 535 -7 q 271 42 358 -7 q 134 180 183 92 q 85 379 85 268 q 131 580 85 492 q 260 717 178 668 q 449 767 343 767 m 449 671 q 274 606 343 671 q 189 433 204 540 l 697 433 q 619 606 686 540 q 449 671 553 671 m 440 831 q 405 845 419 831 q 390 881 390 860 l 390 919 q 435 974 390 964 l 469 981 q 526 1042 526 994 q 507 1089 526 1072 q 457 1106 488 1106 q 396 1083 425 1106 q 361 1071 383 1071 q 330 1083 343 1071 q 317 1115 317 1096 q 333 1153 317 1139 q 456 1196 388 1196 q 572 1155 526 1196 q 618 1049 618 1114 q 579 953 618 988 q 478 910 540 919 l 489 892 q 475 847 489 864 q 440 831 461 831 z "},"ȇ":{"ha":853,"x_min":85,"x_max":797,"o":"m 449 767 q 631 719 551 767 q 753 586 710 671 q 797 393 797 501 q 783 358 797 371 q 747 344 769 344 l 186 344 q 275 160 197 231 q 469 89 353 89 q 570 106 519 89 q 651 150 621 124 q 689 164 669 164 q 719 153 704 164 q 738 115 738 136 q 722 83 738 97 q 606 19 676 44 q 469 -7 535 -7 q 271 42 358 -7 q 134 180 183 92 q 85 379 85 268 q 131 580 85 492 q 260 717 178 668 q 449 767 343 767 m 449 671 q 274 606 343 671 q 189 433 204 540 l 697 433 q 619 606 686 540 q 449 671 553 671 m 440 1092 q 592 1046 529 1092 q 658 929 656 1000 q 644 891 658 907 q 607 875 629 875 q 569 889 585 875 q 554 925 554 903 q 523 980 554 958 q 440 1001 492 1001 q 360 979 392 1001 q 328 925 328 957 q 313 890 328 904 q 276 875 297 875 q 239 891 254 875 q 224 931 224 907 q 253 1012 224 975 q 332 1070 282 1049 q 440 1092 382 1092 z "},"ē":{"ha":853,"x_min":85,"x_max":797,"o":"m 449 767 q 631 719 551 767 q 753 586 710 671 q 797 393 797 501 q 783 358 797 371 q 747 344 769 344 l 186 344 q 275 160 197 231 q 469 89 353 89 q 570 106 519 89 q 651 150 621 124 q 689 164 669 164 q 719 153 704 164 q 738 115 738 136 q 722 83 738 97 q 606 19 676 44 q 469 -7 535 -7 q 271 42 358 -7 q 134 180 183 92 q 85 379 85 268 q 131 580 85 492 q 260 717 178 668 q 449 767 343 767 m 449 671 q 274 606 343 671 q 189 433 204 540 l 697 433 q 619 606 686 540 q 449 671 553 671 m 261 911 q 222 925 238 911 q 207 961 207 939 q 222 997 207 983 q 261 1011 238 1011 l 621 1011 q 659 997 643 1011 q 675 961 675 983 q 659 925 675 939 q 621 911 643 911 l 261 911 z "},"ę":{"ha":853,"x_min":85,"x_max":797,"o":"m 449 767 q 631 719 551 767 q 753 586 710 671 q 797 393 797 501 q 783 358 797 371 q 747 344 769 344 l 186 344 q 275 160 197 231 q 469 89 353 89 q 543 99 501 89 l 557 103 q 651 150 618 121 q 689 164 669 164 q 719 153 704 164 q 738 115 738 136 q 722 83 738 97 q 614 22 679 46 q 533 -68 600 -18 q 511 -112 511 -85 q 527 -151 511 -136 q 565 -167 543 -167 q 594 -158 582 -167 l 642 -124 q 674 -112 657 -112 q 713 -128 697 -112 q 728 -167 728 -144 q 710 -210 728 -192 l 654 -246 q 565 -275 613 -275 q 451 -227 499 -275 q 403 -112 403 -179 q 443 -6 403 -54 q 257 50 339 0 q 130 185 175 100 q 85 379 85 271 q 131 580 85 492 q 260 717 178 668 q 449 767 343 767 m 449 671 q 274 606 343 671 q 189 433 204 540 l 697 433 q 619 606 686 540 q 449 671 553 671 z "},"ẽ":{"ha":853,"x_min":85,"x_max":797,"o":"m 449 767 q 631 719 551 767 q 753 586 710 671 q 797 393 797 501 q 783 358 797 371 q 747 344 769 344 l 186 344 q 275 160 197 231 q 469 89 353 89 q 570 106 519 89 q 651 150 621 124 q 689 164 669 164 q 719 153 704 164 q 738 115 738 136 q 722 83 738 97 q 606 19 676 44 q 469 -7 535 -7 q 271 42 358 -7 q 134 180 183 92 q 85 379 85 268 q 131 580 85 492 q 260 717 178 668 q 449 767 343 767 m 449 671 q 274 606 343 671 q 189 433 204 540 l 697 433 q 619 606 686 540 q 449 671 553 671 m 588 871 q 518 883 549 871 q 453 917 488 896 q 406 942 424 935 q 369 949 388 949 q 278 900 318 949 q 257 881 269 888 q 232 874 244 874 q 208 881 219 874 q 192 897 199 886 q 186 918 186 907 q 196 949 186 935 q 276 1017 231 993 q 372 1042 322 1042 q 438 1031 410 1042 q 501 997 465 1019 q 549 971 533 978 q 586 964 565 964 q 654 992 629 964 q 697 1015 675 1015 q 719 1008 708 1015 q 744 969 744 996 q 733 939 744 954 q 588 871 678 871 z "},"ə":{"ha":853,"x_min":56,"x_max":768,"o":"m 383 767 q 582 717 494 767 q 719 580 669 668 q 768 381 768 492 q 722 180 768 268 q 592 42 675 92 q 404 -7 510 -7 q 222 41 301 -7 q 99 174 143 89 q 56 367 56 258 q 69 402 56 389 q 106 415 83 415 l 667 415 q 578 600 656 529 q 383 671 500 671 q 283 653 333 671 q 201 610 232 636 q 164 596 183 596 q 133 607 149 596 q 115 644 115 624 q 131 676 115 663 q 247 741 176 715 q 383 767 318 767 m 404 89 q 579 154 510 89 q 664 326 649 219 l 156 326 q 233 154 167 219 q 404 89 300 89 z "},"f":{"ha":508,"x_min":31,"x_max":514,"o":"m 460 988 q 322 926 368 988 q 275 764 275 865 l 275 732 l 442 732 q 477 719 464 732 q 490 685 490 706 q 477 652 490 665 q 442 639 464 639 l 275 639 l 275 54 q 260 15 275 29 q 219 0 246 0 q 183 15 197 0 q 168 54 168 29 l 168 639 l 79 639 q 44 652 57 639 q 31 685 31 665 q 44 719 31 706 q 79 732 57 732 l 168 732 l 168 758 q 244 996 168 907 q 460 1085 321 1085 q 499 1071 483 1085 q 514 1036 514 1057 q 499 1001 514 1015 q 460 988 483 988 z "},"g":{"ha":940,"x_min":85,"x_max":857,"o":"m 471 767 q 669 717 582 767 q 807 580 757 668 q 857 379 857 492 l 857 96 q 808 -106 857 -15 q 671 -248 758 -196 q 474 -300 583 -300 q 283 -260 367 -300 q 143 -147 200 -219 q 131 -115 131 -133 q 150 -79 131 -94 q 181 -69 164 -69 q 206 -76 193 -69 q 225 -92 218 -82 q 331 -174 267 -144 q 475 -203 394 -203 q 616 -165 553 -203 q 715 -58 679 -126 q 751 100 751 11 l 751 163 q 633 38 710 83 q 460 -7 557 -7 q 266 42 351 -7 q 133 180 181 92 q 85 379 85 268 q 135 580 85 492 q 273 717 185 668 q 471 767 361 767 m 471 90 q 615 127 551 90 q 715 230 679 164 q 751 379 751 296 q 715 528 751 463 q 615 632 679 594 q 471 669 551 669 q 325 632 389 669 q 225 528 261 594 q 189 379 189 463 q 225 230 189 296 q 325 127 261 164 q 471 90 389 90 z "},"ğ":{"ha":940,"x_min":85,"x_max":857,"o":"m 471 767 q 669 717 582 767 q 807 580 757 668 q 857 379 857 492 l 857 96 q 808 -106 857 -15 q 671 -248 758 -196 q 474 -300 583 -300 q 283 -260 367 -300 q 143 -147 200 -219 q 131 -115 131 -133 q 150 -79 131 -94 q 181 -69 164 -69 q 206 -76 193 -69 q 225 -92 218 -82 q 331 -174 267 -144 q 475 -203 394 -203 q 616 -165 553 -203 q 715 -58 679 -126 q 751 100 751 11 l 751 163 q 633 38 710 83 q 460 -7 557 -7 q 266 42 351 -7 q 133 180 181 92 q 85 379 85 268 q 135 580 85 492 q 273 717 185 668 q 471 767 361 767 m 471 90 q 615 127 551 90 q 715 230 679 164 q 751 379 751 296 q 715 528 751 463 q 615 632 679 594 q 471 669 551 669 q 325 632 389 669 q 225 528 261 594 q 189 379 189 463 q 225 230 189 296 q 325 127 261 164 q 471 90 389 90 m 469 876 q 361 898 411 876 q 282 956 311 919 q 253 1038 253 993 q 268 1077 253 1061 q 306 1093 283 1093 q 342 1078 326 1093 q 357 1043 357 1064 q 389 989 357 1011 q 469 967 421 967 q 552 988 521 967 q 583 1043 583 1010 q 599 1079 583 1065 q 636 1093 614 1093 q 673 1077 658 1093 q 688 1039 688 1061 q 622 922 685 968 q 469 876 558 876 z "},"ǧ":{"ha":940,"x_min":85,"x_max":857,"o":"m 471 767 q 669 717 582 767 q 807 580 757 668 q 857 379 857 492 l 857 96 q 808 -106 857 -15 q 671 -248 758 -196 q 474 -300 583 -300 q 283 -260 367 -300 q 143 -147 200 -219 q 131 -115 131 -133 q 150 -79 131 -94 q 181 -69 164 -69 q 206 -76 193 -69 q 225 -92 218 -82 q 331 -174 267 -144 q 475 -203 394 -203 q 616 -165 553 -203 q 715 -58 679 -126 q 751 100 751 11 l 751 163 q 633 38 710 83 q 460 -7 557 -7 q 266 42 351 -7 q 133 180 181 92 q 85 379 85 268 q 135 580 85 492 q 273 717 185 668 q 471 767 361 767 m 471 90 q 615 127 551 90 q 715 230 679 164 q 751 379 751 296 q 715 528 751 463 q 615 632 679 594 q 471 669 551 669 q 325 632 389 669 q 225 528 261 594 q 189 379 189 463 q 225 230 189 296 q 325 127 261 164 q 471 90 389 90 m 471 888 q 444 894 453 888 l 281 1003 q 254 1049 254 1021 q 266 1078 254 1067 q 297 1089 278 1089 q 342 1074 318 1089 l 471 986 l 600 1072 q 646 1089 624 1089 q 676 1077 665 1089 q 688 1049 688 1065 q 661 1003 688 1021 l 499 894 q 471 888 489 888 z "}}}
